<mxfile host="app.diagrams.net" modified="2023-12-30T21:54:05.780Z" agent="Mozilla/5.0 (Windows NT 10.0; Win64; x64) AppleWebKit/537.36 (KHTML, like Gecko) Chrome/120.0.0.0 Safari/537.36" etag="aSGKo2VdCW9YYahlgT00" version="22.1.16" type="device">
  <diagram name="Page-1" id="ipebuE7-CVWAQMu9TCIi">
    <mxGraphModel dx="3055" dy="1570" grid="1" gridSize="10" guides="1" tooltips="1" connect="1" arrows="1" fold="1" page="1" pageScale="1" pageWidth="850" pageHeight="1100" math="0" shadow="0">
      <root>
        <mxCell id="0" />
        <mxCell id="1" parent="0" />
        <mxCell id="Vu9pHZqkGJGlEkoihoIZ-20" value="" style="rounded=0;whiteSpace=wrap;html=1;rotation=90;" vertex="1" parent="1">
          <mxGeometry x="157.78" y="340" width="540.5" height="583.11" as="geometry" />
        </mxCell>
        <mxCell id="Vu9pHZqkGJGlEkoihoIZ-3" value="" style="rounded=1;whiteSpace=wrap;html=1;rotation=-90;dashed=1;dashPattern=8 8;" vertex="1" parent="1">
          <mxGeometry x="4" y="574.8299999999999" width="472.5" height="154.45" as="geometry" />
        </mxCell>
        <mxCell id="Vu9pHZqkGJGlEkoihoIZ-2" value="" style="whiteSpace=wrap;html=1;aspect=fixed;strokeColor=none;fillColor=#d5e8d4;" vertex="1" parent="1">
          <mxGeometry x="174.27" y="445.26" width="132.5" height="132.5" as="geometry" />
        </mxCell>
        <mxCell id="Vu9pHZqkGJGlEkoihoIZ-4" value="VPC 10.0.128.0/20" style="text;html=1;strokeColor=none;fillColor=none;align=center;verticalAlign=middle;whiteSpace=wrap;rounded=0;fontStyle=1;fontColor=#2bb13a;" vertex="1" parent="1">
          <mxGeometry x="143.02" y="375.26" width="130" height="30" as="geometry" />
        </mxCell>
        <mxCell id="Vu9pHZqkGJGlEkoihoIZ-6" value="Availability Zone 1" style="text;html=1;strokeColor=none;fillColor=none;align=center;verticalAlign=middle;whiteSpace=wrap;rounded=0;fontStyle=1;fontColor=#0000FF;" vertex="1" parent="1">
          <mxGeometry x="185.52" y="415.26" width="110" height="30" as="geometry" />
        </mxCell>
        <mxCell id="Vu9pHZqkGJGlEkoihoIZ-7" value="SPOKE PROD&amp;nbsp;" style="text;html=1;strokeColor=none;fillColor=none;align=center;verticalAlign=middle;whiteSpace=wrap;rounded=0;fontStyle=1" vertex="1" parent="1">
          <mxGeometry x="363.02" y="365.26" width="120" height="30" as="geometry" />
        </mxCell>
        <mxCell id="Vu9pHZqkGJGlEkoihoIZ-8" value="" style="shape=image;verticalLabelPosition=bottom;labelBackgroundColor=default;verticalAlign=top;aspect=fixed;imageAspect=0;image=data:image/png,iVBORw0KGgoAAAANSUhEUgAAACAAAAAlCAYAAAAjt+tHAAABcElEQVRYCe2VsUoDQRCG72F8grxAHkBSp7C0sUtnkzZoJ4iklDTpNFWKFCnTBBvBQhArQTR2SgrLke9gIBy7e3NHNouwgWUvu3f3f/PP3E4hiX9F9+JIUo4MkB1o7MDxVUduliN5fFvL6+ZZVi9LuXuYCOttirkRwOltrxSdrK6FaxUF6PP7XQbTk8YQZgDEiHp4f+YUYR9H+uOuc9/njhmAKInc9yLWcWDxNAveU33eDECuLdHhQlUk9N8MQI5DL9I90qS1oWuh2QxgjczqlEJlAK8DFBxVr4Ma0OvQTKo4mPSeurPBC8D3Tj6Z2w4ggNF8u+YgAC9wPWRdAzwqQN3nFg2A+tBmFOoB0QC0NkgFLvgOqWgAVUHcoDtWayMaAA3ncn5eCiIMkKseogEgRhoQ3k3HwRxQIQ4dV+S6H80BFUgOUNd6ozugTvjm/w1AF9v+/pSVTrW3HXX9xNuMfLbuez0DZAeKr+2HpBzJAf4AZcs7IdS9HSYAAAAASUVORK5CYII=;" vertex="1" parent="1">
          <mxGeometry x="180.52" y="445.26" width="32" height="37" as="geometry" />
        </mxCell>
        <mxCell id="Vu9pHZqkGJGlEkoihoIZ-10" value="" style="whiteSpace=wrap;html=1;aspect=fixed;strokeColor=none;fillColor=#dae8fc;" vertex="1" parent="1">
          <mxGeometry x="174.27" y="585.26" width="132.5" height="132.5" as="geometry" />
        </mxCell>
        <mxCell id="Vu9pHZqkGJGlEkoihoIZ-9" value="" style="shape=image;verticalLabelPosition=bottom;labelBackgroundColor=default;verticalAlign=top;aspect=fixed;imageAspect=0;image=data:image/png,iVBORw0KGgoAAAANSUhEUgAAAB8AAAAkCAYAAABxE+FXAAABbklEQVRYCe2VMUpEQQyG3xm8gTfwBN7AG3gDb2BhKVaW2lluaaeFhRYKW1goKKyFIFuo2KhsoYJF5HsQGONmZ+bpOKCvCDPZ93a+vORPpplbO5Ba1tQCw+3hVeqenfbFraFsD8dycT+R8dOL7I0eZGX3slPwWfDV/Ss5uXlsYfPrhy1waee0DYCAcsWbDAcCWKEWNDi7lY2j66wAkuGASbmFhj6l8IIL39N9EpwDOVj/5K2kPqf+SXC+mLR6UP19eXAu6EL92Prj8Jy69/AvdaLOpBDToaK+tzJw6Ap9HhOfm3aAHIKIulqsQ2bCGSwxxXrPU9qzMzw2TIrB6WUuFczr/yLwhc3jTzMe+DRhFYEjvvAG86ZfETiHkm6Exp5Apo3UInCgdMHz63t72QAHZFVfDA7Ipv//wEl9KLxf/XILs37RmluY9b8F51JB0TrJuqzccDao0Hdne/hSqX0Pn1mbv5n2u8mb1LKmFhjuB5dH5Ay+37lMAAAAAElFTkSuQmCC;" vertex="1" parent="1">
          <mxGeometry x="180.52" y="585.26" width="31" height="36" as="geometry" />
        </mxCell>
        <mxCell id="Vu9pHZqkGJGlEkoihoIZ-11" value="" style="outlineConnect=0;dashed=0;verticalLabelPosition=bottom;verticalAlign=top;align=center;html=1;shape=mxgraph.aws3.ec2;fillColor=#F58534;gradientColor=none;" vertex="1" parent="1">
          <mxGeometry x="193.02" y="505.26" width="32.5" height="26.25" as="geometry" />
        </mxCell>
        <mxCell id="Vu9pHZqkGJGlEkoihoIZ-12" value="" style="outlineConnect=0;dashed=0;verticalLabelPosition=bottom;verticalAlign=top;align=center;html=1;shape=mxgraph.aws3.classic_load_balancer;fillColor=#F58534;gradientColor=none;" vertex="1" parent="1">
          <mxGeometry x="263.02" y="496.51" width="30" height="30" as="geometry" />
        </mxCell>
        <mxCell id="Vu9pHZqkGJGlEkoihoIZ-13" value="&lt;div style=&quot;color: rgb(204, 204, 204); background-color: rgb(36, 36, 36); font-family: Consolas, &amp;quot;Courier New&amp;quot;, monospace; font-weight: normal; font-size: 14px; line-height: 19px;&quot;&gt;&lt;div&gt;&lt;span style=&quot;color: #cccccc;&quot;&gt;PublicSub1&lt;/span&gt;&lt;/div&gt;&lt;div&gt;&lt;div style=&quot;line-height: 19px;&quot;&gt;10.0.128.0/20&lt;/div&gt;&lt;/div&gt;&lt;/div&gt;" style="text;whiteSpace=wrap;html=1;align=center;" vertex="1" parent="1">
          <mxGeometry x="187.02" y="530.26" width="110" height="40" as="geometry" />
        </mxCell>
        <mxCell id="Vu9pHZqkGJGlEkoihoIZ-14" value="&lt;div style=&quot;color: rgb(204, 204, 204); background-color: rgb(36, 36, 36); font-family: Consolas, &amp;quot;Courier New&amp;quot;, monospace; font-weight: normal; font-size: 14px; line-height: 19px;&quot;&gt;&lt;div&gt;&lt;span style=&quot;color: #cccccc;&quot;&gt;P&lt;/span&gt;rivateSub1&lt;/div&gt;&lt;div&gt;&lt;div style=&quot;line-height: 19px;&quot;&gt;10.0.0.0/19&quot;&lt;/div&gt;&lt;/div&gt;&lt;/div&gt;" style="text;whiteSpace=wrap;html=1;" vertex="1" parent="1">
          <mxGeometry x="193.02" y="670.26" width="110" height="40" as="geometry" />
        </mxCell>
        <mxCell id="Vu9pHZqkGJGlEkoihoIZ-18" value="" style="whiteSpace=wrap;html=1;aspect=fixed;strokeColor=none;fillColor=#dae8fc;" vertex="1" parent="1">
          <mxGeometry x="175.77" y="725.26" width="132.5" height="132.5" as="geometry" />
        </mxCell>
        <mxCell id="Vu9pHZqkGJGlEkoihoIZ-19" value="" style="shape=image;verticalLabelPosition=bottom;labelBackgroundColor=default;verticalAlign=top;aspect=fixed;imageAspect=0;image=data:image/png,iVBORw0KGgoAAAANSUhEUgAAAB8AAAAkCAYAAABxE+FXAAABbklEQVRYCe2VMUpEQQyG3xm8gTfwBN7AG3gDb2BhKVaW2lluaaeFhRYKW1goKKyFIFuo2KhsoYJF5HsQGONmZ+bpOKCvCDPZ93a+vORPpplbO5Ba1tQCw+3hVeqenfbFraFsD8dycT+R8dOL7I0eZGX3slPwWfDV/Ss5uXlsYfPrhy1waee0DYCAcsWbDAcCWKEWNDi7lY2j66wAkuGASbmFhj6l8IIL39N9EpwDOVj/5K2kPqf+SXC+mLR6UP19eXAu6EL92Prj8Jy69/AvdaLOpBDToaK+tzJw6Ap9HhOfm3aAHIKIulqsQ2bCGSwxxXrPU9qzMzw2TIrB6WUuFczr/yLwhc3jTzMe+DRhFYEjvvAG86ZfETiHkm6Exp5Apo3UInCgdMHz63t72QAHZFVfDA7Ipv//wEl9KLxf/XILs37RmluY9b8F51JB0TrJuqzccDao0Hdne/hSqX0Pn1mbv5n2u8mb1LKmFhjuB5dH5Ay+37lMAAAAAElFTkSuQmCC;" vertex="1" parent="1">
          <mxGeometry x="180.52" y="735.26" width="31" height="36" as="geometry" />
        </mxCell>
        <mxCell id="Vu9pHZqkGJGlEkoihoIZ-15" value="&lt;div style=&quot;color: rgb(204, 204, 204); background-color: rgb(36, 36, 36); font-family: Consolas, &amp;quot;Courier New&amp;quot;, monospace; font-weight: normal; font-size: 14px; line-height: 19px;&quot;&gt;&lt;div&gt;&lt;span style=&quot;color: #cccccc;&quot;&gt;PrivateSub2&lt;/span&gt;&lt;/div&gt;&lt;div&gt;&lt;div style=&quot;line-height: 19px;&quot;&gt;10.0.192.0/21&lt;/div&gt;&lt;/div&gt;&lt;/div&gt;" style="text;whiteSpace=wrap;html=1;" vertex="1" parent="1">
          <mxGeometry x="186.77" y="811.26" width="120" height="40" as="geometry" />
        </mxCell>
        <mxCell id="Vu9pHZqkGJGlEkoihoIZ-22" value="" style="shape=image;verticalLabelPosition=bottom;labelBackgroundColor=default;verticalAlign=top;aspect=fixed;imageAspect=0;image=data:image/png,iVBORw0KGgoAAAANSUhEUgAAAkwAAAK7CAYAAAAA89BiAAAgAElEQVR4Aexdu9XrNrNVS15ef6JGHDhxpCacOHKsApw4dQFf4swFuACfzA24BN47AAbYM3gQFEUSpOZb6xwRBDCPvcHBCKSI22R/hoAhYAgYAoaAIWAIGAJNBG7NWqs0BAwBQ8AQMAQMAUPAEJgsYbJBYAgYAoaAIWAIGAKGwAwCljDNAGTVhoAhYAgYAoaAIWAIWMJkY8AQMAQMAUPAEDAEDIEZBCxhmgHIqg0BQ8AQMAQMAUPAELCEycaAIWAIGAKGgCFgCBgCMwhUE6bb7TbZP8PAxoCNARsDNgZsDNgY+IQxMJMv1X8l9wngmI8WBGwM2BiwMWBjwMaAjQEaA3N/1RY8gP79759pi39by9/CZpO5zVgwXOu40nVi+NTxuTI2xv2YvBsvY/KyJhZwPmIJ00YJ3xpyrO/1LritOLXg/Lljxbgfk3vjZUxe1sRgS5gsUbKViQuMAQvO1wvOvYHduB+Te+NlTF56r6tSO0uYLjBZloi1c9e7WFucWnD+LL5xLBj3Y3JvvIzJC147S48tYbKEyVaYLjAGLDhfLzj3BnPjfkzul/Hy5/TL/+iB6h+m37eIR3/84H7N/uMfAatQJht//EnVvUu/1hnl/jb9SL+u/+m3N809C7Cr2tQ3hggv+jf3V23BAnov7qXttpa/1B5r3zewDKd9caLrxDDfF/NR8Dbux+Rd8jI3qc/VL/Exl/XXr99BwhTq//fz9Nd//0yybomedtuy3KD7bckS2ZD7W702LWFqk1YFLma71t8wOv8YkMH5/P7YmOzn0Ljvx2rPcSV5mZvU5+qX+Dgn690rPEts26LtnL+g0xImAMOSIFtl+NAxIIOzXRN7ToxH6zLuxxzvkpfCpP73z9P3/OLn//0w/ahvyWE93Trj22n/+YTn+19/C7fx/G0iX8964H1JtJoTE4WQLLHe23fTL7+qW3JCL9wiDDLIL/qX7Pln+rfUJ+pkfgq6/5Z1ZZ+4DXyiviXYZTaBzI65g323W3IdYB0dGE3/ssH9SXjJ4Gw4Gfc2Bo4eA/Ka5ESGE5CQPITbYpzQpGeYQn24deVvb303/eISDE48uBxks6zSLSqRKEjZrNsnQHnd97/+6ROiqvxKn5LOORmUwDkftU84noM+lhX0dGEnbEKZfceWMFmiZKtSFxgDMjj3XfxHTyim/z08GffvwfHd41HyohKmMHG7ZMTFn3J9XMUJKyq+vUpQ/vtn+v0nWvXhZEzJIvkiUVD9sQ6PG3HR6wvJTa0Png/Hyd8ZmzKfgONMlvIX9ZIPiJ2ua/hYGg+WMC0ErASinYPBbHgekoDK4Gx8fNI1adyPOd4lLzOTuloV4gemeYLmz60TJtYbEzWI5z5Jglt9YTWo2geSk2IbkfioJK4jYUo2SmxZF2PGnw47sOmVGMGy7JYcDIxXgLQ+YwatT+GFLuRP8dX8lNeacS/xGGV8SF7kpM4rPmnFRdbzpJ+SAvRxLrmQshweIlFQ/bEOj2FO1PaMvMKkbRXjoeKfaAN+6/OWMDXA0WBZGS9aOx5pPMjgbNyMxM3Wthj3Y453yYtOYkLSUnsOhx9qLv78XiU8hdUYkdDQHCcSBdUf67Tev3+efvz1T/XqAfYl3JKr9CnqZH/Vitq/4UF2fDeT94FvMyLHK7BDX1+Y+w9KmBjw23SLACIg6ZgN3DroSPlsXyBrJchSdvLNzhsW7xoDMjifHVd1/b0Q2GZxvdA1vR33amLVPFwIw9nxon3vKEteCmM64OfmuP/9PP3u3pUECQLWu1+m8QPROS9ZcsFJDPUTv5Kj2KD6ax6FXraH7Q+/kHMvu2R7UkLmfOFnqbRctMn5w7ILNhWSQMER2rgEO21TB4+o1/tXfS1lvFNXbcECktBABhMVDPLLZPCQmEuUPAlpWTIP9FX5M4lWsieXOV/Hg8MT2lziWwg462aZ7B9/lpdgX/HB+jDWn/BJ4yfzE4OKC1Dqp8Avjt1Mz9vlyOtvE30rA+cmNr2IY5F7nhRvt6kVX9t+qIlV2ccxzGJWOdaWeSm3bfNgfUbBh+fpmBlVDl5LmOJPBPltouWEqXXBsYEJsHAR75gwJd1bDdwdJggV7Lb3aSusTG6JOx2ceTLDybJ0riTr+HM7XA9XT5gwWX45VrYTpuPHydixQF+ThtfYfPXww/lIJU+KpxcnTN//9IN7KRcHbB+seQmPA+Irt+QaCRMGCfFiLd+n+VIsXC7UL8ISwXVell8exV8TtL/Zlyey4GdYGbhB8slLqt3+CCzOP2h7BvantZHBuXaN8HXHS+GhXXxOQtenn+RyoKh9uRFjPsrr788//XV69PVHyT5en2o8l3XPXKfiml4gP1upa12n+1xrknuv02ESb1Vw3E1+/vhreGkiJ1MCXz0+fi68IDHdhvnxj8K44RUuls/lYjzbB6e9Y0KJl71tMH3vHVscB2NmVDlYnjDFt5DibS24cDtXPNjARHxlMqALPl6c+gLmoMb6Q31sr2TGxCsEDhFcZ2S5tqwntMUJJPNb6Xb1+tyL/gS9Mll97wBKvJjcI7EQwTmMV/6ygnb55KI2PivjbG4cieuD3glTll8fh2q8B3npvTLyOhJy5nTH5Er5JvrNyS/7w19c0nOYSkd2rW9zjQjuIX44/kMiFMdCTIzYJ7JJ+k8P6/r24Xz8shb847gJGPKXvphQhzohh/tlD/xugwuO+yOOc16u6ecR2B6lk/ORSp4UT7+QMP0Zn8yni0YEuQWBhA1MAIWLOF585UHYnhjUi77ExU3yVOCDwJAFF/1wmmvLwUgFooLfWaChNpk96ZwPSLlc728pwUvfKmPQLNiR8C3jafVj4yKCc2n8BM79OOEVTz2OWuO+MY6CPvyFixsv4XycRPXkzeMws3eBHTXdOgnQm4yibXhMNqGdrq5yPYd+4rrSstjHDT8F96RH2KySHE6Y8Etc1WY9Pspx0/Gr5Ir4OwhOe8ewjJcNx8Devn2qPs5HYmZUOXgtYYLE4xf3CwAOPP2TDxuYCAoXcSFh4smA+6TbWAsufDeoWwF7RhYH6rj0zMvbBZ85yChf5pOotg3cP+Hgbw+KwG4Xb/6Q9IkxIa7jNVKaoIJvYiLjsRonTznul4wjce2F8dzdP5uwl9lR0l36YsP2uAkedPL58vUSrrXC9cz9YkJIGDewj/y8eZwJ7vkLHMQUYSfHnMg5P1/KSTTGqXacYV+9/5iYyX5CP/t+AE5b4V+Tq3mptbPzOObGPuYYUcmT4ukXEyYIIP/7bkoJTD8obGAaVOFihIBAdfqibE8M5W9KKaGQAVsGBhkMSLfXhbceG0kSB4zYr5BEloIJBPjSZJDbUAqA/bgnvK3PGbAQwZknRXWNZCunnQmTSAhg/JZw4euQriU+nu2fjXd5/fXK4Xb+Os6vU6539sD1JM4r/3xd5XrO7E7xbtZnpaeEZe+5IvcxwYNnKSlJ4rEBCZOMb3i95xhinNH9OOb++P+3ZMmmiMEgOPXi+a52gpc38v0u+0wOjvW+Y+KU/s39VVuwgAS+v8jy5IMUFZKDmYFUk5+eG/COyqDHAZf1zVz4PHHwBBMu8PgMBQTX3mSF7abPhAWQUgpcEYtgL9sDK3W/uzYz/jRlgw1Rn51L4/ecWNA4Qx/85AWTVkzQ8ZwaZ3rcd44juvbiGMfJsbN/vKZ4vC+wo6qbr+k4cXNMCMkPXtMNOzmulK9nhV92ne4zlpB7tjcmKxgv6P04JV/1ufCywsgLJFethIkTKI8VJplj4ITXxx7HyMse+kzH9tcbx4ENE6b0reutCRN+g3KBlgOizwB/FC/WmkkwKKjEIO1/uSdeIobBlQNxLYi4ek7UePUplXlQc2BjAvgzTjwcxKKfhQBUtUH542TkNrAt9rn9hbY1xqXgXBtjfqzJxMGdi7+qgrGG10V1HIXri8cqjEtxXVX7q/G6yI6abr7m8RdecA2Ia1rpF3aSnNSPV1H8jurpeSe+fuOXrB2/jCTuOQYCf8GOmEDzr+OQIx3/+MWDc7FOY8jtCT8tvxnPzn/9la7vxMsF/Qt8xvlqx/FeSuRL+Hefy8ZxnS++zt+YMNWVdTsA4LOBr/Q9oo8LTPxNuXCr8AibTOd7x+SIePYHZ04w8kl1RL9et4kTpt/EyttSeWe4nvu5v/51sJTfLdtfmRefgHMM4ZgiE2X/hS192Xgf1u+5tpM9/fI4H7GECZK0BOTSAKO/4enyUnnW/nUuPgu7Kwfn18ZAfxCsy9fXry6PMcaM+zF40OPouryE6yAuDEDCBKux50mYtD/18WQJ01sSJQA4W3reIsMGfe+23+StWpHQQXOv8nWD86tj/R0JU+mW23jXs3H/6hjZtp/gJcwL7ReG4vOFeuyp1Zx4y1Ml8RU9fEvWTfixL/mPyU7nc8Y8x0U5Xkb7ZdUzurTddFuXEjLWJZ4F5msbb7cDdloWJ3Ygi3DA5/w8PvPXtsPvvQ99v3cQsoF7TTym5738GZ774EnXiWG9D9aj4Wzcj8m74CVO1jgp88TvbxvLFRlZR88C+ueF1Hn9Q4OSHvWMTvZiWU4otKzal+cgLz2/5G1KO0/45K7oT01XtBv7pp1AZEITMIhJTzlplM9MS9ykbfmv7GvXOOcjdkuuNjjsvE3EJxgDIjifwN5aQLLzyyd/4345ZnuMM8ELJwRxVSb90CCudIQ2LhFRSU6yV0782atCGnqyB/GzxKdgUymWZLZxwtR4WfWcLvSddKr2MsHRGKiEp4FBEWvQF+tLfv/3j3ulAPE691dtQZ3FwKgoSoQvG9xby3/VLuu3jEfDa1u8trwGjbttuVuLr3E/Jj+Cl8Ik7pMAP3/yPEeflDBxXT6B62ShsrqCiRm8UsTpCas8RR0qUSmOzVbCBKtU+LLqWV0bJ0ysH3FmrJ2PmU/lMcX9LWF6c6JXHGimw1arNhoDdCHbmCsHuavjYtyPybvgpZEw5UlRWmHJ615LmPga4MQBV7HSrbWWXsA4Sy5ghYniGydd+LJqPvfrnylOoZydEqYcz+AX2tKI0ZYwNcDhQWafcLEYXumCHwgLEZwHssuune2vHeN+e4xfGceCl0LCVHzrOl+7ur1+mSg/CxQm+vj+L90vvNomJkUicQnJF8uC1SH/guQKrkIGtVEJU5SDD5HP6HolYZp7hglX2Qq4IKecSFYTqsCLJUw8QO1zyEQAB7UdVwJYuLdu+NTxuTI2YmK2ODZMHBO81CbsmPDwrTl4KFzU8a/k0gqOm7z1S16LekKyEh6fEc8ycXuuiy8tbVxL3CcmJDphQhvBH+5X0hXqyokdP6PEsljfb9Mv/yvgxnqifcEXgScmc/UXTOu4YQmTBZhhAowenFZuBC01bkVwVnWGYz+OZ8TKuB+T3+vy0v/eonNcT/3+WMJkk4slTBcYA9cNzmNOhiNNBMb9mGPkyrzIn/mPiX/3NVpbkSrMC5YwFUDpBtr6WrI1yBi4cnC267E9IRn3bXyOGj+X5kXfQhskDr7CtX9+iW/3tcfS2xImFmSffE/VPm0s2BiwMWBjwMaAjYGrjYHVrxW4GiDmj13kNgZsDNgYsDFgY8DGgB4DqxOmV5bCevqwoXMGWr0h8MkI0HVif5+JgHE/Ju/Gy5i8rLGqNx+pRmMW0JP8vNKG5a9x0voaAldHwILz1Rmu+2fc17E5ssZ4ORL9bXT35iOWMG2Dv0k1BN6CgAXnt8B4SiHG/Zi0GS9j8rLGKkuY1qBnfQ2BQRCw4DwIEQeYYdwfAHqHSuOlA6STNbGE6WSEfbS5X4/p9vj6aAhqzltwriFz/fPG/ZgcGy9j8rLGqlMmTF+P9NT+/fltjf+r+5ItR9uw2okdBHx73lfi9DU9bo9pWbr0Sh8C49V+rwK5Xp8F51exP38/435MDo2XMXlZY9X5EiZaZbg/J06Tvh5LJ9E1cF2x77fpeb9PW+ed6xOmV7B/NRF5td8rNlKf9fosOL+K/fn7Gfdjcmi8jMnLGqtOnzAJ5789p3vc2K++8oMrVLe4aqEnLSxTUpFWtQg0vjOUJQI1G+j84+nlcMJXayucQjuoAstf0+P+nJ6w4sZ2+XZocykpUn5xZ2UXn3Yy78/p63mfeOCI1bVqv2mawynpUDZFrJXfwPPtVvItYfUEe5MelJfa+hUsX4f9hJ+RH2pXw7jFDdH4iBjeHo8XVs+iEe7AgrPE45NKxv2YbBsvY/Kyxiqe9+ZkDPUrOU545CSmJ8DKykn1ORjdH8rYB48nnQhAH4co2OCSCZzYG20FG7odlukYEkPSwcmYkOEMrdSBja4PydR2clnpc8kb1vExCZJyZMIk60RbxBePRaKonKv6rewV7agOVyexrPopX5T2VMzk17gh+QkrwiYl7knckiMLzkvQulZb435MPo2XMXlZY9UpEyZ22CdOYeKhyUp82/ff/NOKQuwVVgXShOVrcMKkM1DGiRuPdcLUskFMpiGB6ba3NbHX6tQqBukqJlMqYVL+OSQevKIGmAQ4iQOHcbOfSixbbbEOj5EPb1Raoan6pu3FMh4rvrUuByVjEBznD7IReYwYN+QLv7RuFrzs04LzMryu1Nq4H5NN42VMXtZYxbF+TsZQK0xobFy50AkJNioeU6JASRUnHI0JTiRCMtGK+klHywZdp8tFG+lkw65WnbOZfWvZNljC5Ozm21yINeDQ7Rv0cfhiGY81zrqO7qAVEqamHVoGlC1hqo52q1iOgE3MyzHbo4fxsgfK++o4XcJECQquGqWJjCYknGD7gEz9ZeKAt0m0TpQsEiaXwFRsoMk1rj6QhF5763Y1kymlz/kj9LMXUn5ml0gKyGZ1m0kknOC76KdWmLTv0LaONSQc3b5BH+culqXfDh/hS81Pxi1PQiXGqIv5Dgks+Es1UjfIX3BowXkBWBdratyPSajxMiYva6w6XcLkJ3RegbjJ9/K4iQjq4gSYIPKTE7SR2Ve6veIe0A4TXPW2i04EwiSKt2jYBjXJO4s67HXtUD/a1VphihNx8JUeLC4mTDxhA5aoTyShPgl4FB8y17cAIXkKtohnzmo6xHm8jSgTEMFj1TfZJ0swUZfGtfowfRpLdFS3o60b+92fX9PzDquBUkVXyYJzF0yXbGTcj0mr8TImL2usOmHCtMbd1/qmVSjqL1cmXpN41l46CXi/H4b1a5hicCYMRXLKiZ1/2Ez+sg+/MLgEnL9MyIT3Naus1x4IIPd76DMdfQgYL304namVJUw9bOmVIDHJ9Ai4SpvtEyb3HBiu0H0s1svGjAjOtHImVhMpyednsJBDPI/HLsOa7ob9MhIOai24P8gGU5sjYLzkmJz9jCVMZ2fQ7DcEpsndSk5AUFKEK0SYJOEx3FLOkqwkzY7GRsAm5jH5MV7G5GWNVZYwrUHP+hoCgyCgg7O4LUfJUFwtwoQprSrRM1X6Nt4grpkZMwho7meaW/VOCBgvOwG9oxpLmHYE21QZAlshkAVnWDGSz4VRwsTPKaVnnSxh2oqZ7eVm3G+v0jR0IGC8dIB0siaWMJ2MMDPXECghkAdnSozothyuKFFPXQ7SxCpUSYOdGxWBnPtRLf0su4yX6/FtCdP1ODWPPhCBUnB2K0sPvB1HwFQSpvALuXjnjsqp8IGInsflEvfnsf66lhov1+PWEqbrcWoefSACxeBMq0Zx82IGpZYwhV/Gxdt1+NA497XPEREocj+ioR9mk/FyPcKJ0x5eh90a5XqUmEeGwHIEei7i5VKtxxkQMO7HZMl4GZOXNVYRpz287pAw/Tb96Iz5Yfr9v3+mf8O/XgNfB6Hxjft1odbTENgVgZ6LeFeDTNluCOzOfVi5TPtw7ubqqRS9ixfxi9eAgNspwN0yp/kr/Ygj/RqWGmKdrRi/Y/D05iPbJkx//zx9f/th+uXX76bbzRKmdxBrMj4LgXcF589C7Rrebss9vXpCTrbyV5fXwHALL97GC/zi1duZXgcin0nE83hsL6J9F79jJExhNemvzoSJLlg2PH3L+XJ7pX0977FOvFdGva07Pc8KK0zumxPs6aX6CHnvYsDkGAJvQOBtwfkNtpiIfRFA7mUyk5Id3LvQr0LMxEvngp90Y6x9fE0i9qYguq/DJ9GGvLjERuxP+Zi+YH7huaXMH81RmLTCnKV+xBFfD5IlWScBbXAz+VqYM3PbFaYlCRMNhOKF6pcfeeD5zJsHWWnAYR0PXkiW1ED87D3k5oaH1R+NgAzOR1tj+vdEQHCP8ZEmZNoix03MGNvIula8ROtT0sVn5aTOZ+1TIyB4CXjz1OUTz8AJ8lPij9jC/SGxjZin0qpSTJy0UVZehcD5EqYw8G4i4yYMMOv2mMQLWwwwVRflqYAC2T+DRJ884Fehbp0NgTcjIIPzm4WbuKERkNynOMiTJn9KJ1I7Ph/jJZ9wn5YwCTgWFDJeYH9HyQlykY5FG5rDQn/JE7VPd1x4wUD0XWCzNW0jQJxKXsvtx1lhivbxcjEnOmmgcZM4sGYTpsf0pFt5mA3xtzMWZp+GwMAI9FzEA5tvpq1AQHPv415KdMqTZyNeCluSHD4d4yqfsM8iApIXfwv0W2gpOZFcaP58F2pDd0Vk29JCgWtfmPOKRtrJRQgQp5LXcvcBEyZvaLp4aSClrR78rveYTPEtOH7fDNb5Y5LFGbq8pVcGxc4aAqMg0HMRj2Kr2fFeBDLu3WrE3d+OI1V4yyeqbsXL2Ig620PfCMeCY8lLf8I0af6CTjfX2YtoFzDw/qbEqeS1rGPbhMn9Si4tK5JB3//6p3u1gDaQMnM+5z7jqpDPvB/wQHisIp9oEMalS0iexK08kgF12W05TrLKINlZQ+AoBGhs299nIpBzr5Kh8AxMjH8uMDbipYt7KQ7GmBsCavqS+pl493oteVmQMIXHRNKX96AxzGFiXhPzl7JMzF+JT9XKigsQ4Gtorks1GrMAfm/Suz9Z/pyB1aXJ+Y7WwhA4PQIyOJ/eHXNgAQKvce8Tpq8FeqzpMgRe44V0qC/uy9Ra6w0R6M1HLGHakAQTbQisReD14LxWs/U/GoHXuLeEaWveXuMl3A2Ry0hbm2ryOxG4UMLU6bE1MwQuiMDLwfmCWHyaS8b9mIwbL2PyssaqtyVMLMg+5bNYhofhYWPAxoCNARsDNgauMwbmkq4T3JKbc8HqDYHrIkDB2P4+EwHjfkzejZcxeVljFSe9czKq0ZgFvPthb5bH8ucMtHpD4JMRsOD8uewb92Nyb7yMycsaq3rzEUuY1qBsfQ2BjRGw4LwxwAOLN+7HJMd4GZOXNVZZwrQGPetrCAyCgAXnQYg4wAzj/gDQO1QaLx0gnayJJUwnI8zMNQRKCFhwLqHyGeeM+zF5Nl7G5GWNVadMmOhNs2x49jbUNWi80Fdup/KCgA/pcn6c3v/eGrmf1LqBYMF5HX5n7m3cj8me5IXiR5q3xL6lVfPbMUfHj54Yu3zubNvgt865xY2Bq65cpILzjjl3xnmGye2z85x4E8Ovh21XMkfeePX5/lTLbFzbf5k233oucCyXKQPeOp9kcF5ui/U4LwLG/ZjcSV4wftC1fpvm302JfXIfZfzI67MzL82dLRuo7j49v55p38JM6bVOnD5hEnSIvXNwI13RasIs+3bjhEsPDCz7Ac5g0ScP9mzQ1myg84+nu1Bu95Dw1doKc9EOqsCy35/oCStubJdvB99ocI+8TH6lXclm3JPP+dODH+3/eQ8bGyss2eAGFtQ3Ys8Y8rc11x8xURhlPlDbir8Cl/DGXW77eEyPOFZ4Q9Mkp7zS2dbVxqTdV5tK+NjfZyJg3I/Ju+RFxqh07cvzWXy/PaYnxD+MM0mG979UTnHzy++nynOPgOx1G5wYirFFuULJJQqM55wz1WjMAvg1AO/+ZPloICc8OHjkQKPWlW/sNOHzJI1CRSJCFTCIsA8eu3mTEwHVx8kGG1xCgBsggnzd1pX5P90Oy3QMiWFr4LbqWBV9YruizckHukD7Ek5MmJwStQM6+qTqnQ2clLGhgKs7pftDOfOBZYRP9FdUkYxeX7U9QlAqKF0ywM3IUH2TUH9E14n9fSYCxv2YvEteICa5uYm/dON58gPLdAzx3dXJmIRzoIgnLu7puEk5k/+Sh/2kzmU2OORnYtOY7LxmVSkfKUmqRmMW8O5EieWx/JJRnvwwgNwASd/4uV+eG/lBeIPJ0MvGgUpnoIxJEh7rhKllgx5UrbbCWbDDnccyHiubXfGRVmZopaT2LYB84pUUbKdtVr4LjBCvzM6ZhKmBhQgCTi79p5OLBg7ah15cWr427I0m8kENWz12Mp/UChfywrLhk/izv89EwLgfk3fJC8WoND+lhKURu7KY6hMentN0bMQyHpfQEXNnpgdtwmMvifqyDe5MKcaWlF7gHM+Tc65UozEL4ATn3Z8sv2ZgHBiLSaNJlwYwZ+F6YEBZTJApwyebon5fqC9Navt0uebgosGsbWbfnKFl25xvlXbaxlYS0bRT4aSTA60HsBD4xvMrEqaWv1F+SFZEVFDY1pJPlDGjS/qmfJrpi2roWAZnXWvlKyNg3I/JruQF4ocwV5/HMh77TpisyPghY6yuEypDIbXRerCMx7kN7kwjfpf0nvncXD7Cvg2TMBHJOI+lAUTEymSGjW99pv5ywiI9nExpnSgvDTo627AhG1SNtqhAJRdol1zhYf0h+VH6XL/SJN9qp+rc7bqYYPoLlDHSqz7STnkx67azuIFOD43kSssTuks+AA5NXECvkNniGblTurUuKqdvmsqnmb6oho5lcNa1Vr4yAsb9mOxKXvLEw1str/s8zsAtOYoJKial+KFirGpLukh2ee583Qbng4pVY7LxHqtOlzD5yTUtbYrnkdwggToYXAyXH5DQRo6gdGsKH2juvq0SVnJg6TUmFKVB1WGvsxv1o10dqzpM8I0eWoZEgfGgT4EJtivYjG3vz6d8ELpqp7qYUSfj38CCktrkx6z6xlEAACAASURBVJczPdrB/Wu6Z3zoxeX+/Jqed7USV+IZgUU/qS1iG+p0wHN+Bp+ij4W+So0lTBqQDyrTmLG/8RCQvNQSJnXrXcf3+3Mq/6inHFMxnuRxk2zIY6lDrhY/aY6p2qDkwY+hxmPjPRbxPDQnrXpFsoB334pjeSx/zsAt69MqFGmR2fiWeseX3QgC4xt/KQtlcL6Ua+bMDALG/QxAB1UbLwcBv6Ha3nzkoxMmfyuqkplvSM74oi1hGoUjC86jMLG/Hcb9/pj3aDReelA6VxtLmM7Fl1lrCBQRsOBchOUjThr3Y9JsvIzJyxqrLGFag571NQQGQcCC8yBEHGCGcX8A6B0qjZcOkE7WxBKmkxFm5hoCJQQsOJdQ+Yxzxv2YPBsvY/KyxipLmNagZ30NgUEQsOA8CBEHmGHcHwB6h0rjpQOkkzWxhOlkhJm5hkAJAQvOJVQ+45xxPybPxsuYvKyxyhKmNehZX0NgEAQsOA9CxAFmGPcHgN6h0njpAOlkTSxhOhlhZq4hUELAgnMJlc84Z9yPybPxMiYva6y6QMIk3wVEL5nEt52uAWdpX6lb2qVlybb5W1t1vezfli3bYunVfihjzOM2XlvY/CqW9OLTxkbIL5qqgzPhwRd33/Xwqj9zBm8ld07v59Rr7j/H87E9lbzQdZCuSbFDhXJjz1j2/jixTXxTEB1W5Jg6Z8DAL64cNSAvs4u2weib2IiqZbITua/2SxLsiBF4BUvqc5+eX8/yRsgs+oVPEZxpmwPYBufrAVu6VGW/4k9VGFRsJRdUfPih4P7DsRjJfckLXgc+qeBdnd5r84KdKN4eJ7aLb+/F6HVp50yYxL43D7GfmU48MIOO+7qF/XG+3Aa7PusXyYra1ywN7Na+OnqVyF8gz4oObedcear6THrgm4vegLjaTw0a5TPiUcbQbYY23UF3wglkk1y3PxKsqjR0ST+fsH8bBhySL8saP/129ujPUnvAFWmbHHdVfdifj8kGSGj4tP+c4VM2jiURnFUgjI0UZhJDj2dxvC7FrHfMJcPsaAUCgvsVcqzrexGQvFTiVeHawlhGsTfFVU6GajEirO5wTOaOpIPP3eAOzLvjBMPXjG/c6JyfJ0yYaLDcp+c3DzgNrpQIqaSFBgQPGsGPH3BxEnUTCcuU8v2kgnUw4NTAwIHu+0FboUPZWdmItWyf74s+C9eETdIXjVXqR+1wFYIvzLAxZBVDxoUkSV1RtrtYdbuKLiVD2qttlOUc+4qORfZELzL/2rYBfiiCjwVHfLLy2dlWBudp4iQ3jSGSLzGTZaqrjNdFmJGcxLfEqeKjnV6FgOZ+lTDr/DYEJC947fnExoXV7NpScwPOYbVYIM7r2IN6yTVZ/9Y4wcgJe/jkNT7PlzDhAHIcyAGRT5y0+pICuKdN9qFzMZPP5ENdc8JRAz1ri3J025lyZpOyn+rhG0S8HTPXj8ewu2hxlcof+zyJdBUwzGRL/1i0W3nB1ZSWrkwm+onHjjGR5AneWzr0xdxqG51wA0Ql32BPrwyWp23g8/xZ45PrC58yOKcGPiDy+AebXRMs47HvH68JbW/L3yaHyS47eh8CNe7fp8EkvYKA5IWurxRj4xcZfW1lX57TdSliXDVGyIRIr3zzPKG/A78lTjBIBZ+46uyfjN+cH+M8wzQTkMWgil75jD6tyqRByE3i5JDJx0RA95NlqVvWkZ6oI7soViRMbvKC1RQcrJkvuU3Of+zDgGSfCsNMtvQvdteydTk2nElKsgRU+iKwb+nQdbqM9uBx5i/o75XB8lrtqQ5X+1ptWd40uYQZiuIwYQM2uxZYxmPfPY5XbYMuo7YWTtjOjt+GgJyY3ybWBK1EQPKSX19OfOFaSterN8Bfh5AIUZ9qjIB21L0gv+ZW0qttxTIeo30gdYFO6HWKw/MlTGqwEMkpEcoTD2QhTgBu8oXbD0ImDQj+Rh4GXBycerDIchpwpJXqajpyO2VfVS/s83XRZzU4HR68otPqh8A4W8FnUScLEkPoo3TFXsq+6q076qBkSG5lIJB1Cq+WP0vsiU7M2abGDPYrHWc2QCNVJ/iEZvoQgzP1wW+QibMWho3xqmx6nUNttZXfgQBy/w55JuM9CEhe5FwRNWTXlo5l4Yvk/Z6ee1R9ZIyQ13jrWn17nGCnlH18+gqf50uY3NxFSZJf3rw/v+DBYDnY3ECCZdD0PJMfvA/46TVOMOLhXkye3EQMqzmqTPriUivV3Z/Ts6JDtpV208Aq1bd85rrb4+H0hke8nByu01iJAUyDHLEKSWIdw3Ahxz6QPKHg0sVT0cV+J3uf4rab4MU9SJ640HjlS9Gh7UJ7pCv1cVfVhwLceEnL8uSnGHehrcBc8SnEQYFkpT+f/DCOadwrzgSGjfG6EDO0vznmksF2tAIByf0KQdb1rQhIXlYkTCFupLnFzw/p+q7EfA4u1Xj75jjRGd/eCvLOwhjzObUYjUVbFvDvf/9MW/xj+ULp6kJl8K6WawLei4Dx1IsnXSf295kIGPdj8m68jMnLGqt685FqNGYBWyRLJJPlr3Ey72sTcY7JiGeMp15WLDj3InW9dsb9mJwaL2Pyssaq3nzkYgnTGsisryEwHgIWnMfjZC+LjPu9kF6mx3hZhtcZWlvCdAaWzEZDYAYBC84zAF242rgfk1zjZUxe1lhlCdMa9KyvITAIAhacByHiADOM+wNA71BpvHSAdLImljCdjDAz1xAoIWDBuYTKZ5wz7sfk2XgZk5c1VlnCtAY962sIDIKABedBiDjADOP+ANA7VBovHSCdrIklTCcjzMw1BEoIWHAuofIZ54z7MXk2XsbkZY1VljCtQc/6GgKDIGDBeRAiDjDDuD8A9A6VxksHSCdrMkzC9Nev38V3Lt1++i2+BLNqYHh7Kb799GTYm7mGwNsQsOD8NihPJ2h37mm/QPeG//Sm/dOBtoPBkhd6pxy85Z/fwl2wg7Yy2mteI12ey16d7XfjLZdXAGDgU4zVnInbvofpjx+m73/90yVJv/9EBH43/fK3f3N4zcCvx316Ph+7Daw5gKzeEDgSARmcj7TEdO+NwLbc673JKpts7+30CfRJXjDRIEzL2yKtdyvnqyqTEl/ed9TtmtSTAKMfSvK35/R4hk253IJGjzwlY/BiLR/RZm+bMOG2Kn/84DLeH/9oJEy8I/pXOWHCvaxuuBec2lMnJfmNfbSy/XHknmmYUccNcTV6VjYENkZABueNlZn4oRBA7ikepbiWJk8RE10DH/O+3OblfpUhX9XwEztPErQnoYh3SdFQeIxiDPLiN8FNCQTx4fCmOcnt6XiLyUusc0lMiU+1WhXnuJwvh4Wa9yLPKmFKuOmkCMv++NkcNySJ2sm5Msk/7xFfC3Me7JYw+RWmH6bfQxKVG0iDIgy8SsIUnREDQhOIZTqGJUkaYJB5R3l0gHWcuIkGVjAE9kdABuf99ZvG4xAQ3GNM4ljlJsw0WXtLVcyrTnAp6WIPZVLGZ+1TIyB4cfgyBz6xcfmm40YmFpgwuQ3HOTFlPrUicV7zRTyzXuoo6zkBjkmUk637YLlz3AibtMHnLef5SNmXfRImtbpU2ktODyZJNBovB4YYeKFZuvBxQFClKlMQwvvPMZnyg0esYqEJdmwI7ISADM47KTU1QyAguU+xi2Mlf0pjUzs+n+Ihn6FPFUezVQ9sa8eIQM5L4XmhQmIh+Uo8ifPVOUnxRfJx7grHnIOxvT5x4sQt6fT1WMbjUCtWNemcsoGVXOCT84A5V7ZPmP7+efr+dovPMvFmvtJAIiINOq6jpWL9JwYXVeI3r9A4BQg9CKDsBhxk6IUB7gcI2QXttEFWNgQ2REAG5w0VmejhENDc+7iWJq0sFjoPIMYFj1I8RBeTHD5bbse19skISF5yvF27wnyi+dJ8urscONcIGYovUceWlT+TXm0rlvHYy9Hjgcr1hYyy7rOc5Zxjzt6NE6bfph8p84Vfx5UTJmVm7ZZccZAQ0ZxBh1trcdDpQQBlJYsGFT4ohxbpgYN1dmwIbImADM5bajLZoyGQcU9fDu/39FgBxbAY69h6inEwsRXbUFs1AdsKEwM4+yl5gTkFe6r5xSHOzzdxuxKf8S4HPSWCc5Lmi/TCvMcy3RR4h+fd8GF+KcPJj+OnNW6oH4wp0HWVwyESJvFKAV4+DMlT08BKwuQJTitRcQFKLGPiINKDWZaFvMdjeoTBKs6T3VHRVYaH+XEWBGRwPovVZuc7EMi5V5NaSHI4lvo45WPcA35WHsOXS55SfIxxLjSwL4Z9rEle5JwSJfQkTO4REZmIRE7cvJPmJJIb65hQx2eaD9OdED9O5LgIluFc6R5K57snjR9IYZ8wj19tpYmxivxVDjZeYfK/iONVJfzsNbBit502BD4CARmcP8JlczIg8Br3lQncUH0bAq/x8jb1JmgDBHrzEUuYNgDfRBoC70LAgvO7kDyfnNe4t4Rpa6Zf42Vrq0z+GgQsYVqDnvU1BAZBwILzIEQcYIZxfwDoHSqNlw6QTtbkbQkTC7JPvFdsxzYebAzYGLAxYGPAxsCVxsBcnme35OYQsnpD4EAEKBjZ32ciYNyPybvxMiYva6zipG9ORjUaswB8UPudxyx/zkCrNwQ+GQELzp/LvnE/JvfGy5i8rLGqNx+xhGkNytbXENgYAQvOGwM8sHjjfkxyjJcxeVljlSVMa9CzvobAIAhYcB6EiAPMMO4PAL1DpfHSAdLJmljCdDLCzFz/YrarvRBtLa8WnNcieN7+xv2Y3BkvY/KyxqpTJkz0plk2/OiJc499c+jNrUf7uWaQvdq3jK1/0+y3V4WKftd5F40FZ0HsRxWM+zHpNl7G5GWNVZx3zMkY5xkmt6/Oc+IJ8+vBr2yfc+G89Z+aMG3PmCVM22NsGrZGwCbmrRF+Tb7x8hpuI/c6fcIkwFV75tRWZXCFSu6rg8kXTqZ+U0EGiz7TNj1q9admA513e/Lc0ua9tbbCKX0LiuxKK2y3ysaKJKLsJ288nGQknCp+LrK9IiPsh5QwTHtVka1x/yPYky9LFBVezMFEsu/P6Qkrj6lOgYn7HdG+gHFTyRYuSsaARcLV/j4TAeN+TN6NlzF5WWMVz19zMqrRmAW881UCKIvlo4GcCKSJnmoxwaEyTdxyUnYyaMIszqa6P5SxDx6HiT7ZAX2cMrDBTfZoT6Ot65v+yxKHVEWZRtqVHM8rO1NVQy/2weMltmM/PE4G+CO028nHZJWbYDJKdmv8uEx1sDklyhZ6pQyfpLHeBi5CxpgFC85j8rKHVcb9Higv12G8LMds9B6lfKRk81AJExvoE6cwabpJN62asGN5buQn13xlRk+YUMaJH491wtSyQU/irbbsYPjMEiayAVeZ7ukWZepa8bOlF33D4yW2Yz88JsOoXLA786/kt5YVVtA8v8CV66vLQWAmA9q1cAndR/4gXO3vMxEw7sfk3XgZk5c1VvH8NSejGo1ZAK4KvfOY5dcMjJOtntRrHeJ5vnVUW2GoTaa8quEFRf1UbNmg63Q52pUfZDr0baRiwsRylJ8tvVQXExrwU/fRZVZFny0ZFbuFfyBLnM+SHX/L8a0JUxNHMGzAQwvOA5Kyk0nG/U5AL1RjvCwE7ATN5/IRdmGYhIkmUVw1olWmNGnCJM+Wz3ym/nD7LKwc8fNNWieKFJO6uy1YsSFLMighq7RFBaVVLJjYSf8NyqprLCY/63qrfi6wvVeGsNslWZy4RpPdc03ydifgJfpAcuu663KQKfrwc1Ost45LsmjcIwvO43KztWXG/dYIvybfeHkNt5F7nS5h8s8qwa03zJ7chAh1uKIRWHATdVxFucnnmfCWkXtAO0ymeJ76QoJC8tKkrldYyJYgg2yDfs6cDnupndYhfKAHl7XcmPABFj041fxcYntNhrZJ2e1vrwZ7g63ab3lLD5Kn7Pm1SsKkbLg/v6bnnRMmVwkrbMDdyFdwsM2C8wlI2shE434jYFeKNV5WAjhg9xMmTPujmFZnSLdcidrfmu00vsPPd8jYzsPrStbBOUs2T+a6+FKAD/SfzI89zNXc76HTdMwjYLzMY3S2FpYw9TCmV4Jwtaan/1navMPPd8g4C14D2amDc3/CdMQXgLZOt9ooVk3b7RMNve1Sjyscae6v4NMVfDBersCi9MESJomHlQyBUyKgg7NMmGrvqaIEo3DbViW98ZYznRfvEqvJDRAW5VR0MuquD9wm5fPxk263gs3xOcCK3KIN+IOB8OvNmKBh0lXTpfofvOqsuY9Q2cGhCBgvh8K/iXJLmDaB1YQaAvsioINzljDhbS1KIooJAtmsn/+CBMIlH/rZsdr7rxpyWgkGPQO3ZAX3VV9Az7fnY7rHd7Y1tt5BXdC/+evYHYaB5n4HlaaiAwHjpQOkkzWxhOlkhJm5hkAJAR2c84QJV20wmYGEiAS7pAhXcPyxy2EwYXBGoBw6AeWWnO6EieSxLZCoVX9YsMCXaCv1eUxfXw//a1tMhJxL5XeHoa8SawfMrv9p7ndVbsqqCBgvVWhOW2EJ02mpM8MNgYSADs5yEodExnXBciHJiKtPSb47Wpow1eS0EiaXaGFyR5rBRl0vbIJ2rhuupClfosyv6UHZIMl5fLnthOICV1MX35ZTOrWaHcqa+x1UmooOBIyXDpBO1sQSppMRZuYaAiUEdHB+OWFyKy+wmoPKRHJCFZh46TLVVeTEZAWFp+PmQ9/KBvIzveZDJy8tG8LrOu78WhC6FUev6IBkramLn326w+3N5MOeR5r7PXWbrjoCxksdm7PWWMJ0VubMbkMAENDBuT9h8omDCwS8tOJWVvhWGH2GJEIlEO2EqXR7LyUjLtGh222sE3yhQ5c0xdtx+bvPOHDd1Pu8Mrk1X0hJqGMTnE4uBHuiPGerfucZJWTwDJfyYa+i5n4vvaanjYDx0sbnjLUcd+ZsH+ZN33OGWr0h8IkIWHA+gvX2CtZeFhn3eyG9TI/xsgyvM7QeJmH669fv0sasP/028X50vQYuA5sCXfq2q/vSN834U2pdaWVDYEAELDgfQIp+QPwAE0jl7tzHh+7rMfQgKIZSuzsvQ3l/TWN685FtV5j++GH6/tc/XZLkE6fvpl/+/seVew1cRk87YVomq9ZaP09Ra2fnDYH1CFhwXo/hWSVsy30ex+gLpbpzeVboNrV7W142Nd2EVxDozUe2TZj+88kRrSr9/hM9M/HD9Hs4lxvonxvg8zfxYKl+kd5j+oJnGNKqkU+YnvTAaHhOItWFh0Gf3xJkIIPap7ZaHwcSCjLwDAhHl6oc/cyGfXNL4NtRDwI0Lu3vMxFA7mUyk5Id+SzWl39g//6cviox0COZxzH3nBc/W8Zx7TNhn/UaefG/9IQ54ebnCsEXrdzFX5Ym7mYVWYPdECBOJa9l1dVozAL4Ftprn39Ov/yPB1NaXSJZLL9sVnhwMw4yn0zxdewv7pB8uGSFExHfTiQ+kHhRcJF13I+swIGs5JCOaAu2o34+SaNQ5f+gfpClfbbMPs+HQM9FfD6vzOIeBAT3GEs4HonYxxJV7Kr+OhLiVOgqJnkWZ58ZAlVekCM47n6BaqbJTuyFwGw+EgzZOGFKK0z8LNOPfzRuydEg42859BmTFPmW3nrio5MXfqeK91b0c8GGk7n06ZMyLQfLKtDMyiHZtZ9h7zUcTM9ZERDB+axOmN0vISC5TzGI4xh/SuGpHZ8vJ0IqjoVfMPKXUu5rnzkCghdIjCY8jl+kCefGC1Rz8XbmAAQ475hTvVvC9O/fP0/f327xmabMQP1ticpbJ0xRvoZJBx0sq0Aj7NRyuEx9KHHCFS2us09DoI6ACM71ZlZzQQQ09z7xSfHHEqZjSBe8iC/M+MWYeWq8QPUY801rAYEsHym0oVObJky0qsQrSrMrTCrxoGDw2goTPIvkBnNKUmSAoSQIBzgihAkSnccyXwjcviWH2/jP8jc92cZKhgAiIIIzVtjx5RHIuKcVDHohJ3/RU/HNA0LxqB4DE2g6jsnV+NTOjjQCyAvNKbVVOTfftF6gqgVb+TAEhkiY/v0Pn2FKq0u1Z5hcksS35MSL6xbckrs/p+dD32LzPMiEKb3gjsFKK0CYIFFfWY528pUivmWklaTYLvqUnnQ6bGSY4lMhgMH5VIabsasRyLlXyVC4jRbjl4tHPlY9SjHQxan0JTHGpxDH7AtdH2WCl+pjJGl+4WmC8K290LVPs7XaCgG+hubkb7rC1HpQvNfAOQes3hC4MgIiOF/ZUfMtQ+A17uWXu0yonViNAPIik8x81W61MhOwCwK9+YglTLvQYUoMgdcQwOD8mgTrdVYEXuPeEqat+Ra86LsLvJy0tREm/60IWML0VjhNmCFwDAIiOB9jgmk9CAHj/iDgZ9QaLzMAnbD6bQkTC7LP9FyUYWFY2BiwMWBjwMaAjYFrjYG5XM9uyc0hZPWGwIEIUEC2v89EwLgfk3fjZUxe1ljFie+cjGo0ZgGtB7fX1LH8OQOt3hD4ZAQsOH8u+8b9mNwbL2Pyssaq3nzEEqY1KFtfQ2BjBCw4bwzwwOKN+zHJMV7G5GWNVZYwrUHP+hoCgyBgwXkQIg4ww7g/APQOlcZLB0gna2IJ08kIM3MNgRICFpxLqHzGOeN+TJ6NlzF5WWPVKRMm9ybU8Fbs+/PbGv9X9yVbjrZhrRPZm83XCqz23+rdL++W25an8RphDFhwrg66y1cY92NSbLyMycsaq86XMLl9kp4Tp0lfj7QH3BogPrmvTgC2w6KdiLyu991y2/L2w6sfEQvO/VhdraVxPyajxsuYvKyx6vQJk3BevU21tvKDK1R9+8LRq+zleyT4Ra3Z5Fmzgc4/nl6O2BQzya3ZO+E+RE4GJ4l6Ylflmi0CtGmSPpCMZNOtuvGw34STB1Afjt6+J22YrFcIl+IjMHlMjxtjgs75vQW/SvrUvn9yH8CGnW7rp7tYVZT4eTzZP78nVD+maP2SY9Jnf5+JgHE/Ju/Gy5i8rLGK4/qcjGo0ZgFrXh3Q6svy0UBOeGSC4Se5tG1tZb8emmg520GhrQkU++BxNnk2bHDJS9rQUk7QZEjFXmdX6keT85LkZBaPzAcBCs3+addzrFI4pCqNAZbpGG9hUjn4tggf6BfsT5gkSzzGFX0tvl1drZ9OMFXZ+VFK3sCuGqbQZOmhBeeliF2nvXE/JpfGy5i8rLGqlI+U5A2VMLGBPnHCCRdXRvxxnhv5STtfOaHzONFBGZMDPNbJhpssKzboSbLVlh2kT6VPJlpgo+sD5V752gfWiatMvCKGdoWkYhGOWZLiV6kcR0vwaWKCRgIe4TSNGT8mdB2W8dh3TP1UgqTw06tN0RqyeRbT2HrxgQXnxZBdpoNxPyaVxsuYvKyximP4nIwhEyYyOk5QesKd88it6FByw0mSniShLJKPtNoj9PtCeTWmVNdrbzM5ABudv1DulY8Ysp0RE1dZ98np5NuVHTguTZiKidpcEumMCv8BHnzmiITJjR/GpwdT9KHv2IJzH05XbGXcj8mq8TImL2usOl3CRAkSrhqlb/40OcpkpgeY1F/eEsNbX1onyo0JmzvZsCFLYBptpYLpDgkM2qVv48m6TvmlhAkSFScTymgaHvfgmN0iw0RiCT7YL9ifEl9hlbwFKPrV+W7aqfHSZaEj2KJ868UUPZk7tuA8h9B16437Mbk1XsbkZY1Vp0uYeDJjw8XzSG6ywlti8K0+oOSTCmgjs6902wQfrm7cTiF54lmqmg1q0nTm1NoqRtHm+/Mpbx2ibWgzyVggH31AfbfHY3oUEibRhm419eBIK0z35/R8JPxjt4X4oP7782t63nOu+fblo6SP8Kli17BTJ0iFMiWPenyivTVMFe2LihacF8F1qcbG/Zh0Gi9j8rLGKo7rczKGvSU3Z/g76tPqCUmTKxPvkL9MBq0clZKDZVI+o/XnYGXB+TNGdMlL476EyvHnjJfjOXi3BZYw9SCqV2riskhP53e3+ZwkYD1yn4OVBef1o+WsEoz7MZkzXsbkZY1VljCtQc/6GgKDIGDBeRAiDjDDuD8A9A6VxksHSCdrYgnTyQgzcw2BEgIWnEuofMY5435Mno2XMXlZY5UlTGvQs76GwCAIWHAehIgDzDDuDwC9Q6Xx0gHSyZpYwnQywsxcQ6CEgAXnEiqfcc64H5Nn42VMXtZYZQnTGvSsryEwCAIWnAch4gAzjPsDQO9Qabx0gHSyJpYwnYwwM9cQKCFgwbmEymecM+7H5Nl4GZOXNVZZwrQGPetrCAyCgAXnQYg4wAzj/gDQO1QaLx0gnayJJUwvEXaW9/u8ame7H73IU78ZHMu6/iWIXae2Ha/IpTduo611GaR7+VY7/fLrml+pseD8CmrX6GPcj8mj8TImL2ussoTpJfTeP5G/ZMZsp1ftXNavnSSseTP6Mjtm4ShsY9LTZ0mbNhZLJC1ra8F5GV5Xam3cj8mm8TImL2usOmfCpN68nVYM2nuAIVA0sbHzfh80mpxhDzC9uiD2HXvA9iQz/YJSoQ9lK1/SS8RbvvTp5L3UnuCrkF/11ycq2C9hTFvUyVWaepmSJcDUKZ+xfSXO2V6DiHUpYWrhj1vQqHaIhx5Xok71S/jTVnaADepCgZ3HFpw7gbpgM+N+TFKNlzF5WWMV5wxzMgbaS85P5l/RYlzB8JNxnLBosipsHOs3pZ3Zj030Jbnp9oxPfir9Rb9oZDqghCDaJOX6yZ71dPpCkqs6X5Wh+tGmucr/iHEhCZEJFPKTYIhHwvZcz62WSIh+UVp+oNpJ26S+HH/mmNrxMamo+9Qtn8YBZk+55YvOWHBeBNelGhv3Y9JpvIzJyxqrzpcw0QQoVkb8t3Q/9+iJTZc9VHJSA/hwdYN0cGKTTW5Kbq0fiA6ap+edE6KJlhiySTNt9Kt0uKQFJu0una/K0P38agjP7xq/drmQXNRsz/BQdtT6TjnnFAAAIABJREFUaZwb7YStmT70E3Q3x5xUvkw+jV0YD1LUopIF50VwXaqxcT8mncbLmLysseqcCRMnMpnnMMm5Ol32HcSkxjLcpAgJCa5MZBMryG31Y9nhM9Obya1M2K7/KzqhzyIZuh/ateSWHClVCVMLrwwPsKPVL+DrPmbaCQ4yfein0l0dc6hcYdOUz/0IH0qcYOxx1YJPC84LwLpYU+N+TEKNlzF5WWPV+RImdXtIOg+TnKvQ5dBaT6p0ms7BpEgTa1xhUu1dHU9wrX5onGrnq8g+WGEQerTtUFayhK2oU69KYbkpg3TBL+GEXSopWHpLrqW3oCcmEq1+6PNMO5Ew6bEk9APeuh3qU8f98mXHtLIoz/eWLDj3InW9dsb9mJwaL2PyssaqEyZMIbkRt+X42zlOcgSLLieoxAO34V6TT4TCg7iPx/TQCVTQeX9+Tc876/QJBAN5U/1Yo5B9u018e8vdlou+QPKU2S59EfIqOnP/e2W0HjhfmjABPjvgTHi3sKE6fP6qG3+XTIWx4fhK/DPHrLtHvrCR5MUBgdL6jy0492N1tZbG/ZiMGi9j8rLGKp7n52QM9ND3nKlWbwi8AwGZXL5D4pYyUnDmW3yY3MHzeFUj2v5miWZVTquiraPV0+rqCCTu622sZn8EjJf9Md9aoyVMWyNs8s+HAK8mrVz12dPxUnBeluS0k5llsmqet3XUetn5NgIl7ts9rHYPBIyXPVDeV4clTPvibdoMgU0QKAXnPMmhhAVXnvJbwH3v3mrJUe7Rg++sk24d87N/1IwT01AvbmUqMVasI1Divt7aavZCwHjZC+n99HAsm9Not+TmELJ6Q+BABErBOU+YlIGUsMTn9HwSlJIWKqeEqilLyEEduYz4EH/2jJ76NSWKseMmAiXumx2schcEjJddYN5ViSVMu8JtygyBbRAoBedikoMrPrSyIxIm+SA7/nIvk1WVA/5lr1WgBCroUKtLHIhOdBcUHD32sMT9sRaZdkLAeLneOOA4NeeZrTDNIWT1hsCBCJSCc5bkuCQFkiKxMgTJTPCjmjA15QAIcwlTTNagjx0uRqDE/WIh1uHtCBgvb4f0cIGWMB1OgRlgCKxHoBSciwkTJClUL1eYOt+9JRKt8BoHkBu9UYmV08crTAvebRXl2UERgRL3xYZ2clcEjJdd4d5FmSVMu8BsSgyBbREoBecsYWq+o2r5u7c4eNTePUYe+yTJP2iu31+mH/pOzzdti9XVpJe4v5qPZ/THeDkja22bOea1W02T3ZKbQ8jqDYEDEbDgfCD4B6s27g8moKLeeKkAc+LTljCdmLxRTadnX9KvrUa18lp2WXC+Fp9LvDHul6C1X1vjZT+s99JkCdNeSJseQ2BDBCw4bwju4KKN+zEJMl7G5GWNVedLmOhB0sfT7/DOD5q6h0vTC/lwdUPsGRcfOJXPVvh9vPSvhKBc0FmTq5/LwJ9JV/sgg/hzbecn/6oJ7HHtVbmBQRRf8EPbi9iJfdYW2JI9O1OzbZE97Wdsoo/uYeI0Fm7wLiFqg8/U8P5tpXMtXKo8Kj+R+177UrtlRxacl+F1pdbG/ZhsGi9j8rLGqnMmTGISVInDBC/Ay37WHKByExsnIgyflgNl1z69xM8lEsXZkPpAO/wlUM0WVu8+ZX8/kbOdYE9sW6sDDFC+9qP58sBXbfFJSUq8tN1g22J74FYf9eWEGX3Ux9jO6WPMQsPSuRYuVR4lXn7jYxwL2jDQ3+NHpTuftuDMSHzep3E/JufGy5i8rLHqnAkTTjBuwsMVBX/s8xmaxKgsJ65sBcQhqCd2KOOkG9vmckuJFK1GtGwR5GWTMdiQTeJQ18QANGg/Wv1etSWs4sSEqaVjiT0t/8FFTw9sxwEvZyzxXjqnV5f4ImnymOE1TYl7ZSC1DduBuE8cz6ppb5Hk2N9nImDcj8m78TImL2uscvG6I9ZWozEL+Pe/f6Yt/rH86GRpkp2dcGhVgxIcv7pQnCRbE7LWmYwRctsJE3eStvBZ95lNupAUvWSfkE5LP3JVRpex+au2lBKmGj9avy6jPS3/sR3JgFuv6HOJ99I57IOi5bHiMcOrkjA17JPyl5UsOC/D60qtjfsx2TRexuRljVVZPlIRNm7C5CZSuYJU8SF949eTlusAt4risy7h9k1zIseJkRIcsKWox1tXXH1Q7Wky5yRvwluN2r5eDDI/lL0I3Mu2lG7JASZah0imGvYsSZhApsOQy8onT7tKsNzJlh3owAvcKw6EfVL0opIF50VwXaqxcT8mncbLmLysseoCCZPLHqY73uKAlSR20H3Cc0fiwV0+j7dK8CHn0iSH+rg/MYEyIHnyyY+/XahtQQKx3f35THtvadloH9W5ZADk4yoLK1B+uNONfq/aQv3iLbmWbYvsoSQGnz/SZXbSJ2yR98djenDC5OgBjAJvxbFQwQUxyXiscJ8s80dChrJPt+0tky3295kIGPdj8m68jMnLGqtczO+ItdVozAK2uB1HMln+GifP27eeFOzv00i27O/96BqvEpwpeRXJ9ujAD2DfVbgfAMq3mmC8vBXOIYT15iOWMB1C10hJyki2HELG0Er3D87yFvZY4Ixs2/uR2p/79/twRYnGy/VYtYTpepyaRx+IQBac1S3FtGrTeJ8V9XG3em9hU16dJHOZH3gPtzfdrU2qg9udcDvavWLh/pyeD65/TF9gX7JNP/+W32pObWt+lGzL5eBd9LMPl4z7szt0EfuNl4sQCW5YwgRg2KEhcFYEZHDmxIa9wRUXn9jExIMSF37GyyUx+IC+loNllMl64BPlugf2+fUa/kH5+GMGpzM9myaff0N9JBt1NvwQ7agftdV+YRnsPuGh5P6EDlzUZOPlesRawnQ9Ts2jD0RABGeXhPBqTvr0qyo6CYGySHIIRKhzmGIZk5cAuHjonVepghxOytxiD/4oAGWqFaZX/dAJE9mllpSKv1INbpztQ3B/NuMvbK/xcj1yLWG6Hqfm0QciIIJzlvggIDJBEUlR1q/RViclLrlJK0XyXVb+9tm3YEZrFUnUZfZ0+qFts4QJgbPjnRAQ1+ROOk3NtghYwrQtvibdENgFARmcKdGp3XJqJEFZgiJXkfzrEDgpknUyQQqvdoirSi8mTNmtNISy4YdOmLQcndyh2BMeS+5P6MBFTTZerkesJUzX49Q8+kAEsuDskoJ0Oy4+M9S6zZYlTOq9YurdXz6BusXbXbFMD3+L90u9mjDlD2t3+RFu+7ngxrfixO3CWjJ5zoGTcX9ONy5ntfFyOUq7X3NkrxW4Hvfm0YUQsOB8ITIXumLcLwRsp+bGy05A76iGOO3hdaiE6fNebqdvP9RGSG+7Wn87f1YEei7is/pmdrcRMO7b+BxVOwYvdOscf4BxFBrX0Euc9vA6VMLUD716zqK/44qWW+jsTYR6261w72O6bsHjduD1XMTbaTfJRyJg3B+Jfl33NrwsiUs0H9yn5xe8OqRurtV0IECc9vA6VMIkfklDz2SIl+Lx+15oYMEzHPwsg3q2Q7yPRr+0ryg3oFqUU9GJRKh+bBY2ccf4zAU9D4L7qCkZ0YfwfMrTbdrrfU91+fMgqa6GYWaV28CYB016nqQhm2wVuCqZFV9wFdE9G+OA8nZ+Ff3TyaIqV/SQNaRL+lThUclA7nIZys+Niz0X8cYmmPiDEDDuDwJ+Rq3gpRQHq/FExa743GFfXEpxPRhIeuIPMGaMtuomAjxPNBtN0zR2wnSD/afE4KABhg946oEI9W7w6rY1uQ052S90EFrqp3VgmdvKdv5hWv51Uks31YHN7kJj+Qv6CQzZpvAAMGYJsaohO8M1diq85wf4iLaj7CX+6X6MH+kHPYWfnHsLoY07QfIYSzoB5aoML2mP/0Vw3kOh6RgGAeN+GCqEIYKXLA5C/HC9sEzHGK+wXIpL2FbXhy+zljAJbl4tXCRhwgHTGFxu0OJqgj92OUCWJKAcghfKLTk4GWtWChMrrUxkOUjWrlc3tAu6o/ymzbqfLrMjdJ4ww8QhX13iQVXGlWXN9HPVd7fyk74x5XZF/5AfpwLazvpe8EnzmHHiV6Y8dxVcwNWtD0Vw3lqZyR8KAeN+KDqiMYIXPb/MxpM3zGlsidbN5+1zMQI8t811HHyFacHgqmXa2aCCCdehA+WsLcJXyPC5unmRcKPSSk6vbmgXxMWEommz7qfLYJs7JB8pyQi4t2S/WvfuhKnGe3RN+bQoYWIhWgaf3/5TBOft1ZmGgRAw7gciA0wRvOg42JwLdPzFsppftFzQHw972sTGdtBC4LMSJryNolHJBhUOUmqMZTpWqyxRnhrQ8TzLgH6kk5MObKfO57fkQAb2czbCLTkhp2Uz+sZ2YhIqlMRCTMYW4Rq7y9taeJqOo+1oNx3X/JO492MmFSefpDxxC07YJ/tTKcnI67Y6I4LzVkpM7pAIGPdD0iIfDqZ4Jr60YVzDeEe+yNgjY5msy+JSCYpMd6mRnetB4OIJU3jjMN1G4vtebiL2t+K887VVkpkkoiYHVkaiTmSCvlmEJ+2zW1vQzl8k3s7782t63iGBqeqeeXi71U8kbtp3bxja5HxgTKm6JpvOi0ABTjb6YdLh9Dpd3q4HPKSNJkyIrXrJYs2+lk+xjpWgfEiYYzvmldsrV7csEh/295kIGPdj8i54KcXBSjxx3mCdimUx3nCcqcXe8AXaxeoQm7jLmIiNbxVjOWdpNRqzgH//+2fa4h/LnzPQ6j8BgXIi9wmez/lI14n9fSYCxv2YvBsvY/KyxqrefKQajVnAFskSyWT5a5y0vldBwBKmGpMWnGvIXP+8cT8mx8bLmLyssao3H7GEaQ3K1tcQ2BgBC84bAzyweON+THKMlzF5WWOVJUxr0LO+hsAgCFhwHoSIA8ww7g8AvUOl8dIB0smaWMJ0MsLMXEOghIAF5xIqn3HOuB+TZ+NlTF7WWGUJ0xr0rK8hMAgCFpwHIeIAM4z7A0DvUGm8dIB0siaWMJ2MMDPXECghYMG5hMpnnDPux+TZeBmTlzVWWcK0Bj3rawgMgoAF50GIOMAM4/4A0DtUGi8dIJ2siSVMJyPMzDUESghYcC6h8hnnjPsxeTZexuRljVVjJUx//BDeu/TD9Ht4EWbRQPHWVHpVPL65G97q7ZChd/fcplv2tmnu59+gHd+eym9r5jc5C11roJZ9SV/aVNZvp4Fl2XpNqeR/4X1G7s2yuOUK46OwzXBcY5v1fRcCFpzfheT55OzOfXwLNew+cD7YNrdY8hLiMM8vjVdu0y4H28wF2mUd4zH+67bvLmvdYZ6ZnV8KcxeYpudVqHrLYTEfKUje4T1Mv00/3r6bfvzpu+l2aydMBEoabwQ8Eh2IiA0I4Pt0F23CVh73e30vNyDu64HyC+i8cGprYpNJ7P8NMMsHnduK5PFIW8gkAdN+toJSO1yEgAzOi7pa45MjsC33Or4es1fiGSmSvGDM9XNUnKLe6lzOV128akuJMMx79X6tGiWz1TTULZtfEMdc+DJZef+5M8MkTH/9+t10++m3yX02EyZNiC6Tyz5JeH7j48f0VCs6BOzjqwQ+ycPkwu9HV874qT+uwGBi5fd1+3re49vKUYYmtlRmcvyedA1dtArm9hsqraQFH8XFoP3mMn/KYaNtk7VWGgEBGZxHsMhs2AsB5B73YMRNXOkazuLJ/TnV4pO33cdC7EfysbyXj2fUg7zIzdthTinEboy3ZT4pTgMPfDfEbdoL5zkjIx3QPs1Deu5U8V/1Y3Hal1TOx4vjTclJ+sMoU3Ozlwd+RP+ovbeR5nMehygPsevR7S3o/591zvXYeIWJVpdu049//NORMClS1c7O7EgaaKE9kRazZyKWlpO1rLBZbxoZXpzoyxoKn6IdycalVSqnhEoTK8pugM0sd6Mu1z7JlpYlHzNMuCElU8Hn1IYr4eJOp+xoMARkcB7MODNnUwQE93Atuw2nKeYV40k7PiWD9aRqK0wJm/aR4EXMNT6xcCG3ELvFXFDiU6vFuSCbD1P8992QTzymXARXmOR85RMVnmO0TCwrmcJvskDXd8wvwj/S1Tuvol1l3RrKufIQCZNbVfrfz9Nf/3UkTAK8Oghp4k+gxXNxEKY6B5QbvIVEJdMJsJIsyN7TkqaS7cZjWrkSF4W7Q5ieadJ1UVtNV8s+HLCxnbQt4kKKIjZRq92SS1AMeySD87BmmmEbICC5T9c2xxH+lKpTOz4v4gCfLExw5Xaxgx0EBHJe0qpJXBWJMTnBJvlKPInztblA80XycX4Kx/77MSUvySb+0uwsKcwDifdkk7cayyohaur3vYVfDEPVP9QVtD8q82qHblbX+8lz/Vz7DVeY/px++R+QxuSGBCozMBtgiiDnCYFayIbDIKgRn84rODKdod4RAgmWaLeA2J6EqaVL6FW2Y8IUkrb78zk9bmw32anx5zovqzigtRorH4qADM6HmmLKd0ZAc+/jWIqL5eu3HZ+SC0kOn6vGSW5gnw4ByUuOt2tUiN2aL82nWzmM8Zufx31O7gmUUsIU76xoYpBbOk6JR+mLc+Jd+4JllKlt0/p9Wfvb9g91+f7JLrVaVcC2bEH/2SwfqXTdMGH6Z/o3/CKOPuefYdKAKYJCUpCyZWxPx5QccEIAdZRM1QZWDXh1nohPMrwu8U0i6lXEqoQpGzBESkuXqpMcgo8sBzHIvkmoC0fbJoVbaRAEZHAexCgzYxcEMu5dLKMfuoRJlOIDxB5vVDs+JcPL8VU/tZDa2xEjIHlRcZgbFWJ3lkCU+GRuQ3xO847mi/Ty4gEr5U/VVsyBqp8YQ7Kfm/fi+JJ18lYe65Wfmb8Kk9fnVeWDVPtS6YQJkyaEymqFRFzNcqBSNhqTGFh9ofMMBn+ymIxQgNoPltD38ZgecSB7vQ+Qy/Kou5apy8Ke0LGqSw0wMI/SR1hN8jVejk8aMTvnfq4ejNW2cTv7HAcBGZzHscss2R6BnHu65jHO+eeOOK6lH5E8pmJ8cpNjmmRj3AkxoRQztvfyfBokL3kcdh4VYnceb3M+Iyf05VfMO35ucVxzDHd84vzGCwaluTTx7laZ4t0HOE+GU3LFde4HRyxziX7Pae4vyMj88z+menbOq37xoeT7a+OJfZ7rvdsKE6420XHJwBLAcw6sqX/ttQKVC2SNIdbXEKggQNeJ/X0mAq9xb/Fp69HyGi9bW2Xy1yBQykdK8qrRmAXoROddZZYvjCpk5aL+nYWXdVlAeicNJquNgAXnNj5Xrn2Ne4tPW4+J13jZ2iqTvwaBYj5SEDhWwlQw0E4ZAp+MgAXnz2XfuB+Te+NlTF7WWPW2hIkF2SfeL7VjGw82BmwM2BiwMWBj4EpjYC7pshWmOYSs3hA4EAEKRvb3mQgY92PybryMycsaqzjpm5NRjcYs4F3PLGk5LH/OQKs3BD4ZAQvOn8u+cT8m98bLmLyssao3H7GEaQ3K1tcQ2BgBC84bAzyweON+THKMlzF5WWOVJUxr0LO+hsAgCFhwHoSIA8ww7g8AvUOl8dIB0smaWMJ0MsLMXEOghIAF5xIqn3HOuB+TZ+NlTF7WWHXKhAnfgp3e2r0Ghtf7ki1H2/C69XnPvV8KmlvAZ457T8x7Od3Hj2Jwdm/jVW/oZXjf8LkWp7X93+DCRiLanL/7Gityv5FnJrYfgdd52Xf89HnUtqlPRk+rsHNH3DGjp89+bc6XMIn9bugN7emV7PvBdl1N7w7mryO11wX6uoV9PffxoxScKSF5PB5T2lexz2JrVUJAbyNRasPn2py/+xorcc+W2OdxCEhexh0/fQi1x3SfDN1KY0I67tPz65n2QdRdDi6fPmES+Kk9c2orPzSRsOPFjXidUBwgIevlvXNuaVfnLPjVbKDzbs+dW9qgt9ZWOKUK1T180F7qo8qduqQ/JAOxkqsVZRzB3qU+C98ecg+8hv2zdhAW9+f0RZsjB3/i2CjYiBi4pOOLfeILvI2L3GcJ/Wj3m/eD7cg/ZXCmeuafP1Ofqh6FMW9FRT0JE8aOEzDEyeurj5X5/k7JdIfxlvS394/S+0VFbt2WV2hT6ctVmxOPmrr+nWGtfh7zJ2CGNi3BLbFWP8q5r7e1mv0QSLxsOX7y6wbHWs3bcgzQsQLLrTH9yvVZwiRYS3HIVpj+mfQrA3rKHKSReCZbDgwkl1rz5IY9w6aBKRJDpe4PZZrIuQ8eh4kk2QF9nGSwwU1GmHA02oJV8pD6JBl+EuJJQMvDMh6TRLBLKsg2BRbVOJAVDqIdFxb5vMQ3sL/HDpc84K1T0JXZ6JODyCnKR//ZR/oU50F2GB8pKcdOqh/qUc16iik4h9Ygj64XHr4umYsFlCzt9glQGGsOIx5nqY+c+NN5d4SYdPVv6Nf8oeyYGLL+pWOD+4VPIRvrQC6e5mPRj3ypjLcwJuL44v78KeTwyfZnxn27udXuhIDkZavxQ2MNr80ZPeQ7xAYJhZaF5daYVnViDKMM0ob24TFYIvrD+QEOS/lIyawhXyvgEycM6vht0h/nc4Mn9waJh3dYEwtlHGB4rIMfEQ3fkBlcZ4MeBK22JQbonNKdVhFcpbpwwP4FurJJkHSiTzHzr+EIxi/xueVb0/4OO7JJlaAMSYS2UXMKfQU2NVxafjCHr+IJ0OpDGZzBP9YZL4QKXpndSYbwGxRn5yuYZO2CDHG+oV+Oc+dQGuurx0a4roqcgLMi0IfzFX9zexOW1FP47dypXWOov36sua+3tJo9EZC8FJKDd4yf5viveVuJARDrfE9qx8kYHodajqGtfk37CpiQ6EJMrnmy93meC+f0DpkweWzv/qHrxSATWZRU1QYEDBBBelrhEfp9ob6UqO3T5TkGqD6bVMDGuUEbE522IhHMnd+MT20gaxxBvvZRl6Fp07dWvyijYUeGDUxgBdkCAwc7JVdwcVOfOG4ULi2OWv26/IiNsgMZnGlc6C8PwKPrrfDK7E4YaTxYuTjf8E204846cWjozxMQGPcF/kBFOFS+YoOG3dhMfjMOnNfGQGu8ab+79UtrsCS5xxo7PhIByQvEDzKqyTuM7+BA/IJXGj+dsT3HQl8XWi+W8dhLSjbpOig3r0+FCRvY7MONjvk8XcJEwTd+WY6TGYFHJMlkpgfSRLokj/RwMqV1olw5GTRsyAZBoy0qwGN1kaGNOqDLun5dwh9ls5NZuTgTjmCw6t/kqOlbv/1FO9zYgFskqCuzsbICcL+nZFj1Ebig7BDceBzpb06iH8BGh2U/VCMoiuCcJR8+MOJ1w12THoUx+oHH3HEmcAvfevrr61f0Idsw4cOyshvs04fJV6ghPTCmhd3QTF9fbS7Jpsp4W4Kb0F8vCO7rzaxmZwQkL3J+edv40dfNCz6m60La6K6FeN21xjRej2QAlum4Ni9LfdF0dU3G8wMcnC5h8mTAt2ecBVyQhbpIdkLaDwJog/1pouFv5u4B7RCk8TzVqwArnkeo2VAaBLW2ydzsCO2/P59yIkE70X6S0qmL5KM/qO/2eLiHp7/FRKCCI1u90GfUdX9+Tc87TJIV+7GP4w75ZDvCBfyAh/1js4KNGgMecz24eKjTA9LaD2HvUjyjP/kBBucUAFM7p/fxJR/eprEcgXBZWhr/KsiRzHRt+KfgNU4138iKnv5ulZGvP6EfA7CTJsf9qrHhE+TkWxrjCT1/FP0LmMWywxH7tR+CXYKbtqFURu5L9XbuGAQ0L3G8vHn89MZ2RiHawddaLQaIOaQ1pl+7PsmeaIuzgeRAnIEfV7HtR39ynJizY9hbcnOGv6NeTkCVrPgdihbL0AN1sYAP6XB9nHRw/hBizc1pcomsATEeAnZNjsfJWossYepBUH+DxYy8p/9mba6fCLwHuuvjZMH5PSPljFKM+zFZO5YXinlytcZP9rBqPyZsQ1vlMayuH0Xbqy1YQM8rAl5pw/KjJXZgCBgCGQJ0ndjfZyJg3I/Ju/EyJi9rrOrNR6rRmAW8kgz19GH5a5y0vobA1RGw4Hx1huv+Gfd1bI6sMV6ORH8b3b35iCVM2+BvUg2BtyBgwfktMJ5SiHE/Jm3Gy5i8rLHKEqY16FlfQ2AQBCw4D0LEAWYY9weA3qHSeOkA6WRNLGE6GWFmriFQQsCCcwmVzzhn3I/Js/EyJi9rrLKEaQ161tcQGAQBC86DEHGAGcb9AaB3qDReOkA6WRNLmE5GmJlrCJQQsOBcQuUzzhn3Y/JsvIzJyxqrxkiY/v55+l68M+KH6ff//pnoV3S9Bq4BwfruhwC9BBTfmL2f5mtragfn67+HCtn9tDHW5h6RedNx3FHA3unTQvR1XtrXq35TfMuG99W1bXqXHtwRYMR5ojcf2fZXci5h+m765W+fJOHrBnoNXEbYSG/rXmb557Q+gqMjdL6H0XZw3ifYLfdkZLxHtk0i3eZetl1eynGQOx8sl/gpPSQvOY51HNrX63USJoXJt+f0eNLGW7yV13gJeW8+MlDC1NrThoFObzjNX8pNJKX6uJeWept3ym5b+pSsuPcNDXjQoffFuj+nJ+zNldtII6YlA/bgIT1BQNyXB87pfYaSX2p/L9x3T2Hxin1+1Of/y4u9hq3ClQ1QdkVf6Lzb94j3+avJDfYU5VR05i4MeUYGZ7UvHO1Z1+A34qg9K+JEjRr4lrhA3XFjzhLerTGvdT6mL7APfZBjLI8Jqa2WeQsbe5dsy+XwsNSw7V1G7mUyQ374jU/z2OB9/3KbjPtYlXBhD3IccAWA4w63tk+JQOIlx7Ed333C9Kxw0z++pT1YEjzG69Pr9TtFUmsst2yqXUdBI1ynhIkfZyVMhIWNTXux3b7HZH/ita57h4QJEoz//Tz9Vb0lR8Qx6CGIxc1wqQ53RtZldjAFEn/GD4Y0ULC+oY+Wpjlq4jGr4U8aMMLGmv3cofCJMtwAVNl36ZwY8CQT/KraqzHT5YJtTjT6WGnj6MLNfRvYoq1OHLUakAXCAAAgAElEQVRFn8EX57vmvYZxQ06ms+7HaDXyIpac+cmSsWv5j1612lFdBd8iF6yb5KNc4BBV8zHJUtdNutwoXgS5auzLCQX1kWDU2fBDtGO79RjDMhu9/6fgHq9rxk/h4y1UvjteSv4gXqHngxPL/X09k0bBSzaelCfMlTvd5qZ/fCsdXMQxwuei3tq12rJJ1WW+oEwcT3gsDPGbxcdrX9UdWCROJa9lY7ZNmEJy5G7F/fGDM+jHP2rPMBE5SACUCwNBfuNi5xRRLqBAwhZA8cEZ5LvuUEZ9eEztqBzkuM9IPvTX8tg8/qzIkBeMb1w6p1eX2J7kF/msgqT2w7lSCZAV+9j80qe0s4XFAo7EBUpaG3KbXCudJQcGPScu4oxDwKPpPzjXbAfyXBcoL+GiNIlUx5T/FhsW7N0u52lFBPTrpPxVP7RtGaZ+hZYTOEBu90PBPYx9vtb4UxomMaO6rlhZbSelW0lvilyILa2xLuY4yY3gszm+aywQ94XYD2PH98QxgsehNibOug7KTfsKmDjRtfM1f/Y7z3PonMb9EqbwAPj3v/5ZeegbyHBWQ7k7qClCsiCPcIB8rU8MBkg83HlI6oT8hjxU25AhLpjQp3TOJUwxUUPheExY0MUT7O3FsGEfStfH0s4WFgs4EviSxobcrC1aqHRi1eDHYtLMOAQ8mv6Dk812IM91gXLWD+p0W52UUF8eh9RWyFqRMFWvgQW2ZZjKSQyQ2/1QcB8TmjSW5TXH5mnfa/4kObFnnCj5jH2WEJC8KBznxjpeB5FTr0XwKa6RkhWtc2QTxP5W3MzqcLzosQTlpn0Kk2AqJe7py1DL/v3rxkuY1qwwOVIbiUvEVxNFBEO/2I4OgHx3PpVp4Ba/YapBQu1uMWin/l6NLgflLRlUpy4ov5oESVq0teZX0BM+0rdLsgf6lHRRn5Z9UrQoiYu9ga28dUIilF0oVdnS4qwpR0/gqGPwYxGcFWdu/MXx0sBR+NhqR3U41qCccSGvNWmLrGuPqRcTpta4WTP+FMYCup0LgnvSTcnd/Z5uZxZtJc5gYiq2IWGKIzV57+zqqdRJXhSO6jrJ54g6N3kMhXj9AkIp9ksb5bXaGi9w/Tv9WKbjmn1Snx9r4PcLvmzdZYiE6a9fvxO3r3h1qfxaASSD4FFlChbxVliNKHhomjMeFzAo2+Z/PCEo+ahP6OIHjj1lfrAFWfTQ7dKEKdxaiPYIGT67T3X+6Ssa+PqcT6TgfJjohH3kM+PgIF2IoeuPPtaHbX6xM845l9FGtq3GkQo+2ZhAzkhNTQ5izjrrrgxVQ7zjX8TOTYpf0/MOODf8Rxl1nBrXRMZFmMD5unIP5ydbop0B71jOxtSrCVOL74YfpbEgrvd6bBEY7lDQ3PvxLyeePDZ43x8QM+KQd+Mj+Rc5CQ3SBLuDcydWoXnROMZyZazXfhhE/cQKTO/1HLAUep3u9PSueJREXKv++ivb1L6O6nFEzcPi+vJzlvBzgLHA8+ucKTIaQ2sWgK8CeOcxyweVwxzKwKGz5WHMNEM+AAEdnD/AZXMxIPAa93qSMzjfjcBrvLzbCpP3TgR68xFLmEqo68w+fkUrNbZzhsB2CFhw3g7b0SW/xr0lTFvz+hov77KK+MU7C3ycVnffpemT5FjC9Elsm6+XReDY4HxZWE/hmHE/Jk3Gy5i8rLHqbQkTC7JPzuTt08aCjQEbAzYGbAzYGLjaGJhLuuyW3BxCVm8IHIgABST7+0wEjPsxeTdexuRljVWc+M3JqEZjFvDOB71RFsufM9DqDYFPRsCC8+eyb9yPyb3xMiYva6zqzUcsYVqDsvU1BDZGwILzxgAPLN64H5Mc42VMXtZYZQnTGvSsryEwCAIWnAch4gAzjPsDQO9Qabx0gHSyJpYwnYwwM9cQKCFgwbmEymecM+7H5Nl4GZOXNVadMmHCt9Ye/SZQsuVIG7K3vq4ZDS/3tXe6vAzdmzpacH4TkCcUY9yPSZrxMiYva6w6X8JEr0+P24zQFiGf/SIuS5jWDP/r9LXgfB0ul3pi3C9FbJ/2xss+OO+p5fQJkwBLvXm7tvKDK1S3uImoXiXBMm17It+lwS/1zhKWmg103u3NA3vO1doKp/K9sNCvTH/si/bTSVkuY5DrYj+jWD7AfX9on7uIYy4D7eXu2h5Zbu1blCTQUa8f0QbFA+2NlHyE7W1q3Kj+36Q5h5UsOB8G/eGKjfvDKSgaYLwUYTn1yfMlTDBJxknQUSATgtIu277ZQ240G+nT/aFMyQHPqngcNuhMdkAfJ1dPwGlDS5kgUGNoG22ig4bMTD921P2grHxIvaiNthHL3FK2o6Stnnj2+gX2OZ/hViclKbCqyFa4jSKZl3iSDlAWlcEGlwiBT4hF1LOgv9B7XMGC83HYH63ZuD+agbJ+46WMy5nPnjJhYsD96kKY/NxEKFeByLl8PqXJkNrBpOkE6kkSyjip4rFOWFo2xMk4WN9qyw7S50y711aYKhgo30g9YZxhmLUDrGbsTa5BH3cSy3jsrJArWFEItStw2bKB6kTylXRFLBf1j8YcemDB+VD4D1Vu3B8Kf1W58VKF5rQVxGkPr8O+h0lMcmIinOOEVh3IeX4GKk2cvieUxQQqE62onzplkzHYoOt0GZqKw5l2Qr/oCPa787pMJxUGWSL0YsLUxYO2B8t4THbqsnA096OFWaHOJ4VqFarmQ6G/tuaIcs9FfIRdpnN7BIz77TF+RYPx8gpqY/chTnt4HSZhogQBVzzSCghNqjKZ6YE+9YcJ0+U+6TaT1olyZcLSsCGbaBttUYFLFup+Sf3Yse4PtqLjhIGyiWyOCSX0UufJBpl41u1NUlr2kR2cyDoLVTlJwaOqH9go48EBMN3ud1h5UjjM9cf6g457LuKDTDO1GyNg3G8M8IvijZcXgRu4G3Haw+swCZNfbfBGO+Mxe3ITOdSJSdez4Cd3aIP9aYUlAHJzD2iHSRvPUz2sPmQJS82G0kRda6sHTKNdph/7ot3gTzcGjQQUZdyfX9PzDglOw140zz2DVMI7W1HSCVQHlzUb6Dzw5yWRfHhmik4u6i+8OqTQcxEfYpgp3RwB435ziF9SYLy8BNvQnTg/mDNyoIRpztT316eVC5ItV0ber80kGgLLEbDgvByzq/Qw7sdk0ngZk5c1VlnC1IOeXm3AVame/tbGENgYAQvOGwM8sHjjfkxyjJcxeVljlSVMa9CzvobAIAhYcB6EiAPMMO4PAL1DpfHSAdLJmljCdDLCzFxDoISABecSKp9xzrgfk2fjZUxe1lhlCdMa9KyvITAIAhacByHiADOM+wNA71BpvHSAdLImljCdjDAz1xAoIWDBuYTKZ5wz7sfk2XgZk5c1VlnCtAY962sIDIKABedBiDjADOP+ANA7VBovHSCdrIklTCcjzMw1BEoIWHAuofIZ54z7MXk2XsbkZY1VljCtQc/6fhQCzZeEHoyEBeeDCThQvXF/IPgN1cZLA5yTVp0wYSq/9fmd+NOLKu/Pb+8Uubus7Sf313hYgu2Stu8EuKz3a3pkbwh/Vetr2LW0WXBuoXPtOuN+TH6X8KLjtS7v5eFRevfyb60eS5gu+ubu7Qf++yf91wbzGd+8/n7slgTn13C2XqMiYNyPycwSXnS81uVtPMxj5z56t/FmD6mnTZiebsNXvydcWg2iiQj2iVN7odHKATvsN4ulAQPnwhu8s0Gj3vSdXvTtVx2eIDfVIX2+3ddSm0mv2wOO969r+4capQ+9/Wbaib3pHrAhrsbhMX0BZokf2qLtDqt3ut9NbKws2/pNgmf5W4gZ6YgyN+M/bPDLY/OB2OX71iFeyGnrmHywv89EwLgfk3fJSzu26liny3pvS55naE7jY7c3Z1wFz5MhiVLf3JfPmVLKp5V4rpjzuxqNWcC///0zbfGP5ScD/cBLkwqV71PxDhpNnjyAaLKPIytJK+0NJwerlo9lZQvqQxVuM1m8zYcyREO/6Svb7JKOim/UrapPJyYNHapKFIV8abNPNHjDXY8Dw+svslDnfOB22q42foKHXv6WYKZsY9+FXscdcoA4tO1neX7D6CQjxy7hUxqPSU79SAbnejuruR4Cxv2YnDZ5EbFVx0VdxphDvkIZ4uK352O63znO+C+j7QdL8qRKxD6QPSbC+1uV5yNlGwZLmHCC8SsPPFm7LJu/ydMnJx8habllydXyQZOyehq4aIsuM5j5+SRDrT6gzeqictJoEBf9Y13+Uwx8OtXZr9ouu3jQJ3lxSt3YrhQI6vjlcmg1kAMC+6v4W4CZlM/ylI2Z3zjepG8+kKE/QWYmA/q5pA1WOQO3cTwns5pHzeDc7GmVZ0fAuB+TwYyXRgzWsUiUs/hRikEUBx/T19fDrzgV+uQoqdjpvoOrOwAuHumYm0v6lDM89875e46EyU0+MGGVJk/3zBJNUNxuZtAUBl5KdmDicwjqMsOan48yWjZr+1ttWVX4FBdcb79WuwwH9GmPhIkdJL4a/C3ATGDE4nXQyPwuBSvujJjwuZCsigwI2ml7oduSwyw4L+lsbU+NgHE/Jn2Cl1Zs1TFHl5sxiOevr+lBMYb0PL6mOL80oeG+qVE5JuqYm9p/2tFJEya4vYUDUU0+RH5aYZLUpgE1N2hocoMMG/W5VStOvEg+TIRCHZ1/wWblj74F1/JPDHwlp9qv1U747VdhUtK5Z8Lkga3yp3xoYqZ8YsoEdrj8TQ1EH823LgeJok8BOxxfbMTCTxGcF/a15udGwLgfkz/Bi4pLOgbLmONjRPWxk0I8oVtxvj3F4of79zULy9zcJwWkmCvPf1LpnAnT/TnVHrR2A5FvWdHDteGWnDhP9fCNP9aFc3rwyttUkDxlCVJlwgztHpWHw6N+Z1eyWU/2NDCrbdWo1T4s6ceD4gb4ad3355dfAnZ6t0+YhP0t/lRg0nZrnygIJH99iNHYredf8iax4yQM7Iirn4rURlEE50Y7q7oeAsb9mJxqXkQMK8TWlCDphEk/UoFzUIofPKW5mMaFGWiiTYW5L9bF+XQ+BZtRd/pqnivmHBnoltycqSPW1xKpEW01m86IgA7O5IMOeBiQx/TxXNcJTUx1TF/1ZXm/Evdj8vtZVhkv1+PbEqZdOF0eBHcxy5RcBgEdnN23zPiDB3IzX34fz/krXSev+rK8n+Z+PF4/06IxeKHxhKvXfIyPknwmP694bQnTK6hZH0NgMAREcFbPOGSmUn32fi8MoDhp+9ut5XeIpdsBHEjwToC43Vm7zUgPtHJAf/H9VFU9DgeeIHA1iB9iTXXebvSbUINyhtnMbRPhi5601C2VFgYZefkJwX1ebWcOQsB4OQj4DdVyrJpTYbfk5hCyekPgQAREcC78qkaY5hIJnLQhMXANsewn+3TricrcF4+pI5TnbIh6WBbfQuTEjWTxMTWurJBV9TT6Yx88xgQp2hdsyDDTCRP4Hm+Hov1OoP+PZMXVvwX9QAQeCu6xwo4PRcB4ORT+TZRbwrQJrCbUENgXARGcsySAV1JCciImbLJTJxdYxmPvE63ouBUZoUfVOZmkNyVEGSJZf9DlEhS2O33iClbQGG45KD2t/qgXj1s4ZJiphEnIIcvAF1eElTRaUeOEaa5fBlp+QnCfV9uZgxAwXg4CfkO1ljBtCK6JNgT2QkAEZ5cs6NUNWKHJJn81uYvJXtfBe6iyyR7qouN8+0vbQzmFfvs+6MpsjAIrB0pPq7/Dh5MwTLRAv9MC5YI8eqg+rrzN+YKrZSir1a/iqT4tuNeVVj4MAePlMOg3U2wJ02bQmmBDYD8EdHBuPvSNE7YzEZKp7HYSJQ3w/I9LNjj5oTpIOESd9D2uSuFp1d7/qq8iG/s1jpMeZRv0IT35ShU1aOCQYaZWmFq+qL7OT15havUDm1uHmvtWW6vbDwHjZT+s99JkCdNeSJseQ2BDBErB2SVN/EA13gZSE7gzi1Y6uK17IBwTl8dUe4dY7R1VPvnhVRz53jOEAdu98n4q7O/sx0zIJSNgA6/yoK+ICxmGdYhDATPSHVeYYqLp9WlfhJ2Fd/Aw9rofYlU7LnFfa2vn90PAeNkP67008XU6p88e+p5DyOoNgQMR2C44w22pA/17p+q0CkVS5arSO/XsJWs77vfy4Jp6jJfr8WoJ00JOKdjit8qF3TdvPrp9mwPwFgXnSxK2C87nw2J2COiVJ1yVmu08XoPtuB/P1zNZtISX0mrlHvOM1vtOfLeU/U47l8i6WMJ0hm+LZ7BxyRA6ou3WGJ4vSVgSnI9gzHRuh4Bxvx22ayQv4UUnF7q8xo5W3y31bCm75dOWdedMmNQ3RP8FkSZReF6BTlK77AV90AYfWHWPL2AdP8Mh4ZeDwL/Ur7avnXyGhOQVbIw/v2bd8BAt1XXvm1faB40mfpZLnyjb/6KJB0DaSFf6K0pF3EUL/3Pq+3Mqv+hQJyKqrOTHb1iCR9prD3xy5L/BT/HsykO+A6hml3b9wPKS4HygmaZ6AwSM+w1AfYNIyUs7Rsl5Rf2ggGxRMYgXRcXtZYph/GOCzlvNWm9NjzfhDs850nyzzKc3QHq4CJ4v5wwZ6BkmIgknfiyrlQc3yLCtcpPqeYDRYONRqJphUQ4wP2DExD4rT9mIwukYbQoDsijf+ZYnddI+JRxld/qbJCDOdFaXuaXCRLSjOrQZy3hMsgAn5yvyCHWsFj8X+0m6k3zCMCWQDbtQ58HHMjgfbIyp3xUB435XuLuVNXnBGOXCfv4Dghj3RQwl9RCvII5/ez6m+53jmNwQvWa0nC9ArusAZReDMXYXJM74VOhxulPnS5hggDDaKctWE6ki0LWn/rjqwgmOG4T5Kgzr4M98gOEgwsmVjkvylI0kuGlTWb60g60rfDNpyi7Zl2SJoybu2BIx8OcTP7oOyu6ChJWjwJHLYTMel2I442fmW6dd6PbBx83gfLBtpn5bBIz7bfF9VXrGSzUW53FbxPcsPvm7A/77PccqiomP6evrUX2pbMmPXj2iHQpa4BN2O+sx5w5z9o+zwtQcPGoi1ROtm5QhAdH1DgWSQRMstAN05MDhwcoNdJnOa3kFG1GXsEnLS2VpB+tXF94b/I2Sm7jHVuHbj8SuO2GKySvK06tuVLcEQ5aleeDzIWEVq4sJZ7niB30GO8yC82D2mTnbIWDcb4ftGsmCl5lYrOO5KDdjL8fCr+lBMYz0PL6mFHPbHvTqEe1Y5EKfuNuZP8+XMOFyJCEvSOPBEyihOpyEVZkGQbrnK2msDTg5cGBidd11OclM8to2Spu0PCgLv5MeYd8b/E2SSTcv92rcUyu+rx2Xk4Wd0nfna0wWlXwUqfwoJkzAs8QQBeE3MzgvbPRJZ0qYG3aBiKMPRXA+2hjTvysCxv2ucHcrE7yoGKZjlIjbLrziLToVgwrxim7F+ZhLt+LoOU/5pbVmtNTb0KN0OnkLfarZcKbzJ0yY9C0smMTDQHNOcbYNEykR4wYq35KDF8iJ81QvVhwSpfkAw4FJA86XW/JiXdARy04vDfbn9M2pTPK8BbJMSRgTyPZK+9b7mzxv457aeRu7XnSILwYkAe6iBJ84mVIXpm8aHkCcwVBgO8MrY5m9PLBmV3L68COy3f4+EwHjfkzeNS8iFsHcQ9aX4nb80kkNxK0vOedx3OQpy80LXJiBRutt6anNNxw3bzM+zZhyimr2dc7YajRmAf/+98+0xT+WP2eg1Y+CgEzqRrHq6nbQdWJ/n4mAcT8m78bLmLyssao3H6lGYxawRbJEMln+Giet754IWMK0J9qsy4IzI/F5n8b9mJyPwQvFY1y152O8MzImfiNa1ZuPWMI0IntmkyEQEBgjOBsdRyBg3B+B+rxO42Ueo7O1sITpbIyZvYZAAQELzgVQPuSUcT8m0cbLmLysscoSpjXoWV9DYBAELDgPQsQBZhj3B4DeodJ46QDpZE0sYToZYWauIVBCwIJzCZXPOGfcj8mz8TImL2ussoRpDXrW1xAYBAELzoMQcYAZxv0BoHeoNF46QDpZE0uYTkaYmWsIlBCw4FxC5TPOGfdj8my8jMnLGqssYVqDnvU1BAZBwILzIEQcYIZxfwDoHSqNlw6QTtZknITp75+n7+P7Ir6bfvnbvwiz18Ae3LO3mvZ02rTNa+8sojeuirfANmxc0rYhZkHVaz4tUGBNCwhYcC6A8iGnNPf4RubeOLEWqlfjjHj79a0/rq21t6t/fLv2a+8s0ry0dOq5SZdbfbeqkzZYXCece/ORjd/D9Nv0IyVLP/2WvS2818CeQSMHQE+PrduMMgjlHm/rvB7Fp3VenK33kuB8Nt/M3jYCgnua5OPWSrSjxmuTfVvjXG1fPHGJHdia7RE5p+at9bnNZF/nDiNFSwQvxRbppJ6bdDm13O9I2mBxnZDvzUe2TZj++GG63dKqEr41vGig2tsrfYuijQef0xP2WMMBnw8Afuspfcr9eagt6+Z92njPHj6f9OIgpoFVlyv26qG9d3i/NNpUWNj+mL7AT9SV+SH6yYtctvWbz7L9foNZChRgLwFGet0+b7cQfFf41MACvwmnzW4RSzvuRYA4tb/PREBwrxImgQjEE+qjY0qMCy5o6gkSyll8wL3Q8ngiE4+QmHw9p3uMfcJKXyjo0PE3xXawzfXGso+rXxDP0e+gLIuBIjYlRQVD66cEL27TeIizhfkG7dJxu+a7wFZwnyeARUtnxkSyyWP6bOJY1HCpk3yNzDlVjcYsAJOcpcd//fpdSk7cBPvD9HvYm47lJwPxYqCzODCoDgIBDQb4BpMNwiTUJwnc1g0i/c2spRcFqWNhA8lIiRnZkxIFbztfm/6CDTYoe6QfC3ymC4oVCDMRQ94EN9kpmlKh2yfVE/tVbVF9rNiFgAzOXV2s0UUQ0NzzZJ8mO3K0Eb9UfPGw6PZQdu1lfJAxScUTvNY5BuC5Eg+ZDtKPOrEMtjlZWKZjmBMcDiiHlSub3X638ssnt+z91LyIfoxDOCnxwwSUGqCvqgw4fns+pvudffOJot/EXWiGAuJEpyUG0qZeHEH8BQ/zfKTs5A4JEydJ8vZcZqC7kDBT98c+D9ADQJblANA7QPNqih6sAZCmXgUaDWJcWeFEDAa374H2yQEubcV22j5ZpwNjLofw4ouK7ZYXikyIQpuXfKpj7O0s2cI22ecSBJrBeYkga3s6BGrc+8QpXOuN+CVjBLvfiCtqsqceUoaKJ5CsxXYiFpIujulgL8dNUiDaexvT6krDVtAdPSveatM2+9X44vdLFjTzmfFSi6EZfgrPLt/J/sf09fXwtxELfTJzG2OC2kauXEeN8Xp8MntOcILn9TlTd0iY+Jbcn9Mv/0vPM2UGFi7WZLwmVZbFAHCDBVaRQK5ox8Khnk8VPxty84se7dsjYWKL6eKiAMX+q2ChfX3Vp1Y/NsV9q0FbYoUdLEAgC84L+lrTcyPQ4j7GMn1Ng8uxDZzTX7xEuSBLylDxxOU7tFoD53VscLpV/ZUSJu2vwlDip5KVQvKTkkXG7Gt6UHZHch9fU6oXpMqCskFWKhu6E08t5VrlLB+puLdpwvRv+IXcj3/QL+P8CtP3v/7pHgDPDaQkQ6+QsNWYgNA5WRaDUg0WqosPS1JdTCZQdk0vt3FpeXYbsCbX6Yx69kyYvL3pouKLLvihsNErTi2shE9KjugHkNFhskVVWLELgdak2SXAGp0WAeSerjFcFUnXVSNuFuOdjAmt65qAo/p0C1D2dcDSpH+/i9hItsXY6BpBPxU7fCyH+Ctshn7BlvRlkPyGW3KiH1IuZVBNwg7b9R8jL80YmuGn8VTcKR8c9oTtk27A0TzycP++Zk1VclV7yWkvjkrIxYp5PlJ2cNuE6b9/pt9/4iXZtLpEz0IVDXQDBtpj0hGPyREimVdR9CD0ZZZ/owew4RuNu5h5mZgjUFWvBM0Hl2Cfkot19+eXX0Z13bdPmFC385v9ikHm5p9xIj8BCzJP9O32qd5PyCOcwRaJppV6ECA+7e8zEZDc+4ktxTWYNhvxqxjvKMmJMfCZYlUlPqSECa77eF2rCTdQJfSSLo47BR3iBzP6S3PN1jAHPEo/BHJ4pCQsxqRg81sTpo4YqvHDctP3wCtD7TDlwtwlEfpGnqvzpZ+faj+omlNzlXrGac6fajRmAUsf9O5tz/LnDLR6Q+CTEaDrxP4+E4FzcE8JU0pO9mNKfmneT6//Cfqe+kzX9gj05iPVaMwCehOgpe1Y/vZQmAZD4LwInGPSPC++I1t+Cu4Lz+Hsg+mnJ0x+ZY/n0fSZ7rzsw8M1tDB+c95YwjSHkNUbAgcicIpJ80B8rqzauB+TXeNlTF7WWPW2hIkF2Sc+W2XHNh5sDNgYsDFgY8DGwJXGwFzSZStMcwhZvSFwIAIUjOzvMxEw7sfk3XgZk5c1VnHSNyejGo1ZwNJnk3rbs/w5A63eEPhkBCw4fy77xv2Y3BsvY/KyxqrefMQSpjUoW19DYGMELDhvDPDA4o37MckxXsbkZY1VljCtQc/6GgKDIGDBeRAiDjDDuD8A9A6VxksHSCdrYgnTyQgzcw2BEgIWnEuofMY5435Mno2XMXlZY9V5Eyb3Ztf+F6HR20/Fm1PXoGZ9uxCgN+eeAfNtx8Y+74Gx4Nw1JC/ZyLgfk1bjZUxe1lh12oTJvbb+8bAtNdawv3HfsyRM28JgCdO2+Jp0m5jHHAPGy5i8rLHqpAkTT0L8mSBw++jw/kfVfXFoo0X5Xgy/9U5rvxzShX1gdYv243nQXkuwF1I0qdEv21/I7/sU9zQifbwnkNrzB1duaj67DR/BZhYVTQsHPfpS3xZGUrJMmNo4pJ5e/hdthhxsj76WcK7iou18TF/QNsoMHGC5jGev/W7Xzmi726MQxqHmBPUmDJYfWXBejtlVehj3YzJpvIzJyxqreE6akzHWr+TgNftupYn3l4Tz2iExeWM7PHYbNcKtO5pgedGBrTEAACAASURBVDPIXGCqcxMxJFC6LZZRpuunXlFfOqc2EZ4m2Flb2I+KaIJHm3Q5tK3qq/X1iUOc6NEfVF9IRER1tZ+S73wPtjhbtV2IH+ASuOREzydBoa3yuTo2hMGq0LQ/2eiTUbaRfONjkof2KvkLixacFwJ2oebG/ZhkGi9j8rLGqlMmTPUkyU+2N5EoeHiqk6JIOPSEpsrUFlZsmjtrIyuVfsKm0L50Tq9KsA0+Gaj4LPzywgVuLX3NvgqTLJlLjme+VHBIPehIy5+maLdOUlzig6t+/jjiAsmutEXqyOtITkp6on099mfYga6mvVHLSwcWnF+C7RKdjPsxaTRexuRljVU8987JGGiFiSYgPUnit3ZyhW+5pfNiUhQTF06MMLk5RKDs+iR5LonhCZnq+Fgj2egnbAr9SueELi0/lpXP2cQNiUfsM01Ffc2+gImTo8tJuJDdwCH1oKNcXjNhquFOcqBO2KJ0yDq2RuHZa3+GHfjTGies9sVPC84vAneBbsb9mCQaL2Pyssaq8yVM2YTkJza+9YJgxIlW3R6iCbLUPp+s65MdyehaYVKTZNZP3KJxhk53fc5N8JjYoZfyOPlMtkMfPeFzt+L5Vl/AxMnQZRaskrEWDqlLSJjUbVHGQ8nwfIGPWs6qhMkLi3gq3YJH1KvwdO3Y/gU8osieYwvOPShds41xPyavxsuYvKyx6nQJU5zAwGs3KT2+3GoJO+Q+ISuiNvG5G0q6cJUqTqx68pdlP/mF1a3HI61gqMkUTHOH1X7u+WBYLQv2ko/RPvbBTcRwPkzCQjb5xO1Js/Czllj4ladMX7WvxCRPMpP3AvOQtCY9gF/qEleYHoBBdKmEcwUXZ1fkVSVvjRWmFp6iDvkX9ntd7Of9+TU972plEsdeTKaUkIVF0md/n4mAcT8m78bLmLyssYrj+pyMajRmAb17wy1tx/LnDFxSL5MuWqGqJxNL5FrbdyCgE7J3yLy+DB2cMemOXxRUgp7Ol64BeUszISj5IT1JTmq17IhkwpeBmCG3pbxHd1vHGWo192ew+RNsNF6ux3JvPnKphCl7iLozQF+P/hE9khPyiBaOaJMIzrQ6CKtrX4+wwlU7X/y1XkfCpOS9jgtyXr/F/rr8a/cU3F/b1VN5Z7yciq4uYz8zYeqCxhoZAudBQATnWiJTO/9KwuRuhcKtRoJK3R7llaf5FV1MmPD2qVp5wmfy1HOJTrd6Fxqust3edOtzxBEhuB/RwA+1yXi5HvGWMF2PU/PoAxHQwZmTBU5aGJLyeb+qw8EgfsIqFff3z6zR7TN9G1smPeIdU5So8Spu6Tk08UxZY4VJ9RXPyLlkDWxCncn4Sx5p7i/p5AmdMl5OSNqMyRwbZ5pN17olN+et1RsCJ0OgFpx9ggSJRPBLnl/+DBM9lC+SMbW6xIHF50kpmRJJTsRYriQJuZT44PNNkMQJWSqZqid2UellDmrcX8bBkzpivJyUuIbZHIsaTVyVJUxzCFm9IXAgAq3gLBILsDGdX54wfYV3nfHC0dy7wihBe3yV9JBBKaEC88ItPrjtp5KiZH+4HQjJVJLjV6zsllxCxI72QaB1Te5jgWl5NwKWML0bUZNnCByAAAZnSiRiIhN+GUfl2nlx+yza3vHQt1tV4oSGkp58JSuJowfR75UXvDYSJkiCyH58mL0vYfIW+IQtWnOpA+T+Uo6d3Bnj5eQEFsy3hKkAip0yBM6GgAzO8hZXfH7IreSUfr5fWvnpSJj43VqcnWW35TiZIjS9TeJ2WwS5kjCxfL4lp9591UqYXHLF/eiTbYw6r3Mgub+OX2f3xHg5O4O5/ZYw5ZjYGUPgdAiMH5wpKWqsQJ0O8XEMHp/7cbDa0xLjZU+099E1RML016/fyQc7b7fp+1//nOgll70G7gPX+7TQLYLyt+2kQ7cR36hTs0VHWuaiztZ4WASGD84f9Ku1vQfJttzXV//W+rkkFi2KffGHArjCudba5f3bvLwH10W4LHfBeigEevOR/R76/uMHlyT9+Mc/l06YFA9dRbs4umD6yEbt4PyRkHyM09ty/56JfS0Z9diX306mRGyEO7BtXt6Dax2XtYhb/xICwyVMv/9Ez1j8MP3+Xy1h8s9WPONeY4/pC56dEKs2cJ4cTXVahrrAVL948dF59XK8BKqX+UUPpoZnJ6K+Qj8c6PICTwEA25AeXa69KNA/xAvPqtySf3Myoq/JMTs6AQLt4HwCB8zElxHQ3NM1zjHIPbtViD/12OF+JQD9H9MDX/r5f+19y7XzOrOcUvLgTpSK50zCkxuCAnAcmnjmABzAv2cngRMCvRpgA9V48C0REOtb6xyReDQaVWCjCHITSWwMMU7eUXu+xhiXY8yRjmU+ZfFMBATGLPv4NotbDi39C8ip3vAeJZaavu9G9XjFlBezt6e8j7cB1+K8kmHoEsYn4KjxvDbHVMdBacwch6R7Czq2ljrypRWm/z3+T3gcV34k5y8sHAjhT4bdxazLsKmCj0IkewFV6oW/xpF6eLHCubOPeQib98sEELVTqGcCAD6uAF9MmezimOkf2sPjog3sD/QVu8bj5hHIgnPzHtPBsxAw3LtYozFwaiGLPzOxw72cH2OCFzpqb6ke3JRCHPOTstqIvU7jW8yZJv4Qkws3i6EwxnWfaMVBKPj1A8PLWbgW7BTnHNdbiOc4DwRuZvjMxszX4WuywaYEk3+X6X+M//3//OpSVTBVLyQYAI5wuNuYVLcXWlAuDKzpgsaBNVEWLsAw0EpcpjZHd7fj2ivUs8Ei1sV0PJYWzflc/7APeJzaSPKkjdDXUheZ1iwCNjg36yYd+wACyL2JEdpWGn/Wxg5XP8amdDVCJ4+lmFr0KY1F0pbEI1gdqX5CQvvlfjsRTFms3YurjdEG26wNLBvbC3XmxkE6Zgzm9z3R8bmEwBdWmP7P+N//9Rgf//W/xv87PY47LJhAWNkOxsHj0+F8btDNDiKwMTUWxEehXhi0pqy9+NMy5rxgM/RR8kLgiXeLkm9szPU1GONBDwjgpNmDv/TxPASQe3N9axNprEjPtZz8ZjEB4tpcPbfygatIsV7RpzQWuZgF9ZO2ajZK3xALcRf7dcEx8nIeriiCtsVzjwvMMQnGBqK5PFPwXiftCKbkZW8RS4cEU7J0aWmNF7NPx3M5BpGBF/LsIJJ6yZK0PqMu1MsCgASq5MN+aRl7nvgJHZRy+sgSkt3hrA3sa1qR500jYIJz057SubMRMNyXruEs/tRjR/r4TOJFeOVhb0wt+VQSTHCD69pNzuOjJ0QQBMCU3KRgSjDYhmtlXkkxTPlJ2nSizcwxC+MA8EfE73zcjGBKX/Y+LpjcaIKVFnk8p3cwMlD0WOhPzkW8lFZossCDQ8fbkD22tG4QLYV6VrioD3BhZBdDcjchVdwFEdsL/TP+P+pfR3bNVvqKXeNx8wiYSbN5b+ngmQik3Itg0BgUXvpOJ79a7JjijtZ/vt7j6wmxsloviaFJTM18qsQ3bfex9JFSuKn14iN+nLRJwXQQ1+K8UsDQPtaEG3834IQjO8dU55DCnHXmmO3Vlo7PJf+/8EguvrekYqm8wrTk6lX5acC4yg+7ZFtasr7OM7b8KQTkQua/eyJA7tvk/RxezpxXxFYqotrErlWvKJhOY+bMgX3QqfQuMCx1HbTL6s0icE5wbrZ7dGwGAXI/A86FWefwcuK8kr2fdiE4nTZNwdQpcXSbCCAC5wRntMjjXhAg920yRV7a5OWIV6cJJjXEX3h/ILwHxTSOC44BjgGOAY4BjoFfGANLoqv6goR2Ht87OvNY7S85yHwicGcE5Drhv3siQO7b5J28tMnLEa/W6pFqNFYDZ4oktKX2j3SSdYnAryPA4PzrDNf7R+7r2FyZQ16uRP8zba/VIxRMn8GfVonAKQgwOJ8CY5dGyH2btJGXNnk54hUF0xH0WJcINIIAg3MjRFzgBrm/APQVTZKXFSB1VoSCqTPC6C4RKCHA4FxC5R5p5L5NnslLm7wc8YqC6Qh6rEsEGkGAwbkRIi5wg9xfAPqKJi0v8j0l+Au5Vd/Gm/8GU7pbhHzhvLx9jDqb+GA+Yol58eOW+IX2edvahmxVY3eX0Jxf+KVg+gUW2YfbI2CD8+3huBUA5L5Nui0vKH68qFjWTFgn72MqmPISaUrNXuKPfPhYnPt7jcPrzxtxH0OGLXJS0+5c7D/H1/s1PtOteIrl+0ukYOqPM3pMBDIEbHDOspnwwwiQ+zbJtbxYsRLFjk23+5r6vJfbANmvTuEqT7Th+1861wne7SmY7O8XUHMbv7/GSRqFZHswiaH5QuoIBZMFL54pIfgpgDOP1X5skUdEgAikCNjgnOby/JcRIPdtsmt5QWGEKzqYLv3AcznGx2xyHh+XlQRSEFTFFSFvT+fUx7QKlNopoin21q4abSlbbKzdRMVuyUN+VmAJIeYTgQsRsMH5QkfY9NcRIPdfh3xVg5YXK1aCsDECScxKOX30hce+SXmnSB/lpUIHz/E4Opvbk7xy2Vhr8wbuFEwjBROOHx4TgcYQsMG5MefozkcRIPcfhXe3cctLWaxYgSRNYTk89m58QjCNC5vyLr9MnkBEwUTBlAwJnhKBphCwwbkp1+jMhxEg9x8GeKd5y0sufrxZeTxnH7M9zAoTPJITIRLy8pUhs1KUlPVt1XyQ9Lhy5USbW8byjw7jathKICiYKJhWDhUWIwKXIGCD8yUusNGLECD3FwG/0KzlpSZWZFFpGKWs+294ja8nPJJ7vsbXED9HoI/jpGkjkArn+EmA+NJ3tCXtBXtOYGneJODQr8m/efHkhVfoC9pfwKqXbO3bkr98JLeEEPOJwIUIyIXMf/dEgNy3yTt5aZOXI15RMB1Bj3WJQCMIMDg3QsQFbpD7C0Bf0eRv8pKvInkRoatiK4DpuIjv6/LNabWEGjjzUwJoS+13jDFdJwIfR0CuE/67JwLkvk3eyUubvBzxaq0eqUZjNYAi58xjtX+kk6xLBH4dAQbnX2e43j9yX8fmyhzyciX6n2l7rR6hYPoM/rRKBE5BgMH5FBi7NELu26SNvLTJyxGvKJiOoMe6RKARBBicGyHiAjfI/QWgr2iSvKwAqbMiFEydEUZ3iUAJAQbnEir3SCP3bfJMXtrk5YhXFExH0GNdItAIAgzOjRBxgRvk/gLQVzRJXlaA1FkRCqbOCKO7RKCEAINzCZV7pJH7NnkmL23ycsQrCqYj6LEuEWgEAQbnRoi4wA1yfwHoK5q0vCTfLwqf2J4zNPN18MqXvbd9iTtuyeL3sEu+9O0+Qq5psEXLjMv4dfF5X2aMNJxFwdQwOXSNCKxFwAbntbVY7hcQIPdtsmh5QfHj92hb1kxYJ+9jujVKXiJNqdlL/JFtUsS5v9c4vP68keLedIn9reWT6j2cUjD1wBJ9JAILCNjgvFCY2T+FALlvk07LixUrUezYdL/So1/N9nmv1zPsNYerNtGG73/pXCf4uJec2gbMZM+452ucpBFk4KH4gitSmFc63lq+ZKO9NMVzyTN+h2kJIeYTgQsRsMH5QkfY9NcRIPdfh3xVg5YXFEa4ooPpYhbP5Rgfhcl5FC0lgRQEVXFFyNvTSV9FUmqn2DmxtyiqoObW8lC15UPFbslHCqYlhJhPBC5EwAbnCx1h019HgNx/HfJVDVperFgJwsYIJDEr5XQVCI99k/KOkD7KS4UOnuNxdDa3J3nlsrHWOIrAi0INc8rHW8uXrbSYSsHUIiv0iQhsRMAG542VWbxrBMh9m/RZXspixQok6QeWw2Pfx08IplEeyakKK0ApbUaBVyiQJG0tn1Rv+pSCqWl66BwRWIeADc7r6rDUbyBA7tvk0fKSix/vtV2NkdWeh1lhArGSPGZLV4bMeVLWt1XzQdLjypUTbU5A+UeH68XS1vJt8jbnFQXTHDrMIwKdIGCDcydO081TECD3p8B4uhHLS02suL/dDy91P4bX+HrCI7nna3wN8U/7cSHICKTCozVZ6dEJPr70DWkokpzA0rzp8ZusPD00zf/Oiqet5U9H/PMGFY+llvgO0xJCzCcCFyJgg/OFjrDpryNA7r8O+aoGycsqmLoqRMHUFV10lgiUEWBwLuNyh1Ry3ybLv8mLf3ynwiH+6qpYm1yc5ZX2d8keV5iWEGI+EbgQgd8MzhcC2lHT5L5NsshLm7wc8YqC6Qh6rEsEGkGAwbkRIi5wg9xfAPqKJsnLCpA6K0LB1BlhdJcIlBBgcC6hco80ct8mz+SlTV6OeEXBdAQ91iUCjSDA4NwIERe4Qe4vAH1Fk+RlBUidFaFg6owwuksESggwOJdQuUcauW+TZ/LSJi9HvKJgOoIe6xKBRhBgcG6EiAvcIPcXgL6iSfKyAqTOilAwdUYY3SUCJQQYnEuo3CON3LfJM3lpk5cjXvUrmNxXRbdsCJhvMvjJPW/Sr7B+sq39A2Dm67P7jX6s5jyGe/uyt97HurnLMIPzLth+ohK5b5NGy0vy/SL8ZHfV/fnYtH2OSXx44PyJeTEdvxY++5XvqQ9by1e73mhGt4JJiBmG+U0DU8zTAZbmn3n+zbb2+z1/Qe63e0XNvX3ZW++KPtbbtMG5Xo45v4cAuW+TU8sLxhm/59qyZsI6eR+3zzE1e4k/sk2KOPf3GofXn2+4uDdd4tPW8kn1Hk47FUxKvP4q1O9xeL7Gt9vAMN/7Jh1gpXMFpLz3TlTeMpiebt+fx/h4vsZpWKkjY8l2VOjez9oeQc427OFj6kH6w9whjCOq+7iBY3DJH+B+P8MwDmGjR7cZ0fgE+7Fda6PajtmPCDaNHP0FGbANexgV+FN/CvimmLpdttVf0xexi3sgAW/SlTkMQlfnxtKM/czvmbKhreMHNjgft0cL/SBA7tvkyvJiY12MZTbdbXyrMXD0ea9T57PCF7klHhbmMIuq+JLEUVvAnkkcXLRpq/RwpnPYkq9tfelbCJ7kuVtpeqv7QipO1JbkOEh9eXPuJvvCYFLT8ouDwJWvDyBjO9sYMfET7U4XSeiSExuVdrAeYIIu2+McjyisJA/7LyKn0G61nZn6WAePs76CjQK+FtO5vtheG95cm7FfYjNigPXEfn0sYUljv+B3tazJOHZig/MxW6zdFwLkvk2+LC8Q26YbSD+FYbr0A8/nY5CNh8krJy4OYTxX23AjOQma1E4RTZxrigV8YryZTtueqdRRVpeCyYik2QnYr7ro0mc6MPAcjw1/Yh9XK1Q1Lwyg1J49x4tCWoNzN9BhUE9tax/M6ojkqT/OhtSLYsD0wzUThabP29BuMOYv4qydOb+RIzzGfjv7iT+hb75xg6GxI/lQ151WeFuq55vK7UmKPAZWJSt21o6LWtnQ1vEDG5yP26OFfhAg921yZXnRuOlje1y9T+KWiWNpno1BJh4mN+Vpnkcotyfp5bKIaeXmGYukx24+mJmL0vKdnGvMX3K3oRUmO/B8B1TN5gMCJ7l0YOA5HgcwHOlqu7DClEzooV5hEFr7qZ9wLm3W7M75ExrXx1/gt+bNiYW5drW++U3amavv/FYRiBcR9NvZhvOCPYPhUl9wtQxtzdUz/QNfpvQwllx/AF+0j8dSb66sae/YiQ3Ox2yxdl8IkPs2+bK85PHEe52m4zkeT6Xhps3Ew2TOSfPKbU24ZTFxSg/ZuNJu8+bOQrycK9RZntcbVTkUelMtoQb++fc/4yf+U/vBk4xcP3HH5U0gN5ms0kFkzpOyrr1k8pPyYUUnyQv+TQfGdjKYs9WQ7K4CRQVYTto0/kAxOSwO1qSPrn4QFnJxVtpNbONpbKdeX9oJKzNYOXncaPxJ+irVJD/cmc31Janr7KoInatnfJP+VMbSkn1tyzttBLDxxbR37MQG52O2WLsvBMh9m3xZXnLx4722qzcmBrp5oRKD0niYnidxzrdV88HHuhij3+PgTvzcGmLuEszvAeK82Nw+nyw1cXV+pkcqDjUjmOIEHT11g8wR7AfEMOhqBjxCSQdU4VxsKyD6jpQfwFO6vFisk2EyaUZv/JHUw4Fmz9OBm5y7wQ6+BFHjRUP0Mfpj/JRHRXH0G9ew3PP1Hl/PZKUEHzNBu2oE6zs/sJ2a3yJy0a5iKEYxz71EP/lTwNdiaLFI+2L8RN4m3tWftJ72U0Xt3FhSGw+0X/G7WDY2dvhI7PPfPREg923ybnlJYjy6XIuBIpier7H2x0GleIhzTj6fiQ84r8D8aGL3JHTQr6ke2scu+GNrH6eGvGyfKRrHl7yvRmM18InVJbGp9pcc9Pkzg3KdAZb6AAJW5No7qg80d5LJvsZSHpwxMOKdHga1mI7BdT4ongQvzZyGgOX+NLM0dBAB8nIQwAarr9UjFEwNkteNS+bupb761VZ/ehdMsHIYgMXH126pbd/3VoI9HrSAACfmFljIffhNXvCGC2/KSvEmx6T3lB8TTL3TQf+JwD4EbHCuiD1ZYsfHocWmpG5ceSoWYWJTCFjum3Lt1s6Ql9+jn4Lp9zhlj26IgA3OyV3gJJLSdx6KMBXewSqWY2IzCFjum3Hr9o6Ql98bAhRMv8cpe3RDBGxwLq8wLQumXt4vuyHBM1223M8UZNZXESAvX4X7K41RMH0FZjZCBD6LgA3OZcHk/iJx5k9X5MVvvvD9WZ4+Yd1y/4kWaHMPAuRlD2pt16FgapsfekcEViFgg3NFME3fdYmaaef3VlZ5xELfQsBy/61W2c4SAuRlCaH+8imY+uOMHhOBDAEbnJN3mMJmx9NfxoVvsez93krWPBMuRMByf6EjbNogQF4MHD9xQsH0EzSyE3dHgMH5viOA3LfJPXlpk5cjXnUpmJZfXj0CyS/UrT2SOadv38X/s305B5HrrTA4X8/BVR6Q+6uQn2/X8pKs+sbn4pmR771LmPhkPieCefEzI9s/cOu//bb8OZMMhiYTKJiapOWoU58VGRRMR/k5v74Nzufbp8V2ESD3bXJjecGYnHxA9lT3t/ylK/qETiT+yadGROD9vcbh9ecLuo8RL32sUuw/x9d7ZkN5bLaD498QTMmXpFG8oyJ+FPZGc7vJuz3MHvGjfok9/MshEQsKmt+vLR10cO4G2mt8PaPtqj9Jm5v6IAMN9/2Rvc2wr4lt7E/ZH7+H0Rv6inUywVS1P91dhHdmdO8iwQi/EhvvYNw1s6Evm3Hq4KLc46INznsssE6vCJD7NpmzvMC8gPuYFuYIjK8Sn2OMUzFUi59JvNWK1fhsfQoonv2BW2l/8YO5ofWmD3TuX3Kyqa1RcED5TVJxwpVBAC+z6qCp9dANprQ+KmcdpPrCLOaJ0XTQwXlqWwZi0R/w2fkJ59U62CEoP12MURyCP64K9KdqW+rgn5jn9qOAWmm/2taEa7ig8rZsX1KuNnCNkP3YsQ3OP9Y5dmcWAXI/C89lmZYXjJNe2LipIJ0jUEyJ5xg3a8LDpEN8dz3HdiUB8yUPblw/9YFb499ldJzScP+CCQfUBElU5TogcJJNcEvJlHMcRNOxDG4r1NROOiDhPLU9/Vn3QwVdMJELqU19yDBIfKj0x4s9uWBSfKB+hmmCwwxe5mJPfZRz9EsFU1oOBWmWJ/FE78DE51JfFOTf/rXB+bf7yt5ZBMi9xaOVM8uLxicvUMINZzZHJPEV4p+Zf2rx0wii6WYU4+x07O/b8zgv2Jl2imCi6CoWsImFPtoC/ZzpnLXkcbsrTLOTqHbLK/q4UqHp04DSyVqSZ8gtD6R00MF51Vbiz9E+ZPXX+AAYuItMLmRdPYP6U7EoTJILqtrH9GIFUSZ1QlsJ5nN9yfJQMGl/Emw1+cd/bXD+8c6yewYBcm/gaObE8pLHVOdoIX6m84yPvSBS5uJnSTDh/GbQqfhUiLNYTfwJgg8zaseFPtaKtp7ev2ByCnxmMgYGcNIPyRmZMojAXiioAkBFhWbAQHZF5B2nqUxmW+v43+hP0mZ6QUC1WAcSk/JywQUfUnygWnoYbYs/cFEU7McLJvEdjIofxSeQCS7OX72oC21V+5KUhaZh5QlTf/fYBuff7Sd7liNA7nNMWkixvEicTOeO5GZxcjoVTG6l/vmM7wHNxc9UMM3G/4pPro6u3ItTBz9wm/jbAjd7ffgBwZS88AxixwsHvwTqOlqavUtkuokY6sFAF1GhoIX3kUSR67Kne4G8LJhm/UEbW/sQhJr37fl6j68nXJyV/tT98RfSAH1F6LILumLfvIgu+KgoSvx9yEvqlbysLwdx2nuhtF5Pxh//3RMBct8m75aXijgpzD9ZfJ0ETLxJ9av8cc6pxE8N2rX4PNkNdk7/wK30GeZLtN8mZYteKVZLBavRWA388+9/xk/8p/aXHGT+mQhULu6NTcQVK6loV+I2mmLxBQTkOuG/eyJA7tvknby0ycsRr9bqkWo0VgOfEEtiU+0f6STrbkXgHMHk3gfDOwy949nqDssvIsDgvAjRzxYg921Sew9e8lUkP2fDE4426dnlle9bVQ4Fm9USaoCCKWDFAyLwdQTuEZy/DmsXDZL7NmkiL23ycsQr1TtLNiiYlhBiPhG4EAEG5wvBv7hpcn8xAZXmyUsFmI6TKZg6Jo+uEwFFgMFZkbjfL7lvk3Py0iYvR7yiYDqCHusSgUYQYHBuhIgL3CD3F4C+oknysgKkzopQMHVGGN0lAiUEGJxLqNwjjdy3yTN5aZOXI15RMB1Bj3WJQCMIMDg3QsQFbpD7C0Bf0SR5WQFSZ0UomDojjO4SgRICDM4lVO6RRu7b5Jm8tMnLEa8omI6gx7pEoBEEGJwbIeICN8j9BaCvaNLyknyvaOabdPLBX/yq94qmdhZJfIIdJuLG7PKl7rhVGO50scbHreV3duRr1SiYvgY1GyICn0PABufPtUPL7SFA7tvjRDyyvODHgP0G4TOa6UCHtuyogD5hk4l/srWKOPv3GofXny/otltZ+Djl1vLoQqPHFEyNEkO3iMAWBGxwbd1DfwAAIABJREFU3lKTZXtHgNy3yaDlxYqTsF+cEyOv8fWMe22GPLdNKm6Cq2KotjLkhY5O6mGv02QvubgyZH0KKMp+nbC3Z0g3B1I3rjyZrOLJ1vJFI5cnKrZLjvDDlUsIMZ8IXIiADc4XOsKmv44Auf865KsatLygOIEVHCdmrPBAweQ2MNelKClbEjImXUWVuojtShrmSx5sjjvZNu2rmfTXtJlmFs63li+YaCGJgqkFFugDETiIgA3OB42xelcIkPs26bK8WHESVnkKQsIKlih4TLqsAhXEjhVEoo9e4xPLTcdeg0XbiKBpBzPCMYqukDhzsLX8jKmLsxTzJTe4wrSEEPOJwIUI2OB8oSNs+usIkPuvQ76qQctLWZw4QZOsGqWCRV6cHt4gOpwIgveHjOiCcuKlyUvdrvgkYkxXtdIq02PCIPgK+WnS915iT1s+/5yC6XxMaZEIfB0BG5y/3jwbvBABcn8h+DNNW14q4qQgaFLB5B7LPZ/xcVxSR8rHd44SwTRKu/aRX3S54pOrg+9OvcfBCSixveUv+LaWj561ekTB1Coz9IsIbEDABucNFVm0ewTIfZsUWl4q4iQRP9KTTDBNAgZXdZxI0kdtwzAOsEoV8nSVSNrQsu5XV6fEJ3iH6QEiydSZBFf6GPCxIJ62lm+TRuMVBZOBgydEoE8EbHDusw/0eh8C5H4fbp+uRV4+jfD37VMwfR9ztkgETkeAwfl0SLsxSO7bpOoevOSrVF5U6CpWm9zs9cr3rfpKdzBbLaEG/vn3P+Mn/lP7wRMeEAEikCEg1wn/3RMBct8m7+SlTV6OeLVWj1SjsRr4hFgSm2r/SCdZlwj8OgIMzr/OcL1/5L6OzZU55OVK9D/T9lo9QsH0GfxplQicggCD8ykwdmmE3LdJG3lpk5cjXlEwHUGPdYlAIwgwODdCxAVukPsLQF/RJHlZAVJnRSiYOiOM7hKBEgIMziVU7pFG7tvkmby0ycsRryiYjqDHukSgEQQYnBsh4gI3yP0FoK9okrysAKmzIhRMnRFGd4lACQEG5xIq90gj923yTF7a5OWIVxRMR9BjXSLQCAIMzo0QcYEblvv0uzi1bTG8o7LPl04C+CXpWjfyr1DXSnaWHr5Kfd73gywv+/A4vg+b354kbp2yzw/W8gjotbKEB/9Kbgkh5hOBCxE4Izhf6D6bPoCA5b6yBUfJ/t9rHF5/PsdthbEsFo4LpnSvs5Jjn07LffAb3J7bruXlXNvrrMlYeI6v9yvuQ7euIktVEKBgqgDDZCLQEwLXB+ee0PotXy33dcEU9hiT/cN0n7EAxTS5TvopJCcHVjC93R5mL1ilQrO4evV4iBibVjt0/zJXWNqNq1wPs1HsvP1if8weaKW9znIfjJ/YgaTvW08zXp6vsYxV4hPs6bYWb1yJcrhgPwQT2Gtuaz9YPiJAwRSx4BER6BYBG5y77QYd34GA5T4RIDpRLq0grZxUswkcN2BFG/KICyft0K98dSdkyQHaSDedxTw5diIMa6disdZWnv75FSbPS3jsiX1BrPA424h3xobDSh6/phikmCJePN6KAAXTVsRYngg0iICdNBt0kC59DAHLfWHCzCbe1JVcQKQl9DwXTPgYD9v2k7tdMRIrhbbC+0PTSpOKPCcCyvatH5N3TkThapU/znVb7sN3BFO5LyOKJDzOeEN8pc/23K0soYCNpHGFSbE4+EvBdBBAVicCLSBgJ80WPKIP30LAcm8nUfWhKDCmTHyco+Vrv9ZO2lZ6LlZEnIhwUbGQiJV0pQhXXhJBgALB+jF5a+rWeqA+2ZfhLxVMRuhZv2w/U3ztuZSVsRBWsRSC1bhoBf7WEKBgqiHDdCLQEQJ20uzIcbp6GAHLvZ1Eg3E3Kato0VQvZrIJVrMLv1smcKweBUlBMIUVJXki9xzjX3SlfYHzYn8k3woO9CEeJz7IWs3wGPOVqFhjz9E8L7Ev0uda26vxDngUMKBg2kNfsQ4FUxEWJhKBvhCwwbkv3+ntMQQs9zJh2sdSOhmLKNCA794vSh+FlVYnEtfWTuBO+KAf6sT0mMn5MaWZssPgXiT3755HUeHdsOdZf6SQEw7QT13ZculRTIU2Jx+uFEzukRxilQjIKGht/3HFDf13fXP9qo+FhFaerkRAr5+l4vyswBJCzCcCFyJgJ80LHWHTX0eA3H8d8lUNruUFxU7xHa9VrbHQNxCgYPoGymyDCHwYgbXB+cNu0PwFCJzLfb4q4SeJ9HHeBR3trMnVvKSrYrAa11mXf95dfy1U149C/6sl1MA///5n/MR/aj94wgMiQAQyBFYH56wmE3pHgNy3ySB5aZOXI16t1SOLgkkN8Refn/OY44FjgGOAY4BjgGPgl8bAkuhaFEyfWF0SmwrykoPMJwJ3RkCuE/67JwLkvk3eyUubvBzxaq0eqUZjNUDBdIQG1iUCxxBgcD6GX8+1yX2b7JGXNnk54pXqnSUbFExLCDGfCFyIAIPzheBf3DS5v5iASvPkpQJMx8kUTB2TR9eJgCLA4KxI3O+X3LfJOXlpk5cjXlEwHUGPdYlAIwgwODdCxAVukPsLQF/RJHlZAVJnRboUTPiF1/gV1GuQF1+u9EG+6npl+x719Au013Dx2Vbb7iOD82fZb9k6uW+THfLSJi9HvOpPMMnn/OHT8e/h3h9Uo2A6Mvy31KVg2oIWy34PAU7M38N6S0vkZQtafZTtXjAZmJMvptZWXnCFKu6inU6IeO43qVSw5Fc/xpoJlpoPkj68/M7dKvhqZU2n8v2RsF9Z+6Eu+i+J9ryMQd6W9jOY1QPch0r2f9I9myR/Vb8qmGY4Wb9tP95u36n3tEu38ILYpH5gX6r91/7J7+E+orHPHkvf+e+eCJD7NnknL23ycsQr4XQNr9VorAa++VkBnezM5JgIguqePDIJ4swZ0JuZmLEOHjttgI/EUhuwK7YTEXHzRzvxixNQNvgkBzM2s/axYloPzpM+xFpSJvURz7WkLSeirS48K/1CH/B4ESfoh8MGRRL6hceK49QXbE+7lP3a+rv6mNn8XMKai/hzrdPylQiQ+yvRr7dNXurY9JqjemfJ/6YEkzrrhdM0CSarGtqxXBvJRCgqMRUCko6P9+AcJ1g8TgXLnA+SpytL0oG5strBFeX2rTBVMEj6Js0LxhmGWTnAam2/0AYepzhlghHayvLAX7Q54Rn7Uuk/4p7Vh3bX9hHtffiYwfnDADdsnty3SQ55aZOXI16prliy0aRgEqeDYMgm2qUu6SMhFUkwIbqqcG4mSCu0QvveGSuK0IXUv/Qcy+LxQjnTPtbLxAT0J5RLMMhEAgiQUGd6VGVUFNhe8DeYkXLT8qYRr1l9sO0q4zkee8tBFK3qS9L/4NxJfUR7Hz5mcP4wwA2bJ/dtkkNe2uTliFfdCSYRCDhXhwnSCQQrZtYAE+vbR0fSjj5mSttEu1awyARe8aEoBCplsYGFftn2sWK9P1hKjiMGif9O1KighFpJOmLlHyEu96uKaYbTXD/EX3gkZ/xa2RfT/3P7CNY+fsjg/HGIm22A3LdJDXlpk5cjXnUnmPyEDBsZonpyEybkmUdsHiY/uUMZrC+rErrq4V7QnsQCpks+PFrLBEvNh0wIlB7LFcSJuF2ziStspVGAfkN/VmNQE39Tu4rV8/UeX0/wfcbf4Cb6hpiWcMKy0A99v2sYIp9Ip3lpG/oy2//goF+9PNRHsPXpQ/GT/+6JALlvk3fy0iYvR7zS+WDJRjUaq4FvvvS95OzZ+XEFRizbFY+z27qLvXMwlVUkEGp3Aa/QTwbnAig3SSL3bRJNXtrk5YhXqneWbNxaMGUrPGYZYwk65hcRSFehdmFKwaTYMjgrEvf7Jfdtck5e2uTliFcUTEfQY10i0AgCDM6NEHGBG+T+AtBXNEleVoDUWREKps4Io7tEoIQAg3MJlXukkfs2eSYvbfJyxCsKpiPosS4RaAQBBudGiLjADXJ/AegrmiQvK0DqrAgFU2eE0V0iUEKAwbmEyj3SyH2bPJOXNnk54hUF0xH0WJcINIIAg3MjRFzgBrm/APQVTZKXFSB1VoSCqTPC6C4RKCHA4FxC5R5p5L5NnslLm7wc8YqC6Qh6rEsEGkGAwbkRIi5wg9xfAPqKJsnLCpA6K0LBtIEw+dji8/VXqbH3m0B7601uuK9gl7YiEbv6BWzNP9hWpedM9ghkX33/IjAMzl8Eu7GmyH1jhEzukJc2eTniFQXTEfRM3b1iZG8937j7YvYwjA/z4Uf5Gvkj7rknH4l0+cfaMt39yZNjX3GnYPrJQdF8pzgxt0kReWmTlyNedSmYRCSo47pBrgMh+Xp0XA3yAiLWUTGRCgg4dyLj5YSH7h2XTYhmj7MBtukQO+ijrvBMVFXrRSrXbR2i/uov2If97sAq+BhT49F7HJ6v8e02Hvb+Rwxn+pRhNVM2Nibb3ib+4Ln35QVcG00IdszecFooGQua7Np8vsbcbjJGpELWr3xfv2jX7z0X8QIHv3DI4PwFkBttgty3SQx5aZOXI16phliy0c7WKCI2cJYKnuNkK4mwWoB18HhuwnYTrhU6VjBJezHfT9qVfc3EVhAwK+uhn6Z+6PDoNpedsECBZf2E8ll/MU+OxTd87Gh9NaXRpwJW1bImQ+wjZnie+ILtoQ3XNtqQzNRvPJ+zC2NGzGT9Qjt5O3Xc0eHPHDM4fwbXHqyS+zZZIi9t8nLEq/4E0zSpP0CsOADc5IarOv7Y6QkUH3icCQiZEKfJtzBBmwnR2BEPoK47HWAV7DHqKhWKHE9cUs8nGnum3ZAveklXyqR4FJK18pmPYKvmS9YGrpypCCxg5fwplTVtpn3HczyWSum5N1TsK2ChzcV+pHbwvCCYtI/OhYhxbpcrTIoJf7+LACfm7+K9tjXyshapfsp1KJgUXH2EUhc4WtJunhtXhfJJGCbPgggwk3M2KSd1VXiJE2hrrl5w2B/4ST6ZxEMZaS8ViBMWWRtaCXzUJPOb5wehIX2o9Qn7J/bmys62h+3jsVRKz70hw4naLvQ/9COzg3YTrNN+zdqlYFL4+ftdBDgxfxfvta2Rl7VI9VOuY8HkQbYTIYqhSIJMqsWnePjYzs3zzzG8E5VOllN+eEclEQXSRq2uy9OVirl60WXt3Ph4PuFxHhTIJm8vIH0/RQTA6pOIBL/UFlfQwFQ89PWKfUzwyPqk/RNjc2VjY1JwfD0jZwbDWWEDRhI8fY70I9q1Ag4FkpTGc+tP2g9ftmaXgglY4eEXEeDE/EWwNzRFXjaA1UnR7gSTn1RhZQWVkJs8IU9XRERc4GoMTu6YN8hL3vUVK2k7iIkgsHx7z9c71k3yHsPgXqbWDxJgH9J6dtwkAgYyo1CMic6u4mGw0Ene24tYTH0NJrx4GCovWqPfpk+JQBJz1bKhremghr8RMlIWhY01IliEPmn/0S6Kp8yOtRv8FjuFftlHjYqr90fq4viwXn72TPrPf/dEgNy3yTt5aZOXI17pPLNkoxqN1cA///5n/MR/an/Jwbl8Ky6SVYS5ipfnyWRuJ+XPumTFw2fbovUzEWBwPhPNvmyR+zb5Ii9t8nLEq7V6pGvB5B/JFFYhjiD3jbqySqIrJt9oL1t9+UqjbOQEBBicTwCxUxPkvk3iyEubvBzx6h6C6QhCrEsEOkCAwbkDkj7kIrn/ELAHzZKXgwA2WJ2CqUFS6BIR2IoAg/NWxH6nPLlvk0vy0iYvR7yiYDqCHusSgUYQYHBuhIgL3CD3F4C+oknysgKkzopQMHVGGN0lAiUEGJxLqNwjjdy3yTN5aZOXI15RMB1Bj3WJQCMIMDg3QsQFbpD7C0Bf0SR5WQFSZ0UomDojjO4SgRICDM4lVO6RRu7b5Jm8tMnLEa8omI6gx7pEoBEEGJwbIeICN8j9BaCvaJK8rACpsyIUTJcQ9v0PRH7sK9Thi9r+q+HykdCrvnZ9CZWNNMrg3AgRF7hB7i8AfUWT5GUFSJ0VoWC6hLCWBNOxL5/br6hfAiYbHUe3NQyBuCcCnJjb5J28tMnLEa86FExvty/bK+wfNoxv2Dctrm6IKIGve8MWI3aSB8EAdgSY8JFtSXf7zD3GB+5DNyEv9hTIsAGv5NXsTV/UfrkNe33d4HeprcROKJsyP1OuvMIkfQffdf8009d5HEO/J7DSduQ8LVPHJe0Qz9ciIBjz3z0RIPdt8k5e2uTliFc6ly3ZqEZjNfCJfeTEptqPDvoJXMWMFyuwYa5uuBsr+CMREyp2cMuRkC52cd82OHdCBPPAONqC5GxneyeS1IbvQxQ+c21JHm6SCwIva69eLhUysWpib66vUing5S1Y8ek33Q39crbQJ6kDfXUm0nNvl//fhgCD8za8fqk0uW+TTfLSJi9HvMr1SNlaW4JJhY+bv3GH+ERchPdrplWUUC+WC0KiIHyCGEhEgoVIbIl9FUNT7py9wp5t1bac6IBVoGnVTAVj8GWhXOhnqKAHBcEUcIK+4God5Ae/p6LYDh5ra+MsLqEUDzYiwOC8EbAfKk7u2ySTvLTJyxGvflcwpasbiejxEz2IhbmJPKlbBlxsibCZVlTm7G0VTCBQym3nKz9puaJ4cYUAAzlP+7oKx9gatoPHocQsLqEUDzYiwOC8EbAfKk7u2ySTvLTJyxGvflswgdCQydu8fyQT9/MZH9Olj4pQKKQiYgbxuOKSPGpCe64t+GsyzMvaSuxU254vVxQvztYKwTSDY+yvd8y0g/0Kfid+FsuEwjxYiQCD80qgfrAYuW+TVPLSJi9HvPpdwTQ9rtMOPobBvSz+F9CSiRtEi6SLiAqPnuARWyZigpHRCbFQ5zE+8FlZzZ4IpudrjC+uJy+Yg0BxLTlRgY/l0veCJn9myhkhE92fzE8vZovvhb6aPiY4zgomByn4rdhUcUkc4+lqBBicV0P1cwXJfZuUkpc2eTnileqDJRsNvcO05Ora/GSlY201liMCDSLA4NwgKV9yidx/CeiNzZCXjYB1UPy+gklWOXTFowOi6CIRmEOAwXkOnd/OI/dt8kte2uTliFf3FUxHUGNdItAYAgzOjRHyRXfI/RfB3tAUedkAVidFTxNMaoi/8M4OvtvEY3g/jBjxOuEY4BjgGOAY6HMMLOm7H3yHaanLzCcC/SAggZf/7okAuW+Td/LSJi9HvFKBu2SjGo3VwPe+9L3kKvOJwP0QYHC+H+faY3KvSLT1S17a4uMMb1TvLNmiYFpCiPlE4EIEGJwvBP/ipsn9xQRUmicvFWA6TqZg6pg8uk4EFAEGZ0Xifr/kvk3OyUubvBzxioLpCHqsSwQaQYDBuREiLnCD3F8A+oomycsKkDorQsHUGWF0lwiUELDBWT7Kmn4NvpRWsrQnTfdRhL944TfO9gC5q07OPfCQbgqetCBf6tdJ4PmK+yAkxcLp3I4BoVCPB2H3gfS62d8Zy8t+O6zZDgJ6rSx5xHeYlhBiPhG4EAEbnEviqJR2lsPJfoTjJKBWiaa07lk+3cfOMvcVLP5e46AiyW2rtCwWjgumFvjOfUi3eKogtinZ8rKpKgs3igAFU6PE0C0isAUBG5xL4sim4crCA1ejkv0Iw6qDpA+v8fV82E2snZP5BDSazayl7biS8QirHlIP0p3AqpXdgsa9yi5z7/Gwe0K+E5AEd9g/M8nVUyuYZvbETPeRdGNsK9/z9ov9qY1f7YCKeR2Pw3s018IqkR+MzR5YXmaLMrMTBCiYOiGKbhKBOQRscLbiyNeDtOq2QFDGVQIh5Cai2oQK5cDJ6l272AobTJfrBjOmbEjlASCQcw8iVHF2/M2sIK3EORNMuIE52qiOsS18y3iEDdLRfrE/M+MX8BqdaLJjuTpWTb1tJ5aXbXVZuk0EKJja5IVeEYFNCNjgnE4cYgrT/EQUV3qmptwkBJPtdBfubrpxsso8K0+CZhIK74hM9nUiL0xeY7Vs1jATxtG9gxSBQJ5jqhU6Md0flflLS8m5tZO2heeVMbaJb7Qnrcdz68fk6dz4NZ3J+2vGqim7/8Rek/vtsGY7CFAwtcMFPSECuxGwwVkmFnsHjZNNbEQmDhEw08rDnCiayytNgvhIzk1ksLphbCWT12zZ6DmPIgI594D1VKwoMKY8EQvh0Ws0WzyydqKA8YXTc0lNxlg6Vmb5Tu3Fc+vH5KoZV0X3teD4etrrg4JpDi/mKQIUTIoEf4lAxwjYSXP072XA+xgywTzgHLsaJwuZkOxEEsrNTkaJ6NH3V7S9pK7zpbbCNFs2eMMDQMByH0UFFJGlofGpwjhkeDGzVixJNStU0rbS89CQG49+OCRjZZbv1B6cF/sj+ZXxG12ZRJwtF68BU/DQieXlkClWbgQBCqZGiKAbROAIAnlw1jv79BGYn/T0wne/KmzEATcR4WO5FatPYRUB6qHNaaINbQ7DOATBBP5MdZygCi/l2rJHMPrVupZ7EQ3Aw+MxKhUiCiIHb1HV8XyqsySe1gomw6HYVidwLCzyDQLJkWfPs/4sjV8QU8G/yQcKpl+9Os7tl14/S1b5WYElhJhPBC5EwE6aFzrCpr+OALn/OuSrGiQvq2DqqhAFU1d00VkiUEaAwbmMyx1Sz+U+X6Hyk0T+XtQdsD3Sx3N5OeIJ656FgL8WqutHoZlqCTXwz7//GT/xn9oPnvCACBCBDAEG5wyS2ySQ+zapJi9t8nLEq7V6ZFEwqSH+wnsCybsExIbYcAxwDHAMcAxwDPQ9BpZE16Jg+sTqktjUgbXkIPOJwJ0RkOuE/+6JALlvk3fy0iYvR7xaq0eq0VgNUDAdoYF1icAxBBicj+HXc21y3yZ75KVNXo54pXpnyQYF0xJCzCcCFyLA4Hwh+Bc3Te4vJqDSPHmpANNxMgVTx+TRdSKgCDA4KxL3+yX3bXJOXtrk5YhXFExH0GNdItAIAgzOjRBxgRvk/gLQVzRJXlaA1FkRCqbOCKO7RKCEAINzCZV7pJH7NnkmL23ycsQrCqYj6LEuEWgEAQbnRoi4wA1yfwHoK5okLytA6qwIBVNnhNFdIlBCgMG5hMo90sh9mzyTlzZ5OeIVBdMR9FiXCDSCAINzI0Rc4Aa5vwD0FU2SlxUgdVaEgqkzwuguESghwOBcQuUeaeS+TZ7JS5u8HPGKgukIeqxLBBpBgMG5ESIucIPcXwD6iibJywqQOitCwdQZYXSXCJQQYHAuoXKPNHLfJs/kpU1ejnhFwXQEPdbdjsB7GB+P5/j62161yRqN9IfBucnR8RWnyP1XYN7cCHnZDFnzFToVTO9xeMTdjp8/M/ueNF7+XuPz8RiH90n2zjRTExhbfZ4p/x7i2Hh8GoSz+nMQYxuc5foYxs/QX7P9N76egPuG8ff3eo68hvcPAMv9fjuseS4C5OVcPFuw1qFgmsTS8zX6RQoJ1J+aHL5Bke/PqRPGjJj4Ro92tbHV51r5RMC8h4tWs2r+7QJnuZINzjVRs2xnuUTNtlyHgLXwEK7ReasUTPP4LOVa7pdKM/9bCJCXbyH9vXb6E0xuQiyvnpiVBQ3WbuIaxtfrOWpnh/ckumSVSlcgpgD/CqsTUYQV7To/hnHQ8treOI4yAWhbYdIolk/uyicbxfoj+Fy8ewdbz6dZYSrbw0FWtl2uB+1Mq3xO7Jn+DePbnU8TKIoHPB7BlvHZ+hMwrJaPffE+w8StWTV/0Cb2ZxWPw/he1Z9xLI6hRU7V+eVfG5wFvzh+Q+3JVx2bOvTHxI/skanDblo9GoaybYcj4C51QgMJn8kjWeEs3jDMlX2Pw/M1xmvUxgEzXrXtpM+hHUkfXn5VDK7dgFVHB5b7jhz/cVfJy+8RrLFzqWePWgE18M+//xk/8Z/a1/Z9UCxMBoUJ0QVHDZgugOoEPQV2rDNNCljHHWOZyVZMnwL2lO6acOXVPx/8Z8tPk5UrI52s1Hf9ngvs4KdOHLP+KKAqDFLbK/wwPrnyiQDViRHxweOaz+DbuLW8mfyTCbzgD/YBj2s8+HTo5xr/oJ/aH+HbtId93nFsg3NJMEka4OFwwnNoVPoUxoOt53wuibGC8FTNApb9obHvbzDC+E8Lm7JwPUk5zJPjzK8UB7n+pz678pX+pz40fm65b9zZG7lHXn6P7FSP1HrYvGByd/AhyE/CSCK2C4zxTtSUwzyc1HTSHd5+ZaBkF8uDHT+h2Hc5omDCYK0+2Ulgvr7YLQf5Wr+q9pBp1xdru1bPpU944LEXEuBbBR/ko+bzWJl86+WxM/4Y/Y/CMccf+5Adw3tycqFkPEpTwH3NP5OufROnCrjnPVmXYoNzKhQmIZ4oGPErJAVfprGrY17SQyHxpWDbuQhixJ1LuXQ8wHWh9ifBbgRTzZes7eiLcGdsiA8TNxrk9Nd1R/LAB+dyp/+z3HfaiR90m7z8HqkaQ5Z61phggkA8eV6dlGBCk6KmHOa5IK12JRD7VQRTPpvsKhNwdqerK0d5eX0cosHeT/S6QpXSoitk0+QN2cZP6Ne8PTCgfZuEQbWemcwUr6R/Hugo7sAfncRk0lrlM9Stlcde2GPPYyZ0wGYULSXBWODBjJM4Kc/1x/itOAcRUufU9mX+zAbnKCRCLfE7tOlTxS+X5PCAvsq5iomsXsG2M5cKJs/vov1UMM35skcwaT8CENMB9jHN6+zcct+Z8z/sLnn5PXK7E0wqMOJ7LRKY9R2lgiBxATjeSZvJC/MmIeAmV0j3wqFgFydOKK8TcDI3iZNlATGtZqlgqtX/ew3Tn+L7CTaUn8Yk+umPpz5P/cr8gbFctF2p5/ArGcP+iW04N/4AVjWfffo0gYMftfLQFSfCgnvQVs2f+f7EcRPagH65NGij5h+mo2As4h4a2nZgg3NJ1EgaCFzn94SxHIOwcP7qOZabxM2jdEPghCDYd+Marhu1pzaS8zCe53yZEUweVxB9Dr6kzwhp0g5m9XZsue/N+9/1l7z8HrcdCqZ4V6/Oa7CKUh44AAAgAElEQVR1k58+RtFZ0wX8OPHNC6bn+NQ/jYaAXrSLE2epDfVDX9BeU35q07Sn9ac2fJ/TiUEGZlypeLgXc5M+p/7gWK7YLvoxCRjFPkye2D9nu+KPwapSZhKRvg3PiaezVh47I5NkfPSjY6OKT60/uhoJtpwPaT9X9cevtgTMkrFZ5xT7NX8sNuI/i4HlSLFBcSNPr+APFWT8wPjHvOfrXfmrVOBmwixiv2x/XVnpF459e27GaxFj6XtZJEbs+juy3Pfn/696TF5+j1kfqzHWlvtYLaEGPvHCt9hU+2W3TkxNJ8ITTf+OqWlSTCYjPe2vn7/THwbn/kbfWR6T+7OQPNcOeTkXzxasrdUjFEwtsNWCD+mKDKxEtODeZh9+pD8MzpuZ/5kKX+c+XDO42vczcJ7WEctLvgK79kZTVnhxBfY0B08zZFd6TzPboCEKpgZJoUtEYCsCNjhvrc3yPSPwWe5lorePb+XR59rJvmdcj/pueUlwFNG58maTgukoE+fVp2A6D0taIgKXIWCD82VusOELEEDurZiJkzS+h+b/WtJ/BPQN767lqxjJqoh+ZkXf66NqmmUbefHvUILwFMEU8EvfOYRy0x9JRG7myp74YVfzHqn9C2LX6bDKKH9NnnzM1rwTC+Ja0jv/WCwF0+yQZyYR6AMBG5z78JlenoOA4R4nYpmgZBXDTWDp4zM/8dqJ2E7U3rsoutRbK8o0lb8pAoYX/KOcSXAGvZRWVN6m9NkVJlM24RTzqmMAx0XOdXANbeFfwOpfveofUyR5/q/ap3HlfCiNsdBK8wcUTM1TRAeJwDICNjgvl2eJ30HAci+Tpp8EdaLVX9vjWE7Ty0Ion0TL5dQKfxUBy0uKo+AP4gFXbERQweO6jL9q2ZTTeJ7ZECedgNG/mo2/QcjV2kFR7job23GfbwkGPBJhvBjRpSj19UvB1Bdf9JYIFBGwwblYhIk/ikDKvZ+g4gRdnCzdSgCuLvhPXyRz3fS5EpjYp89t5OV+FNwD3bK8RD7UpBESYYVmEjI1weREDvBmRAgIF9dIPC+OAVNXvZp+59qhYErAyk9//6/k8j4zhQh0g4ANzt24TUdPQCDjXiY02cxaJ9108nNtymQKOwYUy0jBmYn+BN9/2YTlJcVR8IdHVcqV00vP+gpTInJECMXVqCiQPK5wXuQXfEiJmGsnseV8CIIvsYllE5tpkz2cC6eW17LXFExlXJhKBJpAYM1F3ISjdOJ0BHLuZdICMZR+hNUtD/nJdBgKj2LcJBdXlfyEGDecDisjp/fktwxaXkQwRawlL74/1uCHXVW4hRf8N3zM1jzKi+PIPQIEYdgj28Kb5bXcCwqmMi5MJQJNILDmIm7CUTpxOgL7uPeC6X26NzSoCOzjRWvzt0UEhNM1vFIwtcgefSICEwJrLmKC9ZsI7OOegunTo2EfL5/2ivaPICCcruGVgukIyqxLBD6MwJqL+MMu0PxFCJD7i4BfaJa8LADUYbZwuobXRcGkhvjrASUOxIFjgGOAY4BjgGPg98bAktZbFEzdb767hADziUDDCEhQ5r97IkDu2+SdvLTJyxGvVPwu2ahGYzVAwbQEIfOJwOcQYHD+HLatWyb3bTJEXtrk5YhXqneWbFAwLSHEfCJwIQIMzheCf3HT5P5iAirNk5cKMB0nUzB1TB5dJwKKAIOzInG/X3LfJufkpU1ejnhFwXQEPdYlAo0gwODcCBEXuEHuLwB9RZPkZQVInRXpTjBle+K4r4rC3jrTrtBmryNXBr446khKv7ya5nfGJN29NQI2OJfH9q5r59ao9tF5y737rLf70+fHtF2FfJkbvyr9zV6lYy49n/UlfDEa4/tsjaYyLS9tXZOlMSHcPMJX4OEv2+xk6r4i74XD/eZM3+/qG0ph/FVLqIGvvfQtFxF8Xt2RrHvyOHfzD7K5T/kPwzQYtE8ygO9HuPaev7+FQB6cC2N7x7XzWyj9Zm8s97VNdK/peyqQ0vPoVR6Pe9+CxfKS98/1/aprMmnX7xn4GL02wjnUCz2fjsfTJsFGTEU2f/VI9c5S/9oRTGaXbSFwGF+vZ7yDkoFgSFTy9Ve7WhnAms1fItARAquC8+ZrpyMAbuwqci8iQ4O6xkEjUmSfuOHl9zXTG0+3d1ysp6tRRrCYCRZjp8TVWPdhbl79HmlqTygyvgTO/ESMfpf6EYp3coC8lDYx9t3AeWnNfIadf4/D8zW+AufD+AYuFXfDY9hMWdrFmyr0A4+BMzMG0I/7HOsYXepxQ4IJ76D8gPkDkZRdkJCXDxy80Ptc9l0ijvn3QCAPzuWxHa+BFdfOPaDrvpeWe4yPvmsmJiYb645GREt5EEMQO/9ew/gMK/LT2CkhJ/ZViBUEkvHF1Id2p/Q4Vk3Bbk4sL4konB6XSmdiP7dekyJsdFXI29HHsG6jW20DeMQNcKVdFVUjljFjwvstaxB17rqh5LCjXQqmQFwgWRXxwkUXygtuednDaNIAEbgIgTw4491jdGrLtRNr8ahlBCz3OAF7rwPncpoIGj+xorj2x36RHuPqML7fg39kY+IovjM12aFgcsBbXurzTeAn4Iq4x+tYyumEHfipYq02xJV4HNpyyfH1lijatHwcEyqqTF3Xw/v9T/Ff6nlTK0x60b9fz+mZqwaJ9M5HBkok3ndWV5LqA3gJDOYTgdYQWBuc1187rfWQ/tQQsNxrLIylzURXEkww6cZacqQx8j0OfolhfA5vWBGZBJiuZLgqXGFSDC0viqXmwu/EyfJ8BnXcoZ3vDM8gkqSoF0SpDzI/iiCLgsq3kJ5P7QZBN53f8MdriKocCohUS6iBr7307VzyRMcl4mm58Klv+U9+ZwTLgNElzHTwhL7ygAh0h8Dq4OwC6RMer1Sune4QuK/DlnudHCMeZiJNBdM0Hl5/sTweubpPfUdUJujB/ffWQok9KZ/+UY6uUEgV44vacL95PLarHqZwFyeWl7x/sRMr57NYYTpaL5jcIzfhMRHHDuPsD6IqgsmNFZ0/xYVJSGd+/W6C6p2lHjYmmHxQwAtTl5b9UqXvTumCcxe0KzQ3gJfgYD4RaAuB9cF53bXTVu/ozRwClvutgklXiXAlXlfhY57GVYmp+jK5+uRiqq7kDyKoXqPqr1QgmXMRW/DicbAzNVaK39pmD7+Wl/n5xuEKuJXms7zPGwTTJHZQvDp7sqgA70H5NmqCKY4HqZO+4J/793spvt9VORQ6XC2hBr67whT84gERIALj6IIegbgnAhKD+a89BNrixa9i1VYS20OvTY9U7yx5V70i1QAF0xKEzCcCn0OgreD8uX7Sco4Auc8xaSGlKV6y11NaQKg/H1TvLHlOwbSEEPOJwIUINBWcL8Thjk2T+zZZJy9t8nLEq9MEkxriL74LwGOOB44BjgGOAY4BjoFfGgNLoosrTEsIMZ8IXIiABCP+uycC5L5N3slLm7wc8UpF35KNajRWA3yHaQlC5hOBzyHA4Pw5bFu3TO7bZIi8tMnLEa9U7yzZoGBaQoj5ROBCBBicLwT/4qbJ/cUEVJonLxVgOk6mYOqYPLpOBBQBBmdF4n6/5L5NzslLm7wc8YqC6Qh6rEsEGkGAwbkRIi5wg9xfAPqKJsnLCpA6K9KhYJIvpuJfHPjNCc0XZIUE9wVT+GKt2xcJP+veGVN0lwjMIGCDc/kaman+xSz5gB5cv/B1Y/e14ykv+yLxFz3srSnL/Re8n74O/cA95L7QbG9NIC8yttMx7b5s7r5qnlwT+ll112HM0414MQ2/vL503af5+fyogsD9Gj96Q/8z/io+S9YbeodJSNeBA27LRQzB139mH8vJIMMBAnV5SAQ6RwCDc9w0depUcm3s62rluttszG7nEKr/vcZBP0PstszgtRqwWTiw3C8U3pyd8977liWbIdhZwfCSXYNevHhNgnMTpuPxtC1JEFh6fWAZOYY5z7Tpy6Fo83Mk2oG60wJDug3OTih+ptrvCCa3Vw6SP4yvl24aOa04UTH/zMBlRywCJjiHXea1DAZkPJZ8PMdjzPPBVoNFCKJO2MTVohCMJX14+ZVguInx3lQEk7oqv1I/q4cFeIwIIPdWzMQJ1E+OE1c66T5f41s2y62u6uW84ypgGAfoDI8DAsiLv85QkOC1hsewQbERPMFscs1C+bnrvmjL8+unxThWYkviF/occ+56pNfKUv8bW2GKQRqXhWOwmIKyDJJJJEnACAF9qbfMJwKdIWCDcxL8TLC0wXmdYBIwEptGaCX5TkjVAq20H69fvCbjZKw3Pp2RcJG7hnuIeUF4Oj5STD0PEf/a5Jjynm/ue1G3m2/W8OLu2eGxHPJkriXB2786Up+z8BqO5bNrFK57J5gLCwZxzsx5FoBjfvNwf8XBTgVTORiHARYGow6s8mD4CsJshAh8AQEbnH0Q1Ytbbxq8G3pNqFN4jseSj+fJNeQm4Sh8tC0Xk1evEIn9wrU8K7jUb/4qApb7yJnGQ/3V8v43ltP08uSY8M5JVOFa/LW8OODCayMWa+EiXksqYsu8SbPl8l4wRTt43YstPFfnox85z66lge/9Klbyq3EO00rHja0wFYKseD0FallmVjHtB8SKxwClXjONCHSCgA3OGPzkGINeOlHiOR5Lx/EcbcZr7a+Ez2rBVL+DjYG81ADTEAHLvWIa+SpPvMitt1bGPNrRNsvlNJe/ikDKi7+eZO5KsU/PJwvhxl8t6m+lvFkFTq57WG1SK3ZFKuc5+htr3P3otwSTC/DP8Qkvvrlg8Syr67uTz/7/DgI2OCfBzwRLm+fuPMMfQ6zPmw2mawUTriS9h3CTM2v7dyg7rSeWe13JkDj4Gp2gdTgvPJIrlhEX7ZiQFAqmddRlvCh2Q3xVxFuqCSBJT2523EpArXzClbnuU1v+3af4h1JJ3cnX0qrUut7/ZqkfE0z+Yo6DYLoTNoPuN4lkr+6NgA3OafBLziWQ6iMA93I2TKYzeV5cwZ8xu0kWHgGo8JJ0nawTWoKNqX1dCfYiKdqK6YkBnmYIWO4l20+O+mjHpQwRWz8J+kl3gPSAueM1ruIHzqYCFEwZBcWEnBenQty1F7B2NWsCKM5f/npVTmrlk+s8E7t+XIRr31yjUhfGiFyf1sliH++WqNgt9buhR3JLrjKfCNwPgWJwvh8Mt+zxPu5rk+4tIfxIp/fx8hFXaPQkBCiYTgKSZojAlQgwOF+J/rVt7+OegunTrO3j5dNe0f4RBCiYjqDHukSgEQQYnBsh4gI3yP0FoK9okrysAKmzIqcJJjXE3+Q5sL4rwt/43gyxIBYcAxwDHAMcA52OgSWdx3eYlhBiPhG4EAHezV4I/sVNk/uLCag0T14qwHScrAtCS12gYFpCiPlE4EIEGJwvBP/ipsn9xQRUmicvFWA6TqZg6pg8uk4EFAEGZ0Xifr/kvk3OyUubvBzxioLpCHqsSwQaQYDBuREiLnCD3F8A+oomycsKkDorQsHUGWF0lwiUEGBwLqFyjzRy3ybP5KVNXo54RcF0BD3WJQKNIMDg3AgRF7hB7i8AfUWTW3iRr6fjl9lXmC8Umb7Wbb7gXSjGpN0IUDDtho4ViUA7CGwJzu14TU/OQIDcn4Hi+Ta+y4t8iPQ5vt71bYnO7+H9LFIw3Y9z9vgHEfhucP5BADvuErlvk7yMl2TvRVxRkv364vl7HJ6v8f16hu80xbyFvs7s47hQk9krEKBgWgESixCB1hHIgnPrDtO/0xAg96dBeaohy0u6FY3dKDcTTA98RDetHv2tcI+CaQVI+4tQMO3HjjWJQDMI2ODcjFt05AsIkPsvgLyjCcNLsrqkE+/w9oZzwTSMU5YrIO84adlZVyiYZuE5mqm8LdnhhyuXEGI+EbgQAROcL/SDTX8fAXL/fczXtGh4WRAyFExrEL2+DAXT9RzQAyJwGAETnA9bo4GeECD3bbJleZl/rJYLJngk51an7IpTtccLwqxajxmrEKBgGsfRDtZVuLEQEWgKARucm3KNznwYAXL/YYB3ms94ccIHN2ePIsjOQf59p2GIZZcfx0mdWF7aXq6zs2M3ria4ZrwW8GjqkZwdXNO3J3CwJCNFnv9qR/O/Nlh++U7rPsDuvM0CgkwiAh9EYM1F/MHmafpCBMj9heDPNL2fFy+Y8B2mmWaY9UUEVAssNdm4YHqOr/AXBJOAUnHzHsYHfMjrPURV7zqdLGFaMYYD19t1ZpdsLqHJfCJwMgL7g/PJjtDc1xEg91+HfFWD+3nBeQebyleR/ASezGlYhcenIuDxrsqh0Fa1hBr459//jJ/4T+0HT7JHaHaFyJeTgTWJqETcoB05tgIpPbcDN5RdsJm2wXMi8GkE5Drhv3siQO7b5J28tMnLEa9KeqRkrxqN1cAnxJLYVPvoVBAuLrEkmMYR/wxTH58tPY4Tc9Y2CiZYYRq9ffEtt4me8pgIfAcBGYv8d08EyH2bvJOXNnk54pVwuobXajRWAy0LJgXICyd4fJc8jpNyuWCae/9JhRPY1Mb4SwS+iMCai/iL7rCpLyJA7r8I9oamyMsGsDopqnpnyd3OBBM8kkt6hoIIj7WYTcMVJi2R/9o6eT5TiMCnEWBw/jTC7don921yQ17a5OWIVz8pmNxK0vTSt4gZff9bgIqP6sqP8qz4KQumus0jVLAuEdiPAIPzfux6r0nu22SQvLTJyxGvfkQwxcdmrkOokEYRPZCveYXHcQLkGsE01mweYYJ1icABBBicD4DXeVVy3yaB5KVNXo545fTFivdFm3okd6TDWjddJdJ0/hKBHhFgcO6RtXN8Jvfn4Hi2FfJyNqLX27upYJLHcfx2xfXDjx6chYANzsmqqn5iI1tBPad1ecy95a9F81XcwgrwOa7dworl/gtdls+quFV7xtA5tLfwsvUaKrXrXkWZnqZsuR5LtphWRsCP++r6UahULaEGvvlXcsErHhABIuAQsMG5/O6dFLRiZQ945Xf/tliyPqCv9tMdW2zeuazl/mwkcr7je6Bnt/Vb9j7LS4LV32sc9OvNbgsWitkEoVNOVe8sGaNgWkKI+UTgQgRscEYRYp3KxQqs7sBKlNTCO9bHQwKwFzQaNHSrIGvTi7K0DHphy1tfbR7W4nENAeTeipkodgRXy8l7HJ6v8Q3p+apEzrcZE/o+aM2xm6cjLw4KJ2Ti9YZ423G/hps5cOWa4qdu5hDam6fX0FJ9CqYlhJhPBC5EwAZnCZgxMOPWQDYwJw7jH0LIY5fihBgnYa1tbK64uzXl3R9Q6N2wn6CLzWpj/M0QMNwjb8pnkRM/RuKkXZtkc76tKMvcYcKEgOHFjHMpYHHNrwl8zF3jpgK18l7JZvJ+BCiY9mPHmkSgGQTmg3N00wZmt4wUVx5EZIV9F1V0pXeqNtCLZbSJx7FVe2TLaDte4MUJ3NbhWR2BGveKs/5aC4K7ClWfUxZCOd/lctY6z0b7RWgnWuEmZrqh0ZsDy9Fabkoo53yVSjFtHwIUTPtwYy0i0BQCtUkzddIE5nTloXhnKgFYAr1OrnlARpt4nLat57ZMPjloOf6uQ8Byr9+aizxZvNVmjntZCEU7oebwMN+203T+WgQML8VrK5a3HK3lJtbXI+GQNx2Kxvm/FEznY0qLRODrCJjgnC3/R3dMYE6CuOTFFaZYR47iZJpPoJnNIK6sDT0z5Wd81fL8nUfAcj+tGj6f41NXC1Nh7MzJpAyTa7GMFMz5jmNh3q+751peBO90tTYilF8Ta7iJ9T1PUAezeHwaAhRMp0FJQ0TgOgTy4GyX/8tL/+kL2oN7EfhvesymwcH9qgHMm9JssE9eFod6io4tn99Nazn+rkPAci91EjE0Cd7Ap+PE4z4McZwEqpx4ipO78IVjgIJpJy8O14h3XLW1j7U9f8NY5KbWdPjUQ7TPlaYaWPvT9RpassCXvpcQYj4RuBCBfNK80Bk2/VUE9nFPofppkvbxIl6Rm09zs9c+BdNe5FiPCDSEwP7g3FAn6MouBPZxz0l5F9gbKu3jRRqocSPpcQVJJ29cqdrgHovuQEAxX6rKFaYlhJhPBC5EYH9wvtBpNn0KAuT+FBhPN0JeTof0coOnCSY1xN/SHQDTOC44BjgGOAY4BjgGfmEMLCk3rjAtIcR8InAhAhKE+O+eCJD7NnknL23ycsQrFXtLNqrRWA1wL7klCJlPBD6HAIPz57Bt3TK5b5Mh8tImL0e8Ur2zZIOCaQkh5hOBCxFgcL4Q/IubJvcXE1BpnrxUgOk4mYKpY/LoOhFQBBicFYn7/ZL7NjknL23ycsQrCqYj6LEuEWgEAQbnRoi4wA1yfwHoK5rcwss5W5rIV9lxP8gVTrLIJgQomDbBxcJEoE0EtgTnNntAr/YiQO73IvfZet/lRb7R9Bxf71fcEuez3buldQqmW9LOTv8aAt8Nzr+GXt/9Ifdt8pfxkmyNgluXZNsFPV/jW7ekwT3/lroqbegegktlmb8ZAQqmzZCxAhFoD4EsOLfnIj36EALk/kPAHjRreUm/3m03Nc4EkxFJ0+qRbPK49I+CaQmhQ/kUTIfgY2Ui0AYCNji34RO9+A4C5P47OG9txfCSrC7pxKsbHueCaRjf0ODqDY8pmAC18w+VtyXL/KzAEkLMJwIXImCC84V+sOnvI0Duv4/5mhYNLwtChoJpDaLXl6Fgup4DekAEDiNggvNhazTQEwLkvk22LC/zj9VywfQYwztObnXKrjhVe7wgzKr1mLEKAQqmVTCxEBFoGwEbnNv2ld6diwC5PxfPs6xlvDjhg3vJRRGUC6ZhHIZYVh/d1X0TQRbLS9vLderWmFNGQHDNeC0U5SO5AihMIgKtILDmIm7FV/pxLgLk/lw8z7K2n5f0BfGzPKKdowgIp2t4pWA6ijTrE4EPIrDmIv5g8zR9IQLk/kLwZ5rez0tNMOWrSNLG4xFXqmbcYdYJCHi8q3IotFAtoQa4+W7AigdE4OsI7A/OX3eVDZ6MALk/GdCTzJGXk4BsyIzqnSWXKJiWEGI+EbgQAQbnC8G/uGlyfzEBlebJSwWYjpMpmDomj64TAUWAwVmRuN8vuW+Tc/LSJi9HvKJgOoIe6xKBRhBgcG6EiAvcIPcXgL6iSfKyAqTOilAwdUYY3SUCJQQYnEuo3CON3LfJM3lpk5cjXlEwHUGPdYlAIwgwODdCxAVukPsLQF/RJHlZAVJnRSiYOiOM7hKBEgIMziVU7pFG7tvkmby0ycsRrzoUTLLL874vmtqvqR6B7VN1a9/f+FR7tPsrCNjgnH6v5Tm+pp3OP3ENyMagYRuHFYBaHxJf+XniFQjaIpZ7m8ez6xDYwsvWa6jUK7GhE/qW67Fki2llBBTfcm5MbeizAiKY4gQwvofx8XyN03wQPS4c2UBdKHB5EgXT5RR06oANzvVxdPwaSK6/HXhZH9BXfzNEzbQNVMv9trq7SkvM5QcTF6H7Ki9/r3GId0Xjkx+zXORnTwE/7qtyKJisllAD3/twZRKw5eINETa5W32AsBrHMQ/UUZE/TNn3ODxf4wsUe2hisqP9Dm0n+wRFhT/vkxN80+fWH8MwDjjQE5vBB0kfXn6lTcViUja2P45458GvwoYx/VMHNjijCLHdXH8NlMaNFzTp2Lc2/XWWlkEvbHnrq83DWjyuIWC5r5Xam57E29GPixCL9pq9Qb2Ml5kYbce9n3/er+fOFSO5puzcdwO4v9JFjWtLjTUmmFDozGwyKANUBUUmmJIum7Je5ATRgXlu0KefordBfxzzIBNaQ1ujHdhy0URBY/NGLOt8wAtipn0jKIMXPPgxBGxwlvEA18iea6A6bvKxbYJ98fqwYJvyblzr9eQFGSdji9fSGXIvN0cRv8iVjy3TmHAF1kzKng+dJOTm0Nx8xYaWXLxlPvLi47eOc4EjcuPOXk94rO2v3zD/YOxfg6SZY9ZUYJm1COi1sFS+McGUigU4D8vFU3CYmyyqZVMBEs9tsJ9gc5METFDTZBXiSa2dbFKK7biVp2DAtxOCYXpBzLbvLz67grZEN/N7Q2A+OMfeZOO3NjZdkJYxDdeWM2MDvSShTTyOrdojW0bHp79+4iRh6/CsjoDhHmOKxgkXH3CyFlse94i3nKdcS7mc7xCH6i4xZxztJq2zMdpeQ7m42rKql/NFMs5D4AcEEwymNDBowJjwMoF6tqwEDwww8dzYUB6SdjTZ/c61g8HNFY7tbBZMIAxN++FELiSZlLBfIZMHnSNgJk2zamM7Zsbv3NgM1dJxkwdktInHwURyYMvAmE/K8XQdAjXuFWf9tdZy3MtCKOe7XM5a51lBMM3EaMvRWm5ylIWbKILzfKYcQ+AHBJMMrunOKBEuMgjxhXAzKGfLpgMWztNJxuEPPqR8zLWT2HL+BkGT2MSyiU3zuC5tPzlnsEsA+ZHT2qSZdm/9NWBrxnGTT6CZzTCGrQ09M+VnxJ2W5+88ApZ7vYGMPFm81RbEtCkpcqxl5Dfa0dRyOc3lryJgeUniuRaafi1HUhaED8b+pF48FZ6gTszg0YkIdCqY7OMvVNQy8LRT7iVqUPV2UKYvpw7uRW//13ZpMLHnEjBiG29PhxvUkA6TxpJPauv5eo+vJ6wAmcclsFyeCSb3XGR84nsrU/umbclPHvOdOJZo6kIEZAzFfz7g6riSX6V97TUwN25C3mQ0tVm8PqJz5hFe6fEDFOXhCgQs9+6t7PHxfMb3N4sT7tpJmYJpBQXFIhkvC3NEnMf8fDPAPKPXb7EhSTRzhZ+Hor1qLWZsREBj6lI1jMamrBr43l/JmeZ5QgSIQPq+BBG5FQLZxJy9n+RXnTRW+5ummUnZTezxBi0VyFxhWje8cl7W1eNNxFqcvl9Or6GllimYlhBiPhG4EIH9wflCp9n0KQjs494Lpml9/BQ/aMQisI8XsVHjRtLxKYYew1MJ6wLPTkaAgulkQGmOCFyBwP7gfIW3bPNMBPZxX5uUz2/pwkQAAADUSURBVPTs3rb28XJvzFrvPQVT6wzRPyKwAgEG5xUg/WgRct8mseSlTV6OeHWaYFJD/NVlUv5yLHAMcAxwDHAMcAz82hhYEl2L7zD9GiDsDy9yjgGOAY4BjgGOAY6BdAzsFkxLFZlPBIgAESACRIAIEIG7IFBdYboLAOwnESACRIAIEAEiQASWEKBgWkKI+USACBABIkAEiMDtEaBguv0QIABEgAgQASJABIjAEgIUTEsIMZ8IEAEiQASIABG4PQIUTLcfAgSACBABIkAEiAARWELg/wNTzg5ELHZmRgAAAABJRU5ErkJggg==;" vertex="1" parent="1">
          <mxGeometry x="137.5" y="1160" width="588" height="699" as="geometry" />
        </mxCell>
        <mxCell id="Vu9pHZqkGJGlEkoihoIZ-23" value="" style="outlineConnect=0;dashed=0;verticalLabelPosition=bottom;verticalAlign=top;align=center;html=1;shape=mxgraph.aws3.ec2;fillColor=#F58534;gradientColor=none;" vertex="1" parent="1">
          <mxGeometry x="194.02" y="622.38" width="29" height="32.88" as="geometry" />
        </mxCell>
        <mxCell id="Vu9pHZqkGJGlEkoihoIZ-24" value="" style="outlineConnect=0;dashed=0;verticalLabelPosition=bottom;verticalAlign=top;align=center;html=1;shape=mxgraph.aws3.ec2;fillColor=#F58534;gradientColor=none;" vertex="1" parent="1">
          <mxGeometry x="245.02" y="621.38" width="28" height="33.88" as="geometry" />
        </mxCell>
        <mxCell id="Vu9pHZqkGJGlEkoihoIZ-25" value="" style="outlineConnect=0;dashed=0;verticalLabelPosition=bottom;verticalAlign=top;align=center;html=1;shape=mxgraph.aws3.ec2;fillColor=#F58534;gradientColor=none;" vertex="1" parent="1">
          <mxGeometry x="193.02" y="771.26" width="30" height="34" as="geometry" />
        </mxCell>
        <mxCell id="Vu9pHZqkGJGlEkoihoIZ-26" value="" style="outlineConnect=0;dashed=0;verticalLabelPosition=bottom;verticalAlign=top;align=center;html=1;shape=mxgraph.aws3.ec2;fillColor=#F58534;gradientColor=none;" vertex="1" parent="1">
          <mxGeometry x="243.02" y="771.51" width="30" height="33.75" as="geometry" />
        </mxCell>
        <mxCell id="Vu9pHZqkGJGlEkoihoIZ-29" value="" style="shape=image;verticalLabelPosition=bottom;labelBackgroundColor=default;verticalAlign=top;aspect=fixed;imageAspect=0;image=data:image/png,iVBORw0KGgoAAAANSUhEUgAAAGAAAABcCAYAAACRILDuAAAVdElEQVR4Ae1cd1BV17fOH5nJJJMyk8lMZjKTzGTSqyZ5icaS2Gv02WLsQlBUEMECRgUL2LD8jBoVrFFjSSwoUi+XfkGkF6X3Lr1JE/nefMvf8REExQnnXuKwZ47ncs4+e++zvtX2Wuv4DHqbQSnwjEFn750cvQAYmAl6AegFwMAUMPD0PV4CWluBlpZWNDW0oL62GXXVTaitapIz/+b1lrv3wH7/xtYjAWhtbUVzYwvu1DajsrQB+Zk1SIosQ4RvAYKv5SDwSracw7UFSAwvQV5aNSpLGnCnphlNjS24d+/fg0aPA6D1XivqapoQF1yEs7vjsdEoAIuGuGFWHxfM/NQVsz5zx6zPPOQ889NrmNXnChYMcoXtTF+c2BKDcG0+KkrqRSr+DRLRYwAg5+akVOGycxLWz/bD0pFa/NzfHaaD3bBqkgbbFgfDyTYSpxzjcXZ3Ak47xsHZLgqOZjrYTPWB6XduMPrGDUuGaGE70x/n9iQgJboUjfV3ezQOBgeA6oIq5NqJVGxZGALL0b7C8Y7m1/Hn/kRRNQlht5FxswJ56dUoyqnF7dw6OednVCPzVgVuhZfgumceXA4nY4/VDViM8YLFKB/YG+nw12+3kHmzAlRrPbEZFID6umZE+hfgyMZY2Ez2h9U4DfZbR8HzTDpI9Nv5dcLBj6Md79NmVNyuR3J0KXz+zICTbQysJ/vBarwPfrOJQqhHrhhxqrie1AwCAIlQU9mIwKvZ2LYoFFZjfeFgHAIX5ySkxZehuemfeTXNjfeQlVgJ91Np2G52HctGa7F+dhB8/sxEWeGdHmUf9A7AvZZWVJU1wN8lC9aTtbAY6YP9NpEiCQ13uldfU/8nRpTgyKYYLBvph6UjvAWU4ry6HgOCXgGgqqipaITOPQemQzxgMsAdpxzjkJtapZ5WaAXKi+7g8qFELBzojcVDPeF+Og1lRfU9Yu+gVwAa61sQFVAE8xGemPbBZVw8mIjSwjvqEb/NyJQuz9OpWDjIG2YjvKA5n9EjPCS9AUC9T29lq2kIjPt54Y+d8eLNcJf7qHa3+Z6orKykSsTqihDinoNAl0wEuWaJz58UWYKi7BoxsI8ah14QN2oE3XKMHzbO0yHUM+9Rj+jlnt4AyE+vxh87bmLpcC3+Y3kDRdm1IHE7arQTOSmV8L2QiaMO0dhsGow10/1hMykAK34IwPKxflg+3h+rJgZg9ZRA2M0OxE7LUJzfe1NsSUVpvYQvOhq7pKBOvC7LMVrxjrKTKjvqprdregGAqoceiM1UP6z5MQDRQUUdhgtoNDNulos3tHtZOGwmc0PmiRUTvGFvFIT91pE4ah+PE1sScHxzvLiauyzCZONlMdoD5iO8sHFuCJw3RCPINQfFuXUgmG0b7VDC9dvYvjhUXNRLh5IkntS2jz5/6wUAuoT7V0dh2RgfnNmdgPbeDolSXlyPEPdc7LeJgNkwTywfr8UO8zBRVV5n0sRw3/DJww1tPuSsycMNTR7CvPIQ6JKFq0eTcXhDDDbNC4XZcE9xO8/9egtJUaVobidpDOK5/Z6KVZPo/oYiI6FCnzT/21yqA9BytxVef6Rh9RR/bDUNQ3JU6d8WwD/qapqhc8vFhrlBWDDQA/bGOlw5nIT4kGKkxZcjPvQ2Aq5kw8U5BScdE3DUPhbHN8fh3J5b8DiVjjBNPpKjy8T3D9Pk4ah9NKwn+WPpSA1ObI1D+e36h+bkzvrg2mhYjNSKXTBUAE91AOjz77MOF1Vydk+CRCvbUyMntQrO62Nh0t8Le1eGiVvKkMMNTT4Ob4jCyokaGPd3xYIBXlgyxBfmQ7UwG6rFosEa/PytO0yHuGGTUSCuHk2RkEVFaQNcjydjxQRfbDa5jvSE8vZTigdET8h8JKUlEDVVTR2qxYce7OYLqgOQEFoMuxk62BuFSDi5o/VTRR1aF4NV/xsoaqWiuB7bFgXB6Gs3zPzsqqiUXRY6uBxOxHWvXMQGF4qx1V7IwImtMVg30w/z/scVMz9xw6Kh7ogLKZZxNpuEwOHnUNlddzRvUmQpdphfh+lgL8SFFBnEFqgOAMMLS0d6wck2StzFjgghAKyNgfWkQIR65Qrnmw3xxZof/eF6PAXZyVWoqWxCQ91dkaDmphaJ/dBo07VkeCHSvxBbF+owu487fC9kI9g1G1tMQh8JQGlBHS4eTILR1x44vydBEj0drU/Na6oCQP2/zyYc5iM8cNkp8SHjq7xYViL18X8B8MyFzi0bCwf64Jh9rKiUztxV5Xnq75KCOzj7nwTM7uMBn/OZCLqahS0LHg0AnQHanp8HXIODSRAqShqUIfV2Vg0Aeja1lU2wm+OPlRO94X85C51FIjsEYIAG9GKKcmu7RIyq0gZcdkrCnL4e0HQRAAJ360YJrMZ7YckwNxRk1DzktnZp8n/QSTUA+HKFWbVYMVGLDXMDEOlX0OkyuwMApi4vHUp8IgC4oMxblbA3DsTMzy6JJ8VIrD6bagBQ/aTFlcFqrBY7l14XTuvsxQwJAJM89LymvncR0YFFnarJztb+T6+rCMA9JFwvhuVoP9nBpsaWdbpWQwJQmFWDI+ujMO19F4R554lRz67OQ3hxHFIrsztdc3fdUBWAOF2RAHDglyikxz/siysvYUgAGJM6bh+NaR9cQahnrpS7rApwwKsH+2C29wpliaqdVQSgFWmxVEH+2GcdgZ4sAU52kZj6vou4v3Rr65rrUd5QidrmOtUIrwysGgA0wsW5tVgxwQ+OS0IlAKZM2v5sSAlgMmi3ZQgmv3cBscFPkQ1g/L2qrBE2U1gm4ifc1Z7wyt+GBCD9ZgXs5vhh1heXkRpXLvloZV36OKsmAdwHMAxtbxIIq/GeUqnQWfLFUACwpJFhC/NRHrAY64nC7Fq9x4NUA4DcQzXkvCFKdsJMlrCms6NmKABYZ+p/KRvG/a5hp0WolEF2tD41r6kKABfufSYNy8dpxRXNTu44+2QoAOiC/rEzAcb9POF6NBl11c1q0rrDsVUHIDWuDJvmh8J2RpAEyKia2jdDAEAbFRtcjE3zg7BkmDfSDKD/SQfVAWDA6/CGaCwZ6oGjDjG4U/dw7Y8hAKC7yUjrwsFu2GqqAyOsHTFHe2bp7r9VB4ABuKCrObCbGYwNc0IQHVD40DuoAYCEox8RDWUQbrdFOKzG+sH7XLpBiK8XCeAkTI4fd4iTyrRDtpFSnNWW2+4DEC1VDkFXs+F/ORMLvn2yaGjbYJzn6XT4XcyUcseOEjJV5Y04t/cmlo3RYOfSsC5HXB/inG64oLoEcI2M51/3ysOm+cFYPt5XiEMXUGlKQmbBAG8pN9+2WIe5fT1w/tdE2cwp/R51VsLRc/t6wsFEh62LgmE+3PuhhAxdYZ17LmxnB8Jmit9997jNWh41hxr39AIAF84KuCtHUmE5xheb5ukkOc/Pi9jofzPBbjbMG2bD3LGEx1BveJ7OkIrnrrw4XdyAS9ky/pJhHlgs43jiwJoosIxdaUzy/8cyHFbjtDixJa7LACvPd/dZbwBw4fdzv1FYOMAbe1eGi+dBEGgQY4KLcGZ3PE5uj5WDCXx6JtzMdaWxPD03pQrn9yXgpGMsft8WK+OFeOTK+KwPYmjkyIYYCRDusYp4ZHikK3N2Rx+9AsBkR3JUmSRoZn12Dc7royVKSuKp2agCb+fV4eS2WJgO8paaoTDvfL2HHTp6R70CwAWQ41Niy7DiBw34jRe/aEmKKO00XdnRop/kGnfj+Rk1OLQuAjM/8YDVWA1I/PbFYU8yZnf21TsA92NEd0USHIyDpLZnw5xgcQWryxu7890kJ80vY7aY6GDSX4Nfpvoh0q9QQiI95ZMlvQNAChMESgLrcpztoiVtyVLEg+siEa69n5XqLIHfFYRoU/iV5YktsbCe5CvGnZIWH1osCZd/MnZX5n+SPgYBQFkgdTNLBK8eScEmo2Cp298wRyc7ZlZRsKKturwBLe1qO5XnlTNdy9rqZqmo5scfJx3jZA9gOcYHa3/yx/m9iUiJKTXYbldZZ0dngwKgLIiFuczHHnOIhd0sHUy/vyZFWcykMYqqOZ8u95niTIooQUpUqUgPa0dv+ORDezETfx1IxMF10Vg3wx9mIzywZnoAnOyi5aNuGuCe2noEACQOqyhY4cYKaaf1Edg4LxjLx/mCPv3SUe5YPdVHykd2WVzHHqsw8LzZJAhrpmsllr94qLvsAWxnBuLg2gj4XcpEQWZNj/kWrDMG6DEAKAukfaC7mpVUIR9oHNscjc0Lg7BykgbmI71kd2s+QgM5Rnph+URvbDQmt0fC849UpMeX3f8ctW2sQxm8B557HADtaSQGu7FFkiUFmdWyb0iNKRVC56VXyU6ZNaI9xatpv/7H/d3jAeALEAT681RTNNzKwXgSr/9LmL1DLP4VAHS48qfkYi8ABgZSNQDu3r2L8PBwXLx4EdnZjy/xq62tRVhYGH777TeDkaS6uhonT55EUFAQ6usf/qxJjYWpBkBDQwP27t2LH3/8EQEBAY9de2FhIXbv3o133nnnsX3V6pCbm4vBgwdj06ZNKCvrvJa1O+fXGwDkKL5gQkICkpKSEBERIRJSUlKCxsZGxMXFwcrKCm+++ab8bmq6X8JC6aEk8YiPj5e+9Hg4XkpKivS9efOmjFtVVYWoqCikpaVJXz7DPm25meMmJyc/GJP3labRaPDFF19g0aJFMp5yXc2z3gAg8VatWoVPPvkEo0ePxmuvvYbnnnsOBw4cEII5OjrihRdekGtffvkl8vLyUFdXhyVLluCll17CK6+8gk8//VQI29zcLOdx48bh/fffx7fffot+/frB3d0dL7/8skgdCfniiy9i/PjxArZCxMTERIwZM0bGY1/+5jxsffv2xbPPPovnn38e69atUx5R9axXAEjMjz76COfPnwc5f/78+TAxMYGfnx+ysrLg4OCAt99+G+Tke/fuwdzcHEZGRrh69aoQccWKFUJoPktACcDEiRPh4+OD/Pz8BwDwOXL/mTNnMHv2bKxdu/YBEQkWJY325tq1a5g3b57Mww6UJN7/5ZdfZLwHD6n4Q68ALF68WF6wsrJSNk779u3DnDlz4OLigvY2oLi4GCNGjMCOHTtQU1MD2hTaEnItCR4aGioAmJqaIicnBzTiigTQkJaXlwtoJDaJTKmhmhs4cKA4BhyvqKgIXAMliwBmZmY+vTaAHEsAvvvuuwf8dOzYMeFQekrtAaCtIDd+9dVXmDFjhhxjx44VFUXAgoODBQBy++3bt/8GAO8TEM5pbW0tz5Lg5PgPP/wQQ4YMkWtTp04ViXrrrbeQkZEhx1NrhJ8UABrqAQMGYMKECaKaqJ54bNu27YERpQrqKgA09F5eXvj8889FrSnj8UwpoFRSDfYC8F83lCqEBKZLSOkgAdPT08VPpw2Ijo5+IgngvoTeEY3177//LnaGfn9kZKSoJIrlU+2GPk4C6HcfOnQIb7zxBgIDA0Xnk9uNjY3x66+/ivqwt7fHN998Iy4i3dgnkQBF71GdURWePn0aZ8+ehZmZGSZPniy3qcpGjRoF2hWOr7jCyrNqnFUzwuTYo0ePysvQYNL9W7169YOX5cucO3cOS5cuFePJv/39/QUAgqDsntesWfPgWv/+/YUwNKgcjwacHk5paam4kr6+vuKWenp6yt/sQxVD70tplKaffvrpwZgkfkHB/39CS6P9wQcfYOXKleKpKc+pdVYNAC6YYk8uokvJg4QjMEpraWmR+zyzsQ83TTyU8DKfUa7RkLKP0pdj877Sl+OwT9vxeL8tJ7Mv16CMyd/K8xyXfTlG23FlQpX+URUAldb8VA3bC4CB4ewFoBcAA1PAwNP3SkAvAH+nAL0PbrgYSlA8nr/3eLr+6nESQOI/88wzEjGtqDDc/2aoL5h7AdAXpTuZp9sB4CYmJCREki5MvHAnynCCs7OzxF+Y/OD9H3744UEfOzs7yWQxAsoIJSWgT58+8PDwwJ07dyTyyZABx2OChVFN5gwY89+/f79IC9+PYzM4x+gqwwo8mHtgSENpDDNwHB7cSZ84cULU3V9//SVxp9TUVOnK0AiDd0yrqtm6HYBbt25JeIC5YC6eSZR3331Xzgyi8f60adOwfPly7NmzR66TqDt37nwQkiYATNQw4MYwhq2trSRv2J/PMQbEcDTTj8uWLROic9fNkDIzYZaWlpJciYmJwfbt27F161YBh7EmEn3jxo2SZ2BcaMqUKZIiZTqSoW8lf80gHXMRzNip2boVAG7rL1y4gOHDh8PNzU229cxmMYBGIAgAibR+/XqQ07jtZ9CL8RhyOFt7G0ACUIIYOGN/hqlJKHI+c7uMls6dO1eSK8ysLVy4UHIMBI6SQmJ7e3uLJDH/QK5m7IiSRQJzbTdu3JAk/KBBgySLxtD0pUuXJB7E+dRs3QoAF06uZ8ydsXV6Mcw0Ud0oADAGwyCZq6srrly5ImUojMF3BgDTg+R4lquwP9ULkzrMLzPCShVCtUOJ4O/Lly8LIORkgkdpYGCPa2GIm9k0jsODyXcCQCZgY2CP6orpSkoLn1W76RUAphnJtUpumAn69957TxLknQFgYWGBV199VfoxdagcDE1TikhQ/j548KDYGxKPEVbaDybW+ZuNwFM6v/76a4l2chxGXdsCQNBsbGxEulgiQ7Wodut2AKgaaECpahiVZJKDOp4SwGsMQb/++utiC6hSyMXTp0/vVAKoQggO+ymtbbSS0sQ5qaZoW5g/PnXqlHAypYdxfzYa5I8//lhyC5RKSgSfawsA+3Ec2glKD6VK7datAPClyJHU6YcPH5awLr0QlpkQAFYdkFPbAsByFJaWdCYBJCAJwn5sJD7H27VrlyTjaXw5J9WUAgDzAQSVkqbT6eQ5xvxZ3kKuJgD0xGiE2wPAnAWdBj7Lfmq3bgWAi2WlAV1OVrjRqNHtY4KDAPCFyFV8aR68v2XLFiEekySsSmA9EO+xRodlJTSCTk5OUiFB3f/9999jwYIF4oISDDaqDtoZqhu6olRNzCVTh1MC2ei2Up3RgDMtSf3Pg8zCeZTGhD5LWQgwJVTt1u0AkCNZJnL8+HE5KOasQqBxI8G4u6V+psFkH5aKkIDMZtGI0zuh10I1Qomh7qYRpTfF/szn0v1UiqlIIIKu1WoFFM7PMSgV3CcoIDHEwfGoAjkO79NecG7aJaXR2DMLR7dUH63bAaCf37bigIVVTPPxRXt6I/Fpr+jJMXWpj9btACi6Vanl4VnJ0erjhf7JHFRZTNjrw/gq6+x2AJSBe89do0AvAF2jk2q9egFQjbRdG7gXgK7RSbVevQCoRtquDdwLQNfopFqvXgBUI23XBv4/JXmk3eN6MkAAAAAASUVORK5CYII=;" vertex="1" parent="1">
          <mxGeometry x="311.12" y="405.26" width="52.17" height="50" as="geometry" />
        </mxCell>
        <mxCell id="Vu9pHZqkGJGlEkoihoIZ-30" value="" style="shape=image;verticalLabelPosition=bottom;labelBackgroundColor=default;verticalAlign=top;aspect=fixed;imageAspect=0;image=data:image/png,iVBORw0KGgoAAAANSUhEUgAAAGgAAABgCAYAAADxTzfMAAAdFklEQVR4Ae1cB3BU19X2ZJJJmySTSZxMMpmUmST+x8YN12CM6MLYgE0XGDBFqFAkBEgICUTvXXRMM70JUF3tqvfee+8SQgIJISEE4vvnO/jJy7Jq2GiXRHfmacu775bznX7u6iX0NqOmwEtGvbrexaEXICNngl6AegEycgoY+fJeSAl61PoILc0P0XD7PmoqG1FV0oDKojvyWlvZKN/fv/cQjx4ZOfW7sLwXAiAS+kFLK27daEJB+i0khVUi+HoxPE/k4NK+TJzdkY7TW9Pk9dLeTPk+6FoREkMrkZ92C7VVTQLoiwiYUQPU2voI9xof4EbpXaTHVMPzeA522UVh6VgNzAd4YOaH7jDv7wOrgRpYD/KTV36e9R8PmH/sjiVj1NhhGwmPYzlIjbyBquIGNN19AErgi9KMFqCHD1pRV3MPiSGV2O8UizkfuWPa296Y1tcD1sN8sHpmEA67xOLy/nSoTufC70IeVKdzcGV/Oo6sisO62cGYP9wH0/p64ss3vDHnYw+4OkQjLqACdTXN4PgvQjNKgB4+fISM2GoccI7D3AE+mNHXB/OGeuHY2gREq8tQXngHDXX3Rbpoa2iPlIufKXV36+6LxMQHluPEhiQs+MQHM971hqWJrwCVFlX1QkiS0QF05/Z9eJ7Ihsu0MCHmsgn+cDuYhZzkWtysaERTQ4twf6f25BHw8MEj3LvbgtrKJuQk1eLa4WysmBokoDtPDsG1I5lovNNi1EAZDUBUOdXld3F6ayqWjAnAktEB+Hp1EuIDK3CzvBGUqvZa68NH3wLXfh+CRYATgitxfEMyFo/2x6KRATixMQnlBXfECWlvfEN+bxQAtdxvRWlePU5sSobVIB84m4Xg6qEsFGbcBu/pa60PWlFfcw9Z8TfhezYPp7YmQ3U2T1Tj7Zv32gWUqrA4p04ch5VmoZjzkTdObEhGQTrneqhvKoN+Z3CAKDnk4PO70zHjPQ8smxAI33P5Et/oo0zT3RaU5d9BfFAFrn+djd2LY2E70hdz+rvDZqQKO2yjcfVwFuICygV0em1PtUdA3c17CLxcAMfxwbA0UeHMtlQUZ9e1C+xTY/TQFwYHqKayCV7f5MJqoArzhvoi+FoR7txqbts+bQ2liB4dOT9CVYqTG1PgNCkAFibesBnhD5fpIdjrGI1V04Pls+VAHywb74dj65MQ4VOKoqzboFRRerRtF52JcK8S2H8ehIXDNbh6KFvUYNvkRvDGoADdb36IcO8SOIwLlDjG/2K+2BLSpQ2Y2mbkp9+G96lcca1n9fMUb2zBcA2220YgyK1ApI2BLG1MyPVi7F4ShYUj1Jj5ng9mvOcOl2mBcD+WjdyUWgGaQEHLXGnO5WHxZ0FYNi4I/pcKjcoeGRQg2o/ddrGwNPHDiU1JT6gXgsfgcp9jDCwGemHq694we/Malk8OwNXDmchPvyXuNIGhJFBN0sNTPhdl1cH9aBaczAJg9vo1THndC5aDvOFqHy2OwgMt20YJPbM9FdaD1dhsFY3MhJtGIDuPl2AwgO7W38dF13TMH6rChrnhYi+0qVKaW4fj61Nh/pGv2JavVyciWlMu9ocq8M7tZuSl3hJXec2sYCww9cXa2SFwO5iB7KQa0F1nn4qiBsQGlOPYukTYjVZjdj9v7HNMQFlBvfZ0KMquw3bbKFgP8cE3W5Jxr8k4HAaDAZQSXoUN5pFwGBsk3peut8Ycmqt9AhaaBuDqoUyRkLv1LSjPr0fI9SJ8vSYBLtNDxeZYDPSE/Tg/WA/2gs0IP7hMC8Vhl3gEXS1EWX49yAwMbt0OZcJulD82W0WhIOPWEwBRYv0vFsBpUjBcvgwX6X2ig4E+GASgluZWnN+VhkUjNXB1iBPi6+4/L7UWrkvj4TA2BLF+ZaivbYbP6Vzsc4yH48RAzB+uwrIJATjglAjPkzmIUpfC62QODjknwmlS0OP74wPhah8Hj+PZqK1qRKSqBCunhmKTZZQkXXXnLMurl9hr/jA1Tm1NwcOH+l183eee52eDAES1s8kyEktG+wlRaTd0mwLQsvGhiNaUSryzeJQ/rAarsGp6qHhoAW4F4qExvUOj39z0AMVZdWAm+8TGZKyZGQYLEx9YD/EFJTbMswirprUPEMfxu1QAu1FqOE8JFqeDQbAhm0EAoue2ZEwgts2PRkZMtd79KwA5jg9FhKoEYZ4lmP2BGputIxGjKRNXXNtl1h6E3zNXlxBSgc3W4Zj8qieCrhYh6GoBVk8Pa1eCOEZWwk3sXBQNq4FqmYeqz5CtxwEi8b7ZnALLgd44vTVFajz6CKALUIhHEWZ94IuLrhlSfuAztFsEornpyfhGGY91oIt70zH5NU8EuRWJS94ZQDVVjXA7lIXZ//HBqc3JkqtTxjPEa88C9G3hbf3cUMlO+57Lk4Smvo0/BigBjuPDRIIeA6TGhT0EqAGsFdGRYHmBJQl9alIAcu0eQIyRKOGzP3LH6umBYvv0ra+nvutRgEjU29X3YDdGDYfxGjHs2gGj9qY7A4iemeZiASwHqWA32g+JIRW4p5PWeRaAKOFpUdVYPEYNqyFeqCxqgCHtUI8CxLwb813zh/tivXkoUiKqtDF54j29tpTwakT4lMtZAzoWfheLJBsgAemDVjAY/WZLCmZ84A7HiQGI1pRJHUgZ6FkA4rN5KbVYOysYU952Q25ybbsJW2We5/naowBRDWXEVWPeEA122cUgO7FGsgAVRXeQHluNzLjvrrSYG3KmICG4AqmRVUiJrJIEaFJ4pZS/2ZcAq87mwn6cBmZvXMOamSGI8Clpy+U9K0DM3e20jcSkPm5Iibwh3uHzBKGjsXsUIKbzeeBj3mA/HFgeLzakuqwR6nOF2L4gHtsXxnx32cRgp20sdi2KxQ6bGLnkve13fXbYxmLLvCjYjlRhwv9dweQ+17FnSSyyE2pkz88KUGluPfY7xsp48cEVco6hIyI+z3s9D1BoJawJkFO8BIsVhQ24digPThMjsXxC6HfXxFA4TQqF86RQOPH9xFA4Tw6T75ZPfNyP3zETMae/B8a9cglmfdyx2SoSKeE3vjdAB5Z/C1BgOVjiMFTrUYCYoEyPuSEStGdpLHKTa8SwM4JPDq8UNUZVxis5okqkLSm0Qu7J59DKx/0ivu0TXolAtwKsmRmMKW96wG6UBv6XC1Bfe+97AUQ7uXtxFCb3uSoBbnOjnppSDyHWowDRSSjKuI35Q9XYZBGOtKjHnK5vr/TIeAaOdoYl71tVTYj1LwfBZNxD748lcrdDGTB74yosTDwR5lkscZEynqi4PY/d7MBv4yBmIdpL9SjP5afewgbzEEx+/bLYSSlPKDd7+LVHAaK7ygKd7We+cJzohxi/sna3W1F4Byc3pWPllAgEXSkStWVrGoyTG1NBG8Fstfp8ISwGqGA92EfybMxea59544nTg85xmPTqdUT5lsH/cj5WTAnGFusoFGfdbnfujNibsP/27F1ZwZ0nyiDtPvScbvQoQIwxmO9aOysEC0y9obmQjwftnE+rqWrCiY0psB6iwqW96VI2sB6sgrNZoIBFj5BeIEvVAVcKpbTAOEtpfE8X2WGsBrP7eUhpQnUmF0vG+GG7TZS47kpf7VdKS6SqFHNNPOBsFiBxG9dtqNajAHGT3OyxtYnC9ed2pkmFU9/meZbA7XAmrAZ5Yd+yGPGkNlmFS4rI80SuuNI8MsVCXV1tMx7pULH+VrNUR2d/6I1NlmGoLruLC3vSsMDUBwdXxsv5bX3z3qpugvvRHMz+jzeOrkkASxyGbD0OEDcb6FYIu8/8sWtRDHKSHrvEukSgOuT5BGaWnSYHCAi+Z3MlM711fqTYLx1M2oag9FC6di6Kwsz3veB3kWXxJuyxjxaAKJH6UkMcgEHqXoc4WA7wRahHMZqZKTdgMwhA9JLWzY7AsvEBHao5nsfebB0Bq0EqJIdXoTSvDpssI2DziQZndqShqvTuU6QjaDzLfeVAFhYMU8tBRfajuls5NRjLJwYi1L34qef4Bb1MFgPtv/CDw7gASfN0dB5P7yA/8JcGAYgp/OMbkzBvmAoHVsTjZmWj3m1RLfHXC+b9fXF0bSKotvwu5mP5hBCJf3h2rqrkrmScWQtqvMPjvnfheTxXjlMtGR0MvwsFct7N41iWHFTcvywBBWlPVlOVyTnfyU3JsDDxwpFV8ZKQVe4Z6tUgAHGzrJKunh4ugWeIe/ET3pdCjJaWVsQFVmDhCBXMB3jJ8V+eR7iyPwMLTTWwNFFjp10kwryKkRZZhTCPYuxZGg3rQRosGOaPM9tTREXxZysuXwbBapC3/DRFN6nK+agWeQTLZWooHCeEgme6jaEZDCC6yae2pgq3bpkXAcYs+lplcQNOb0vBlD7e2LM0Bsw88IwcSxX2Y/0xuY87pvf1wbR3PDGtrzemvOGOpV/4CxCUODoSfN68nxq7F8dJGkif7WIJw9UhBnMHeOGwS4JBswfadDAYQHQCksOqJCZh8pSGW9tNVhbJ/B3PszmbBWNuf7UcWizMvC11GjoYvmfzwRM/rvYxOLomEarTeciMrxEQGcheO5wFi4/VWPp5ACJVZXrzanQY3A5mYoGpGmtmhUl9STueUtZiiFeDAcTNshpKD8v+i0AsHROECK8SyW7rEqKxoQXR6nI4jg+E7YgAOQhCD6u8oB6Ml3iuuyjztmQZ+JlSxyD4yOoE2I0MxIJhvlCdyRMp1Sc9VG3M8zGvxx+JcV3G0gwKEInAjAGrpFaD1FhhxhM85XJMSptA5Oamhgfidm+2jILNCA2cJwfj0IpEXD6YAfW5PDnswVcerTqyOgmrZ4TKyR7aFB4trql4+hcSDJopxetmRcD2E3+c2Zb21Pk87XUY4r3BAWJ+jiqLP9aa8a6XnPaJUj0+ZqXL7fT+eGj+2LokuHzJM3FqWA/1gu2nKtiNUsH2Ux9YD/PCQlNfAfCAU5zk5yiB2iqL48qhkuBKbLKIhJWJGvud4iR2MrRbrcsEBgeIC+LhDxbJti2MxJx+KqyfFS6ncHjWWl9AyV8mJIdW4sqBDOxdFo0Nc0Pk3PaGuaHYYx+FC65p4iXyF9+6jeNx3HCvUqyfHY6v3lNhh00UshNv9v78RJdY2p/5AysadbrJlgM0sPvUH+d3p6Ekp17skj4HghltOhuPY6AWOa7L3J6u5HEePs9+JTl1uHwgA7Yj/WDeT4PtNhESAOtjBO31Geq9UUiQsnkSlq4xj0rZmPph2tueWD4pEL5nclFf06zXy1Oebe/wiXKfUqe5kIeV04Iw9S13WA5U4dyOZDTU3zfooRBlfe29GhVAXCQ5nQdG6CyINJn4wMpEg+WTAnBmRwp4RqG6vBH3O/k1HNM2/CcXLASe25UC56lB8jN9ngLaZhOBKN9SccW1bVN7RDLk90YHkEIMBpj8WaLmQgF2L46B9RAvWA/2hcO4IKyfG4b9zrGSnebvhgKvFEoOLeByAXxO5eCiaxoOrozDBoswLOMv6Ab6YP4wbzkxyriJv4rgsa0XoRktQCQepYkZh+yEm1Cfz8fx9cnYaBGBJZ9rMH+4N+abemPRZ75wGOsPxwmBklngZ9aaeJ9n2zaYh+Po2iRxxTPjb8r/SNBrz4wULaMGSKEZbRONP9MxyWGVUJ/Pw7ndqTjkEo+ddtHYtjAKWxdEyetOuygcWBGHsztTBZSkkArcKGl46uePytjG/vpCAKSPiPS6Gusf/w8Enqvj74D4SrvDGMdYvTJ9e+nouxcWoI429d90rxcgI0ezF6BegIycAka+vF4J6gXIyClg5MvrUILCwsIQExODmponj0a1trYiPT0dSUlJqK2tRUFBAby9vXH16tUnroCAAJSWlj5FgoiICHh4eLT1DQ8Pf6rPD/XFgwcPkJubi+joaFnrDzVuT43TIUCff/45Ro0aBV9f3yfWc//+fVhZWcHW1hZxcXHYt28f/vGPf+Dvf/87+vTp03YNGDAAR44cwZ07d+R5EovActw333xT+v373/+WzwT5ebSGhgZs374dY8eOxfNkhOexdo7ZIUBff/01XnnlFezdu7ft5CZPcHLTf/nLX7B//37cuHFDACLRdYHctGkTrK2t4eXlJc+XlJTgl7/8JZYuXSpczQXk5eVh/fr1GDx4MB4+1H9IkHO2tLSgqalJrubmZvms3Z9Mc+/evbY+/Mzn6urqwHWMGTMGwcHBoPTzezKLMh6fU77nPByffdjYj2PxPhvn5H3lM+9rz6v9LN/zvjIWn9EeSwbs5E+HAOXk5OCjjz6Cvb09iosfH/arr6/HpUuXRAKoAjkpJUgfQFeuXIGDgwNOnz6N8vJybNu2DUOGDEFaWposnGvjBsjZ5PBr167h7t2nDyNWVVUJqP/85z/x5z//GePHj8eyZctw7tw52R6fMTc3F2bifV6LFi0S1Xz8+HH8/ve/x89+9jNMmDABISEhwlSHDh2Sfuz73nvvISoqSlTgxo0bMWnSJFRUVMjaTpw4AUtLSwQFBclcGo1G7sfHx8t9Mm+/fv3axho5ciTKysoElEGDBmHPnj2orKyUZ1NSUkTzUN0S1K60DgEiB8ybNw82Njag3WCjTZkxYwYWLlwo3M/v2gPIxcVFng8MDERGRgamTJkihCXBtRslkverq6ufkiIyhLu7O/72t78JgG5ubiINAwcOxNGjR9tAGD16NM6fPy9SwjVTYmgXKaHz588H1S0BLSoqwuHDh/Hpp5/KK6WKzEVGio2NBQGZNm2ajENupyp///33xV5ynd988w04F20vQeOzu3fvlv5kwE8++UQ+k/FIo9WrV4utJhPR7pqamopUKxKoTQd97zsEiA8cPHhQCEtbQsAIFO3N5cuXcfv2459wEKDXX38dw4cPx8yZM9suciyfJ+HJPdwYOfTmza7/Nyka+JUrV2LEiBHyXGNjI9atWydSRICoppKTk0HOJphslI7Jkyfj7Nmzoo61bRC1wqpVq/DVV1+1rePUqVOydvYnMzk5OQmYBIhMRTtMB4iST7W+ePFi0RwEm0xA1c1GsMm8lG6qyuvXr4tkk6nI2JyH97rTOgUoMjJSiEG7kZ+fL0b/1VdfRVZWVpuaIkDvvPOObMbZ2RnKRfVCgrA9K0AkPrmY3KgwBLmY3xEgNqoLcu/atWvlGjdunEiIPoC4H6osExOTtv4cizaV+8jMzISrq6uASPtqYWEh+yFDUgJpzyhlSrt48SI2b94sY82dO1dsqQIQ1fr06dNlPHq0tLUErTutU4BIFG6IYk9bwkVoE4uTtafitBdCQMm1tA2KTlbu37p1S2wD1Ry5Vrt1BhBVB1XNW2+9JRJqZmaGDz/8UGydPoBoNynlZDL21b7UarWoLu6Tqop2iRJPm3vy5EnY2dnB0dFRJJbOQnZ2tthOqkuOM2zYMLFnCkDcB6V1586dcpF2ZPLutE4B4mBbtmwRXUvj/MEHH8DPz0/UnTJRVwCi3Tlw4AD69+8vMYliJPlK9UTdTCIoLrkyNkGj9JIA1PtsNMzkTEoQ3fNZs2aJRFHlcDxKAA29PoDo5pNotFOKQ0IVTMlR4j0fHx+89tprMg9VG5mLRKaDs2TJElkD59m6dSsorWQQ2hwCzHVqA0QVSOnmGunRdrd1CSACQvvxox/9CH379n1qjq4AxIcoOfSaFixYIAaZBKdhppeob1w+Q+kioX/zm99IDMVnCA4NNwGijfriiy9EOhk4My6jHaAUURXSsNOI02kgI5BRqJLIKP7+/gL6jh07xMZRXbFRHZPbafcSExMFdBKdY/JZNto+2qrPPvtMnBgyyoYNG8Q+E0TaIDZK2dSpU0XCyaDdbV0CiHaEevqvf/0rVqxY8dQcXQWIngtVJtXRr3/9a/z2t78VwlOdMF7R1xhD0MUn0f/0pz/JM+RkutUEiI4BuZyuNEGky0uVTM+NnhlVJo33v/71LwkZaAMKCwvFlvzqV7+S8X7xi1+Ih6ioVxp02hre53uugdIye/ZsmYvrpIqjZHEv7EfHiY4JpZMeo6Ih2I+2kWqVYHe3dQkgem9UH7QHNHy6jcaUnKx4Ubr3dT+npqZKColpJF7kso4auZFEpXSwP9XTnDlzRAJIAILLuIT36GlxrQSV3hWJSyni2nmPEsnxKEnK/HzVZhACRWnnfApo/Mw1KI4K10u6cEw+n5CQIC494yeqZcWNpmQx40LbRanrbusSQN0d9IfsT8JQVZE7lYt6n+5ud9z1H3JNXR2LLjtVJaWnu96bMofRA0SbQ9vB2Ee56GUp7ruyEWN8pU1kTEZwKFnP0oweoGfZ1H/TM70AGTmavQD1AmTkFDDy5T2TBNFNZYzBmEMp0DFGYFyg3ZgmUfow4ch8FN3inmg00Iw/mAFglP99G/OLdJW7UlhkZoK5SWbhtd3yZ1lDtwGiV8VUCyNzRsas4bCwx+zAl19+KSARBNaCuCFG6UzhMAPMbDfjkx+CYJ1tlll3BtfaaZfOnunoPuMcxlqMqTprjBV//vOfy76V9FFnz7R3v9sAMVgbOnSopGf4no35M6bSP/74Y3ErGUUzeCOR6F6yREDAXn75ZTCbrETZ2ouiVJI7GYkzKcmMBVNMbMyZ8T0zB8wLEnj2YXyk3Zi6YbqF95jQ1QaIaRxyNJmL91mnYc5Nu4WGhkpyVLlPKeS62JjJZsqJmQUG2swPsv7EUgj7kwnJfLyoXX7yk59Iqohr0rdf7Xk7et9tgBilMy/HzDQ3zUCSjXEJJYpAKNG3MjEjaNZE/vCHP0jkrXufEsVxuVHWkKgumf7hZ0bqDEhJ+HfffVeSoEzlMJ3CYhnVKqN2ZomZo2P9hklJJi2ZS1MkiGUDqtmJEydK4Mi+DHiZASEILOwxJ8i9MbHJxDCfYTaCGoHBJp9hdoGppZ/+9KdtSVpWUbluAsh9MGP/4x//WJKrjOGeJYOg0K7bADElwoWQgCQAdbxKpZJygT79THH39PQUYpPA+riJEshzC8yn8VwD1Qg5liqTdoQAsZbyxz/+USSVep21JgLE6ihTLpQuJlCViP3ChQtSltcGiCUGZpaZkmJ+7o033pCMBD8zn8gMOMfjelj9ZGKXr7yvCxBVGCWZ+6N081mmdNgMquK4AOa3uAieI+A5AV4sQ3DBBJD3lUaJIofRaFIi+JyuDaIaJIGoIqkWydVUDQSItk4BiASl6mSjeqIKY1KTKpRleUoWs+NsrOUwYaoNECVAUZssL/A+c3o06pyLalFJaFJ9kwnXrFkjUqQLEBOkZCoyE6WYY7MPm8EBklXo/CHHsyrJ1L4+KWEKn0CRiNyAdiMxqF5eeumlp66uAEQiUSVRNSkAcT7amfYA4py0d6ampmIn+crnX2iAqEupGljM0j34QeOv1OPJ0bqNupn1E9oBvtduuhJEe6BctHE9IUGsGL/wEkRjSaNNdUbVokgCOZhejFJEo02gymKikBVMNqomqigWs3TBVWzQ7373uzYbRJeWc+zatatTgOh00N1nzMV1cD3t2SCuiY2MxoMuzIrTxvBV2wbR42P9iZ4iQ4sXRsWRmCQGpYVFM3pM9Lqogykh9KYIJF1WGk3qdvZhf1Yf9Z0J0+fFUdJoY1hO7kyC6MURdNohliS4Hn1eHO0gx1XWzH6deXG0L2SA7gDE+tjbb78tKp20+j7Bare9OHIfCcqUP6NrBqC8eEBPt/BGd1TpQ3tAo0rw9DUlDmI/ZUxyMZsSB9EDU4440cjzpA2dCaXR/rAPn6f08b4yJ11mlsZZn+F9ZjmolrUbD5TwOd6nc6AdBzHm0Y6Dli9fLoU5agsCQhvMPmxU8fQq6TTRKdEuBmrP15X3zwRQVwY2tj4ESNuLM7b1tbee/xmAKJnkel2paY8wxvL9/wxAxkLw7q6jF6DuUqyH+/cC1MME7+50vQB1l2I93L8XoB4meHen6wWouxTr4f69APUwwbs7XS9A3aVYD/f/f6e39ahefnVWAAAAAElFTkSuQmCC;" vertex="1" parent="1">
          <mxGeometry x="311.12" y="467.26" width="49.83" height="46" as="geometry" />
        </mxCell>
        <mxCell id="Vu9pHZqkGJGlEkoihoIZ-31" value="" style="rounded=1;whiteSpace=wrap;html=1;rotation=-90;dashed=1;dashPattern=8 8;" vertex="1" parent="1">
          <mxGeometry x="193.02" y="574.8299999999999" width="472.5" height="154.45" as="geometry" />
        </mxCell>
        <mxCell id="Vu9pHZqkGJGlEkoihoIZ-32" value="" style="whiteSpace=wrap;html=1;aspect=fixed;strokeColor=#666666;fillColor=#f5f5f5;fontColor=#333333;" vertex="1" parent="1">
          <mxGeometry x="363.28999999999996" y="445.26" width="132.5" height="132.5" as="geometry" />
        </mxCell>
        <mxCell id="Vu9pHZqkGJGlEkoihoIZ-33" value="Availability Zone 2" style="text;html=1;strokeColor=#666666;fillColor=#f5f5f5;align=center;verticalAlign=middle;whiteSpace=wrap;rounded=0;fontStyle=1;fontColor=#333333;" vertex="1" parent="1">
          <mxGeometry x="374.53999999999996" y="415.26" width="110" height="30" as="geometry" />
        </mxCell>
        <mxCell id="Vu9pHZqkGJGlEkoihoIZ-34" value="" style="shape=image;verticalLabelPosition=bottom;labelBackgroundColor=default;verticalAlign=top;aspect=fixed;imageAspect=0;image=data:image/png,iVBORw0KGgoAAAANSUhEUgAAACAAAAAlCAYAAAAjt+tHAAABcElEQVRYCe2VsUoDQRCG72F8grxAHkBSp7C0sUtnkzZoJ4iklDTpNFWKFCnTBBvBQhArQTR2SgrLke9gIBy7e3NHNouwgWUvu3f3f/PP3E4hiX9F9+JIUo4MkB1o7MDxVUduliN5fFvL6+ZZVi9LuXuYCOttirkRwOltrxSdrK6FaxUF6PP7XQbTk8YQZgDEiHp4f+YUYR9H+uOuc9/njhmAKInc9yLWcWDxNAveU33eDECuLdHhQlUk9N8MQI5DL9I90qS1oWuh2QxgjczqlEJlAK8DFBxVr4Ma0OvQTKo4mPSeurPBC8D3Tj6Z2w4ggNF8u+YgAC9wPWRdAzwqQN3nFg2A+tBmFOoB0QC0NkgFLvgOqWgAVUHcoDtWayMaAA3ncn5eCiIMkKseogEgRhoQ3k3HwRxQIQ4dV+S6H80BFUgOUNd6ozugTvjm/w1AF9v+/pSVTrW3HXX9xNuMfLbuez0DZAeKr+2HpBzJAf4AZcs7IdS9HSYAAAAASUVORK5CYII=;fillColor=#f5f5f5;fontColor=#333333;strokeColor=#666666;" vertex="1" parent="1">
          <mxGeometry x="369.53999999999996" y="445.26" width="32" height="37" as="geometry" />
        </mxCell>
        <mxCell id="Vu9pHZqkGJGlEkoihoIZ-35" value="" style="whiteSpace=wrap;html=1;aspect=fixed;strokeColor=#666666;fillColor=#f5f5f5;fontColor=#333333;" vertex="1" parent="1">
          <mxGeometry x="363.28999999999996" y="585.26" width="132.5" height="132.5" as="geometry" />
        </mxCell>
        <mxCell id="Vu9pHZqkGJGlEkoihoIZ-36" value="" style="shape=image;verticalLabelPosition=bottom;labelBackgroundColor=default;verticalAlign=top;aspect=fixed;imageAspect=0;image=data:image/png,iVBORw0KGgoAAAANSUhEUgAAAB8AAAAkCAYAAABxE+FXAAABbklEQVRYCe2VMUpEQQyG3xm8gTfwBN7AG3gDb2BhKVaW2lluaaeFhRYKW1goKKyFIFuo2KhsoYJF5HsQGONmZ+bpOKCvCDPZ93a+vORPpplbO5Ba1tQCw+3hVeqenfbFraFsD8dycT+R8dOL7I0eZGX3slPwWfDV/Ss5uXlsYfPrhy1waee0DYCAcsWbDAcCWKEWNDi7lY2j66wAkuGASbmFhj6l8IIL39N9EpwDOVj/5K2kPqf+SXC+mLR6UP19eXAu6EL92Prj8Jy69/AvdaLOpBDToaK+tzJw6Ap9HhOfm3aAHIKIulqsQ2bCGSwxxXrPU9qzMzw2TIrB6WUuFczr/yLwhc3jTzMe+DRhFYEjvvAG86ZfETiHkm6Exp5Apo3UInCgdMHz63t72QAHZFVfDA7Ipv//wEl9KLxf/XILs37RmluY9b8F51JB0TrJuqzccDao0Hdne/hSqX0Pn1mbv5n2u8mb1LKmFhjuB5dH5Ay+37lMAAAAAElFTkSuQmCC;fillColor=#f5f5f5;fontColor=#333333;strokeColor=#666666;" vertex="1" parent="1">
          <mxGeometry x="369.53999999999996" y="585.26" width="31" height="36" as="geometry" />
        </mxCell>
        <mxCell id="Vu9pHZqkGJGlEkoihoIZ-37" value="" style="outlineConnect=0;dashed=0;verticalLabelPosition=bottom;verticalAlign=top;align=center;html=1;shape=mxgraph.aws3.ec2;fillColor=#f5f5f5;fontColor=#333333;strokeColor=#666666;" vertex="1" parent="1">
          <mxGeometry x="374.53999999999996" y="491.51" width="40" height="40" as="geometry" />
        </mxCell>
        <mxCell id="Vu9pHZqkGJGlEkoihoIZ-38" value="" style="outlineConnect=0;dashed=0;verticalLabelPosition=bottom;verticalAlign=top;align=center;html=1;shape=mxgraph.aws3.classic_load_balancer;fillColor=#f5f5f5;fontColor=#333333;strokeColor=#666666;" vertex="1" parent="1">
          <mxGeometry x="432.03999999999996" y="475.26" width="30" height="30" as="geometry" />
        </mxCell>
        <mxCell id="Vu9pHZqkGJGlEkoihoIZ-39" value="&lt;div style=&quot;color: rgb(204, 204, 204); background-color: rgb(36, 36, 36); font-family: Consolas, &amp;quot;Courier New&amp;quot;, monospace; font-weight: normal; line-height: 19px;&quot;&gt;&lt;div style=&quot;&quot;&gt;&lt;font style=&quot;font-size: 9px;&quot;&gt;Red Public x.x.x.x/x&lt;/font&gt;&lt;/div&gt;&lt;/div&gt;" style="text;whiteSpace=wrap;html=1;align=center;fillColor=#f5f5f5;fontColor=#333333;strokeColor=#666666;" vertex="1" parent="1">
          <mxGeometry x="376.03999999999996" y="530.26" width="110" height="40" as="geometry" />
        </mxCell>
        <mxCell id="Vu9pHZqkGJGlEkoihoIZ-41" value="" style="whiteSpace=wrap;html=1;aspect=fixed;strokeColor=#666666;fillColor=#f5f5f5;fontColor=#333333;" vertex="1" parent="1">
          <mxGeometry x="364.78999999999996" y="725.26" width="132.5" height="132.5" as="geometry" />
        </mxCell>
        <mxCell id="Vu9pHZqkGJGlEkoihoIZ-42" value="" style="shape=image;verticalLabelPosition=bottom;labelBackgroundColor=default;verticalAlign=top;aspect=fixed;imageAspect=0;image=data:image/png,iVBORw0KGgoAAAANSUhEUgAAAB8AAAAkCAYAAABxE+FXAAABbklEQVRYCe2VMUpEQQyG3xm8gTfwBN7AG3gDb2BhKVaW2lluaaeFhRYKW1goKKyFIFuo2KhsoYJF5HsQGONmZ+bpOKCvCDPZ93a+vORPpplbO5Ba1tQCw+3hVeqenfbFraFsD8dycT+R8dOL7I0eZGX3slPwWfDV/Ss5uXlsYfPrhy1waee0DYCAcsWbDAcCWKEWNDi7lY2j66wAkuGASbmFhj6l8IIL39N9EpwDOVj/5K2kPqf+SXC+mLR6UP19eXAu6EL92Prj8Jy69/AvdaLOpBDToaK+tzJw6Ap9HhOfm3aAHIKIulqsQ2bCGSwxxXrPU9qzMzw2TIrB6WUuFczr/yLwhc3jTzMe+DRhFYEjvvAG86ZfETiHkm6Exp5Apo3UInCgdMHz63t72QAHZFVfDA7Ipv//wEl9KLxf/XILs37RmluY9b8F51JB0TrJuqzccDao0Hdne/hSqX0Pn1mbv5n2u8mb1LKmFhjuB5dH5Ay+37lMAAAAAElFTkSuQmCC;fillColor=#f5f5f5;fontColor=#333333;strokeColor=#666666;" vertex="1" parent="1">
          <mxGeometry x="369.53999999999996" y="735.26" width="31" height="36" as="geometry" />
        </mxCell>
        <mxCell id="Vu9pHZqkGJGlEkoihoIZ-44" value="" style="outlineConnect=0;dashed=0;verticalLabelPosition=bottom;verticalAlign=top;align=center;html=1;shape=mxgraph.aws3.ec2;fillColor=#f5f5f5;fontColor=#333333;strokeColor=#666666;" vertex="1" parent="1">
          <mxGeometry x="383.03999999999996" y="622.38" width="40" height="40" as="geometry" />
        </mxCell>
        <mxCell id="Vu9pHZqkGJGlEkoihoIZ-45" value="" style="outlineConnect=0;dashed=0;verticalLabelPosition=bottom;verticalAlign=top;align=center;html=1;shape=mxgraph.aws3.ec2;fillColor=#f5f5f5;fontColor=#333333;strokeColor=#666666;" vertex="1" parent="1">
          <mxGeometry x="434.03999999999996" y="621.38" width="40" height="40" as="geometry" />
        </mxCell>
        <mxCell id="Vu9pHZqkGJGlEkoihoIZ-46" value="" style="outlineConnect=0;dashed=0;verticalLabelPosition=bottom;verticalAlign=top;align=center;html=1;shape=mxgraph.aws3.ec2;fillColor=#f5f5f5;fontColor=#333333;strokeColor=#666666;" vertex="1" parent="1">
          <mxGeometry x="382.03999999999996" y="771.26" width="40" height="40" as="geometry" />
        </mxCell>
        <mxCell id="Vu9pHZqkGJGlEkoihoIZ-47" value="" style="outlineConnect=0;dashed=0;verticalLabelPosition=bottom;verticalAlign=top;align=center;html=1;shape=mxgraph.aws3.ec2;fillColor=#f5f5f5;fontColor=#333333;strokeColor=#666666;" vertex="1" parent="1">
          <mxGeometry x="432.03999999999996" y="771.51" width="40" height="40" as="geometry" />
        </mxCell>
        <mxCell id="Vu9pHZqkGJGlEkoihoIZ-48" value="&lt;div style=&quot;color: rgb(204, 204, 204); background-color: rgb(36, 36, 36); font-family: Consolas, &amp;quot;Courier New&amp;quot;, monospace; font-weight: normal; line-height: 19px;&quot;&gt;&lt;div style=&quot;&quot;&gt;&lt;font style=&quot;font-size: 9px;&quot;&gt;Red Privada x.x.x.x/x&lt;/font&gt;&lt;/div&gt;&lt;/div&gt;" style="text;whiteSpace=wrap;html=1;align=center;fillColor=#f5f5f5;fontColor=#333333;strokeColor=#666666;" vertex="1" parent="1">
          <mxGeometry x="373.02" y="677.76" width="110" height="40" as="geometry" />
        </mxCell>
        <mxCell id="Vu9pHZqkGJGlEkoihoIZ-49" value="&lt;div style=&quot;color: rgb(204, 204, 204); background-color: rgb(36, 36, 36); font-family: Consolas, &amp;quot;Courier New&amp;quot;, monospace; font-weight: normal; line-height: 19px;&quot;&gt;&lt;div style=&quot;&quot;&gt;&lt;font style=&quot;font-size: 9px;&quot;&gt;Red Privada x.x.x.x/x&lt;/font&gt;&lt;/div&gt;&lt;/div&gt;" style="text;whiteSpace=wrap;html=1;align=center;fillColor=#f5f5f5;fontColor=#333333;strokeColor=#666666;" vertex="1" parent="1">
          <mxGeometry x="376.03999999999996" y="817.76" width="110" height="40" as="geometry" />
        </mxCell>
        <mxCell id="Vu9pHZqkGJGlEkoihoIZ-50" value="" style="rounded=1;whiteSpace=wrap;html=1;rotation=-90;dashed=1;dashPattern=8 8;" vertex="1" parent="1">
          <mxGeometry x="373.02" y="574.8299999999999" width="472.5" height="154.45" as="geometry" />
        </mxCell>
        <mxCell id="Vu9pHZqkGJGlEkoihoIZ-51" value="" style="whiteSpace=wrap;html=1;aspect=fixed;strokeColor=#666666;fillColor=#f5f5f5;fontColor=#333333;" vertex="1" parent="1">
          <mxGeometry x="543.29" y="445.26" width="132.5" height="132.5" as="geometry" />
        </mxCell>
        <mxCell id="Vu9pHZqkGJGlEkoihoIZ-52" value="Availability Zone 3" style="text;html=1;strokeColor=#666666;fillColor=#f5f5f5;align=center;verticalAlign=middle;whiteSpace=wrap;rounded=0;fontStyle=1;fontColor=#333333;" vertex="1" parent="1">
          <mxGeometry x="554.54" y="415.26" width="110" height="30" as="geometry" />
        </mxCell>
        <mxCell id="Vu9pHZqkGJGlEkoihoIZ-53" value="" style="shape=image;verticalLabelPosition=bottom;labelBackgroundColor=default;verticalAlign=top;aspect=fixed;imageAspect=0;image=data:image/png,iVBORw0KGgoAAAANSUhEUgAAACAAAAAlCAYAAAAjt+tHAAABcElEQVRYCe2VsUoDQRCG72F8grxAHkBSp7C0sUtnkzZoJ4iklDTpNFWKFCnTBBvBQhArQTR2SgrLke9gIBy7e3NHNouwgWUvu3f3f/PP3E4hiX9F9+JIUo4MkB1o7MDxVUduliN5fFvL6+ZZVi9LuXuYCOttirkRwOltrxSdrK6FaxUF6PP7XQbTk8YQZgDEiHp4f+YUYR9H+uOuc9/njhmAKInc9yLWcWDxNAveU33eDECuLdHhQlUk9N8MQI5DL9I90qS1oWuh2QxgjczqlEJlAK8DFBxVr4Ma0OvQTKo4mPSeurPBC8D3Tj6Z2w4ggNF8u+YgAC9wPWRdAzwqQN3nFg2A+tBmFOoB0QC0NkgFLvgOqWgAVUHcoDtWayMaAA3ncn5eCiIMkKseogEgRhoQ3k3HwRxQIQ4dV+S6H80BFUgOUNd6ozugTvjm/w1AF9v+/pSVTrW3HXX9xNuMfLbuez0DZAeKr+2HpBzJAf4AZcs7IdS9HSYAAAAASUVORK5CYII=;fillColor=#f5f5f5;fontColor=#333333;strokeColor=#666666;" vertex="1" parent="1">
          <mxGeometry x="549.54" y="445.26" width="32" height="37" as="geometry" />
        </mxCell>
        <mxCell id="Vu9pHZqkGJGlEkoihoIZ-54" value="" style="whiteSpace=wrap;html=1;aspect=fixed;strokeColor=#666666;fillColor=#f5f5f5;fontColor=#333333;" vertex="1" parent="1">
          <mxGeometry x="543.29" y="585.26" width="132.5" height="132.5" as="geometry" />
        </mxCell>
        <mxCell id="Vu9pHZqkGJGlEkoihoIZ-55" value="" style="shape=image;verticalLabelPosition=bottom;labelBackgroundColor=default;verticalAlign=top;aspect=fixed;imageAspect=0;image=data:image/png,iVBORw0KGgoAAAANSUhEUgAAAB8AAAAkCAYAAABxE+FXAAABbklEQVRYCe2VMUpEQQyG3xm8gTfwBN7AG3gDb2BhKVaW2lluaaeFhRYKW1goKKyFIFuo2KhsoYJF5HsQGONmZ+bpOKCvCDPZ93a+vORPpplbO5Ba1tQCw+3hVeqenfbFraFsD8dycT+R8dOL7I0eZGX3slPwWfDV/Ss5uXlsYfPrhy1waee0DYCAcsWbDAcCWKEWNDi7lY2j66wAkuGASbmFhj6l8IIL39N9EpwDOVj/5K2kPqf+SXC+mLR6UP19eXAu6EL92Prj8Jy69/AvdaLOpBDToaK+tzJw6Ap9HhOfm3aAHIKIulqsQ2bCGSwxxXrPU9qzMzw2TIrB6WUuFczr/yLwhc3jTzMe+DRhFYEjvvAG86ZfETiHkm6Exp5Apo3UInCgdMHz63t72QAHZFVfDA7Ipv//wEl9KLxf/XILs37RmluY9b8F51JB0TrJuqzccDao0Hdne/hSqX0Pn1mbv5n2u8mb1LKmFhjuB5dH5Ay+37lMAAAAAElFTkSuQmCC;fillColor=#f5f5f5;fontColor=#333333;strokeColor=#666666;" vertex="1" parent="1">
          <mxGeometry x="549.54" y="585.26" width="31" height="36" as="geometry" />
        </mxCell>
        <mxCell id="Vu9pHZqkGJGlEkoihoIZ-56" value="" style="outlineConnect=0;dashed=0;verticalLabelPosition=bottom;verticalAlign=top;align=center;html=1;shape=mxgraph.aws3.ec2;fillColor=#f5f5f5;fontColor=#333333;strokeColor=#666666;" vertex="1" parent="1">
          <mxGeometry x="554.54" y="491.51" width="40" height="40" as="geometry" />
        </mxCell>
        <mxCell id="Vu9pHZqkGJGlEkoihoIZ-57" value="" style="outlineConnect=0;dashed=0;verticalLabelPosition=bottom;verticalAlign=top;align=center;html=1;shape=mxgraph.aws3.classic_load_balancer;fillColor=#f5f5f5;fontColor=#333333;strokeColor=#666666;" vertex="1" parent="1">
          <mxGeometry x="612.04" y="475.26" width="30" height="30" as="geometry" />
        </mxCell>
        <mxCell id="Vu9pHZqkGJGlEkoihoIZ-58" value="&lt;div style=&quot;color: rgb(204, 204, 204); background-color: rgb(36, 36, 36); font-family: Consolas, &amp;quot;Courier New&amp;quot;, monospace; font-weight: normal; line-height: 19px;&quot;&gt;&lt;div style=&quot;&quot;&gt;&lt;font style=&quot;font-size: 9px;&quot;&gt;Red Public x.x.x.x/x&lt;/font&gt;&lt;/div&gt;&lt;/div&gt;" style="text;whiteSpace=wrap;html=1;align=center;fillColor=#f5f5f5;fontColor=#333333;strokeColor=#666666;" vertex="1" parent="1">
          <mxGeometry x="556.04" y="530.26" width="110" height="40" as="geometry" />
        </mxCell>
        <mxCell id="Vu9pHZqkGJGlEkoihoIZ-59" value="" style="whiteSpace=wrap;html=1;aspect=fixed;strokeColor=#666666;fillColor=#f5f5f5;fontColor=#333333;" vertex="1" parent="1">
          <mxGeometry x="544.79" y="725.26" width="132.5" height="132.5" as="geometry" />
        </mxCell>
        <mxCell id="Vu9pHZqkGJGlEkoihoIZ-60" value="" style="shape=image;verticalLabelPosition=bottom;labelBackgroundColor=default;verticalAlign=top;aspect=fixed;imageAspect=0;image=data:image/png,iVBORw0KGgoAAAANSUhEUgAAAB8AAAAkCAYAAABxE+FXAAABbklEQVRYCe2VMUpEQQyG3xm8gTfwBN7AG3gDb2BhKVaW2lluaaeFhRYKW1goKKyFIFuo2KhsoYJF5HsQGONmZ+bpOKCvCDPZ93a+vORPpplbO5Ba1tQCw+3hVeqenfbFraFsD8dycT+R8dOL7I0eZGX3slPwWfDV/Ss5uXlsYfPrhy1waee0DYCAcsWbDAcCWKEWNDi7lY2j66wAkuGASbmFhj6l8IIL39N9EpwDOVj/5K2kPqf+SXC+mLR6UP19eXAu6EL92Prj8Jy69/AvdaLOpBDToaK+tzJw6Ap9HhOfm3aAHIKIulqsQ2bCGSwxxXrPU9qzMzw2TIrB6WUuFczr/yLwhc3jTzMe+DRhFYEjvvAG86ZfETiHkm6Exp5Apo3UInCgdMHz63t72QAHZFVfDA7Ipv//wEl9KLxf/XILs37RmluY9b8F51JB0TrJuqzccDao0Hdne/hSqX0Pn1mbv5n2u8mb1LKmFhjuB5dH5Ay+37lMAAAAAElFTkSuQmCC;fillColor=#f5f5f5;fontColor=#333333;strokeColor=#666666;" vertex="1" parent="1">
          <mxGeometry x="549.54" y="735.26" width="31" height="36" as="geometry" />
        </mxCell>
        <mxCell id="Vu9pHZqkGJGlEkoihoIZ-61" value="" style="outlineConnect=0;dashed=0;verticalLabelPosition=bottom;verticalAlign=top;align=center;html=1;shape=mxgraph.aws3.ec2;fillColor=#f5f5f5;fontColor=#333333;strokeColor=#666666;" vertex="1" parent="1">
          <mxGeometry x="563.04" y="622.38" width="40" height="40" as="geometry" />
        </mxCell>
        <mxCell id="Vu9pHZqkGJGlEkoihoIZ-62" value="" style="outlineConnect=0;dashed=0;verticalLabelPosition=bottom;verticalAlign=top;align=center;html=1;shape=mxgraph.aws3.ec2;fillColor=#f5f5f5;fontColor=#333333;strokeColor=#666666;" vertex="1" parent="1">
          <mxGeometry x="614.04" y="621.38" width="40" height="40" as="geometry" />
        </mxCell>
        <mxCell id="Vu9pHZqkGJGlEkoihoIZ-63" value="" style="outlineConnect=0;dashed=0;verticalLabelPosition=bottom;verticalAlign=top;align=center;html=1;shape=mxgraph.aws3.ec2;fillColor=#f5f5f5;fontColor=#333333;strokeColor=#666666;" vertex="1" parent="1">
          <mxGeometry x="562.04" y="771.26" width="40" height="40" as="geometry" />
        </mxCell>
        <mxCell id="Vu9pHZqkGJGlEkoihoIZ-64" value="" style="outlineConnect=0;dashed=0;verticalLabelPosition=bottom;verticalAlign=top;align=center;html=1;shape=mxgraph.aws3.ec2;fillColor=#f5f5f5;fontColor=#333333;strokeColor=#666666;" vertex="1" parent="1">
          <mxGeometry x="612.04" y="771.51" width="40" height="40" as="geometry" />
        </mxCell>
        <mxCell id="Vu9pHZqkGJGlEkoihoIZ-65" value="&lt;div style=&quot;color: rgb(204, 204, 204); background-color: rgb(36, 36, 36); font-family: Consolas, &amp;quot;Courier New&amp;quot;, monospace; font-weight: normal; line-height: 19px;&quot;&gt;&lt;div style=&quot;&quot;&gt;&lt;font style=&quot;font-size: 9px;&quot;&gt;Red Privada x.x.x.x/x&lt;/font&gt;&lt;/div&gt;&lt;/div&gt;" style="text;whiteSpace=wrap;html=1;align=center;fillColor=#f5f5f5;fontColor=#333333;strokeColor=#666666;" vertex="1" parent="1">
          <mxGeometry x="553.02" y="677.76" width="110" height="40" as="geometry" />
        </mxCell>
        <mxCell id="Vu9pHZqkGJGlEkoihoIZ-66" value="&lt;div style=&quot;color: rgb(204, 204, 204); background-color: rgb(36, 36, 36); font-family: Consolas, &amp;quot;Courier New&amp;quot;, monospace; font-weight: normal; line-height: 19px;&quot;&gt;&lt;div style=&quot;&quot;&gt;&lt;font style=&quot;font-size: 9px;&quot;&gt;Red Privada x.x.x.x/x&lt;/font&gt;&lt;/div&gt;&lt;/div&gt;" style="text;whiteSpace=wrap;html=1;align=center;fillColor=#f5f5f5;fontColor=#333333;strokeColor=#666666;" vertex="1" parent="1">
          <mxGeometry x="556.04" y="817.76" width="110" height="40" as="geometry" />
        </mxCell>
        <mxCell id="Vu9pHZqkGJGlEkoihoIZ-68" value="" style="sketch=0;points=[[0,0,0],[0.25,0,0],[0.5,0,0],[0.75,0,0],[1,0,0],[0,1,0],[0.25,1,0],[0.5,1,0],[0.75,1,0],[1,1,0],[0,0.25,0],[0,0.5,0],[0,0.75,0],[1,0.25,0],[1,0.5,0],[1,0.75,0]];outlineConnect=0;fontColor=#232F3E;fillColor=#DD344C;strokeColor=#ffffff;dashed=0;verticalLabelPosition=bottom;verticalAlign=top;align=center;html=1;fontSize=12;fontStyle=0;aspect=fixed;shape=mxgraph.aws4.resourceIcon;resIcon=mxgraph.aws4.network_firewall;" vertex="1" parent="1">
          <mxGeometry x="259.02" y="453.51" width="38" height="38" as="geometry" />
        </mxCell>
      </root>
    </mxGraphModel>
  </diagram>
</mxfile>
